<svg version="1.2" xmlns="http://www.w3.org/2000/svg" viewBox="0 0 2048 2048" width="2048" height="2048">
	<style>
		.s0 { opacity: .99;fill: #a3c807 } 
	</style>
	<path id="Path 0" class="s0" d="m1018 641.13c-6.88 0.47-15.42 1.3-19 1.86-3.58 0.55-11.45 1.69-17.5 2.54-6.05 0.84-11.67 1.79-12.5 2.1-0.83 0.31-6.23 1.6-12 2.86-5.77 1.26-13.65 3.04-17.5 3.96-3.85 0.92-7.9 2.04-9 2.5-1.1 0.46-7.4 2.54-14 4.62-6.6 2.09-12.67 4.15-13.5 4.57-0.83 0.43-5.77 2.46-11 4.52-5.23 2.05-12.99 5.45-17.25 7.54-4.26 2.09-8.17 3.8-8.68 3.8-0.51 0-1.52 0.56-2.25 1.25-0.73 0.69-4.24 2.75-7.82 4.58-3.58 1.82-8.75 4.63-11.5 6.22-2.75 1.6-6.58 3.83-8.5 4.95-1.92 1.12-6.65 4.07-10.5 6.55-3.85 2.47-11.05 7.53-16 11.23-4.94 3.69-9.85 7.39-10.91 8.22-1.05 0.83-7.8 6.73-15 13.12-7.2 6.38-17.63 16.51-23.19 22.5-5.55 5.98-11.85 12.96-14 15.51-2.14 2.54-5.02 6.08-6.4 7.85-1.37 1.78-2.98 3.74-3.57 4.37-0.58 0.63-2.95 3.85-5.27 7.15-2.31 3.3-6.62 9.6-9.57 14-2.95 4.4-8.28 13.17-11.83 19.5-3.56 6.33-8.82 16.45-11.69 22.5-2.87 6.05-5.57 11.67-6.01 12.5-0.43 0.83-1.93 4.42-3.34 8-1.41 3.58-3.66 9.42-5.01 13-1.35 3.58-3.6 10.1-5.01 14.5-1.4 4.4-2.87 9.58-3.24 11.5-0.38 1.92-1.02 3.95-1.43 4.5-0.41 0.55-1.29 3.92-1.96 7.5-0.67 3.58-1.84 8.75-2.59 11.5-0.76 2.75-1.88 8.83-2.49 13.5-0.61 4.67-1.53 9.51-2.05 10.75-0.52 1.24-1.73 11.36-2.69 22.5-0.97 11.24-1.75 29.6-1.75 41.25 0.01 11.55 0.6 27.53 1.33 35.5 0.73 7.97 1.71 16.97 2.19 20 0.48 3.03 1.74 11.13 2.8 18 1.07 6.88 2.38 13.4 2.92 14.5 0.54 1.1 1.28 4.03 1.65 6.5 0.36 2.47 1.56 7.65 2.65 11.5 1.1 3.85 3.42 11.5 5.15 17 1.74 5.5 3.53 10.45 4 11 0.46 0.55 0.84 1.56 0.83 2.25-0.01 0.69 1.52 5.19 3.41 10 1.88 4.81 4.62 11.45 6.09 14.75 1.46 3.3 5.36 11.4 8.67 18 3.3 6.6 7.18 14.03 8.62 16.5 1.44 2.47 2.97 4.61 3.4 4.75 0.44 0.14 0.79 0.7 0.79 1.25 0 0.55 1.46 3.36 3.24 6.25 1.78 2.89 5.13 7.95 7.44 11.25 2.31 3.3 4.9 6.9 5.76 8 0.86 1.1 3.92 5.16 6.81 9.01 2.89 3.86 6.15 8.1 7.25 9.42 1.1 1.32 5.43 6.26 9.61 10.98 4.19 4.73 13.64 14.44 21.01 21.59 7.36 7.15 19.21 17.5 26.33 23 7.12 5.5 13.71 10.45 14.65 11 0.93 0.55 4.33 2.76 7.55 4.91 3.22 2.15 8.77 5.81 12.35 8.13 3.58 2.33 10.33 6.34 15 8.92 4.67 2.58 9.17 5.08 10 5.55 0.83 0.48 3.75 1.97 6.5 3.33 2.75 1.35 7.48 3.58 10.5 4.94 3.02 1.37 8.2 3.68 11.5 5.13 3.3 1.45 6.45 2.63 7 2.62 0.55-0.01 2.13 0.58 3.5 1.3 1.38 0.73 4.98 2.11 8 3.07 3.02 0.96 6.4 2.12 7.5 2.58 1.1 0.46 5.83 1.99 10.5 3.4 4.67 1.4 10.75 3.05 13.5 3.67 2.75 0.61 5.9 1.51 7 1.99 1.1 0.49 4.92 1.39 8.5 2.01 3.58 0.62 7.63 1.54 9 2.05 1.38 0.51 9.02 1.86 17 3 7.98 1.13 17.2 2.45 20.5 2.93 3.3 0.47 13.54 1.23 22.75 1.67 9.22 0.44 16.76 1.14 16.75 1.55 0 0.41 5.85 0.75 13 0.75 7.15 0 13-0.34 13-0.75-0.01-0.41 7.08-1.12 15.75-1.56 8.66-0.45 18.67-1.21 22.25-1.69 3.58-0.49 12.58-1.81 20-2.93 7.42-1.13 14.63-2.47 16-2.98 1.38-0.52 5.65-1.48 9.5-2.14 3.85-0.67 7.45-1.55 8-1.96 0.55-0.42 3.47-1.27 6.5-1.9 3.03-0.63 12.03-3.36 20-6.06 7.97-2.7 15.85-5.61 17.5-6.46 1.65-0.86 3.45-1.57 4-1.59 0.55-0.01 2.8-0.88 5-1.91 2.2-1.04 8.72-4.13 14.5-6.88 5.78-2.74 15-7.57 20.5-10.72 5.5-3.15 10.9-6.24 12-6.86 1.1-0.62 5.38-3.35 9.5-6.06 4.13-2.71 10.88-7.39 15-10.41 4.13-3.02 12-9.33 17.5-14.02 5.5-4.7 15.46-13.96 22.14-20.58 6.67-6.62 15.22-15.66 19-20.09 3.77-4.43 7.89-9.38 9.15-11 1.25-1.62 4.63-6.14 7.5-10.04 2.86-3.9 5.88-8.08 6.71-9.27 0.83-1.2 3.39-5.21 5.7-8.91 2.31-3.7 6.39-10.56 9.08-15.23 2.68-4.67 5.14-9.17 5.46-10 0.32-0.83 0.29-2-0.08-2.61-0.36-0.61-3.58-2.73-7.16-4.72-3.58-1.98-9.87-5.37-14-7.54-4.12-2.16-9.53-4.99-12-6.28-2.47-1.29-4.72-2.63-5-2.97-0.28-0.34-4.33-2.63-9-5.09-4.67-2.46-11.65-6.17-15.5-8.26-3.85-2.08-7.45-4.11-8-4.52-0.55-0.4-6.4-3.56-13-7.02-6.6-3.45-16.05-8.41-21-11-4.95-2.59-11.47-6.06-14.5-7.7-3.03-1.65-12.81-7.11-21.75-12.14-8.94-5.03-17.49-9.4-19-9.71-2.57-0.53-3.06-0.03-7.53 7.75-2.63 4.57-4.77 8.65-4.75 9.06 0.02 0.41-0.42 0.75-0.97 0.75-0.55 0-1.21 0.79-1.47 1.75-0.26 0.96-2.39 4.26-4.75 7.33-2.35 3.07-5.4 7.12-6.77 9-1.37 1.88-7 7.93-12.5 13.44-5.51 5.52-12.04 11.7-14.51 13.74-2.47 2.04-7.2 5.65-10.5 8.02-3.3 2.37-7.58 5.28-9.5 6.46-1.92 1.18-6.87 3.86-11 5.96-4.12 2.09-7.72 4.07-8 4.39-0.28 0.33-2.75 1.4-5.5 2.38-2.75 0.99-7.47 2.65-10.5 3.7-3.03 1.04-6.4 2.29-7.5 2.78-1.1 0.48-6.95 2.02-13 3.43-6.5 1.5-17.55 3.04-27 3.75-12.27 0.92-19.62 0.94-31.5 0.05-8.92-0.66-20.38-2.26-27-3.76-6.33-1.43-12.85-3.19-14.5-3.9-1.65-0.72-4.58-1.63-6.5-2.03-1.92-0.4-3.95-1.06-4.5-1.46-0.55-0.41-3.25-1.58-6-2.61-2.75-1.02-8.38-3.6-12.5-5.73-4.12-2.13-10.65-5.95-14.5-8.5-3.85-2.55-10.37-7.34-14.49-10.66-4.12-3.32-10.59-8.95-14.39-12.53-3.8-3.58-10.57-11-15.05-16.5-4.48-5.5-10.25-13.15-12.82-17-2.57-3.85-7.56-12.85-11.09-20-3.54-7.15-6.99-14.8-7.67-17-0.69-2.2-1.6-4.45-2.02-5-0.43-0.55-1.29-3.03-1.91-5.5-0.63-2.47-1.58-5.4-2.1-6.5-0.53-1.1-1.9-6.28-3.04-11.5-1.15-5.22-2.7-14.22-3.46-20-0.75-5.78-1.84-13.54-2.41-17.25-0.58-3.71-1.05-13.16-1.04-21 0-7.84 0.46-16.73 1.01-19.75 0.55-3.02 1.64-10.45 2.4-16.5 0.77-6.05 2.28-15.05 3.36-20 1.08-4.95 2.96-12.15 4.18-16 1.22-3.85 2.85-8.46 3.63-10.25 0.78-1.79 1.42-3.59 1.43-4 0.01-0.41 1.19-3.23 2.62-6.25 1.43-3.02 3.94-8.2 5.58-11.5 1.64-3.3 3.51-6.9 4.14-8 0.64-1.1 2.48-4.25 4.09-7 1.61-2.75 6.09-9.27 9.96-14.5 3.87-5.23 11.56-14 17.09-19.5 5.53-5.5 14.32-13.07 19.53-16.81 5.21-3.75 11.95-8.38 14.97-10.28 3.02-1.91 8.65-4.99 12.5-6.86 3.85-1.86 9.25-4.35 12-5.53 2.75-1.18 8.83-3.41 13.5-4.96 4.67-1.54 10.52-3.14 13-3.54 2.48-0.41 4.95-1.11 5.5-1.56 0.55-0.44 7.08-1.52 14.5-2.38 7.42-0.87 18.9-1.58 25.5-1.58 6.6-0.01 16.95 0.48 23 1.07 6.05 0.6 12.58 1.47 14.5 1.94 1.92 0.47 6.2 1.53 9.5 2.35 3.3 0.83 9.6 2.66 14 4.07 4.4 1.42 8.9 2.99 10 3.48 1.1 0.5 5.83 2.63 10.5 4.74 4.67 2.1 9.06 4.39 9.75 5.09 0.69 0.69 1.7 1.26 2.25 1.26 0.55 0 4.26 2.11 8.25 4.69 3.99 2.59 8.4 5.62 9.81 6.75 1.41 1.13 3.82 2.96 5.35 4.06 1.54 1.1 5.11 4.02 7.94 6.5 2.83 2.48 7.86 7.2 11.17 10.5 3.31 3.3 7.59 7.97 9.5 10.38 1.91 2.41 4.15 5.12 4.98 6.02 0.83 0.91 3.3 4.33 5.5 7.61 2.2 3.27 4.35 6.41 4.77 6.97 0.42 0.56 2.1 3.04 3.73 5.52 1.63 2.48 2.98 4.95 3.01 5.5 0.03 0.55 0.82 1.7 1.77 2.55 1.57 1.42 2.12 1.34 6.22-0.9 2.47-1.35 7.2-3.89 10.5-5.64 3.3-1.74 11.17-6.11 17.5-9.71 6.33-3.59 16.45-9.13 22.5-12.31 6.05-3.17 11.22-6.05 11.5-6.38 0.28-0.34 2.53-1.67 5-2.96 2.47-1.29 7.88-4.12 12-6.29 4.13-2.16 10.88-5.79 15-8.05 4.13-2.27 7.61-4.5 7.75-4.96 0.14-0.47 0.7-0.85 1.25-0.85 0.55 0 5.39-2.42 10.75-5.38 5.36-2.96 13.35-7.3 17.75-9.64 4.4-2.35 11.94-6.45 16.75-9.12 4.81-2.67 9.01-5.42 9.34-6.11 0.32-0.69-1.58-5.08-4.22-9.75-2.64-4.67-5.82-10.08-7.07-12-1.25-1.92-2.73-4.06-3.29-4.75-0.55-0.69-1.01-1.48-1.01-1.75 0-0.27-2.55-4.21-5.68-8.75-3.12-4.54-8.37-11.62-11.66-15.75-3.3-4.12-6.75-8.4-7.67-9.5-0.92-1.1-9.28-9.67-18.58-19.04-9.3-9.36-19.03-18.81-21.62-21-2.59-2.18-5.97-4.94-7.5-6.14-1.53-1.2-5.04-3.93-7.79-6.06-2.75-2.14-10.85-7.72-18-12.39-7.15-4.68-15.92-10.12-19.5-12.1-3.58-1.97-9.65-5.23-13.5-7.24-3.85-2.01-12.06-5.87-18.25-8.59-6.19-2.72-11.47-4.94-11.75-4.94-0.28 0-1.96-0.65-3.75-1.45-1.79-0.79-5.95-2.38-9.25-3.53-3.3-1.15-8.92-3-12.5-4.12-3.58-1.12-9.88-2.96-14-4.09-4.13-1.13-11.78-2.91-17-3.97-5.22-1.05-11.08-2.36-13-2.91-1.92-0.55-8.22-1.66-14-2.47-5.78-0.8-13.2-1.88-16.5-2.39-3.3-0.52-13.42-1.41-22.5-2-9.08-0.59-25.28-1-36-0.92-10.72 0.07-25.13 0.52-32 0.98zm-436.5 18.18c-1.65 0.54-6.6 2.97-11 5.41-4.4 2.44-8.67 4.83-9.5 5.33-0.83 0.49-3.3 1.8-5.5 2.91-2.2 1.12-6.02 3.2-8.5 4.62-2.48 1.43-9.67 5.33-16 8.67-6.33 3.34-11.73 6.34-12 6.66-0.27 0.32-3.87 2.32-8 4.44-4.13 2.12-9.75 5.06-12.5 6.54-2.75 1.48-9.5 5.1-15 8.04-5.5 2.95-14.96 8.11-21.03 11.46-6.07 3.36-12.37 6.89-14 7.84-1.63 0.96-4.32 2.38-5.97 3.16-1.65 0.78-7.27 3.84-12.5 6.79-5.23 2.96-11.3 6.21-13.5 7.24-2.2 1.03-4.23 2.15-4.5 2.48-0.27 0.33-3.43 2.08-7 3.88-3.57 1.81-7.62 3.92-9 4.69-1.37 0.78-8.57 4.8-16 8.94-7.43 4.14-14.06 7.54-14.75 7.56-0.69 0.02-1.25 0.48-1.25 1.03 0 0.55-0.56 1.01-1.25 1.02-0.69 0.01-7.21 3.38-14.5 7.5-7.29 4.11-13.48 7.48-13.75 7.48-0.27 0-6.24 3.18-13.25 7.06-7.01 3.88-13.43 7.48-14.25 8-0.82 0.52-2.62 1.43-4 2.03-1.37 0.59-5.43 2.79-9 4.88-3.57 2.08-11.45 6.38-17.5 9.55-6.05 3.17-11.23 6.04-11.5 6.37-0.27 0.34-2.52 1.66-5 2.94-2.48 1.28-7.2 3.73-10.5 5.44-3.3 1.7-10.95 5.86-17 9.24-6.05 3.38-13.93 7.63-17.5 9.45-3.57 1.82-6.72 3.59-7 3.93-0.28 0.33-2.07 1.38-4 2.33-1.93 0.94-7.32 3.82-12 6.4-4.68 2.58-11.2 6.12-14.5 7.87-3.3 1.75-11.29 6.18-17.75 9.84-6.46 3.67-11.97 6.67-12.25 6.67-0.28 0-6.01 3.08-12.75 6.85-6.74 3.77-16.75 9.23-22.25 12.13-5.5 2.9-10.45 5.6-11 6-0.55 0.41-5.72 3.23-11.5 6.28-5.78 3.05-15 8.07-20.5 11.17-5.5 3.1-10.22 5.61-10.5 5.59-0.27-0.01-2.19 1.1-4.25 2.48l-3.75 2.5c0.02 103.46 0.36 134 0.77 134.61 0.4 0.62 4.78 3.41 9.73 6.22 4.95 2.81 9.34 5.12 9.75 5.14 0.41 0.02 5.47 2.73 11.25 6.03 5.78 3.3 13.76 7.73 17.75 9.84 3.99 2.11 9.95 5.32 13.25 7.12 3.3 1.81 9.6 5.33 14 7.82 4.4 2.5 12.05 6.68 17 9.3 4.95 2.62 11.01 5.81 13.46 7.09 2.45 1.28 5.03 2.89 5.75 3.58 0.71 0.69 2.3 1.54 3.54 1.89 1.24 0.36 9.45 4.66 18.25 9.57 8.8 4.9 16.68 9.33 17.5 9.84 0.82 0.5 3.97 2.2 7 3.77 3.03 1.56 9.21 4.94 13.75 7.51 4.54 2.57 8.47 4.67 8.75 4.67 0.28 0 6.13 3.15 13 7 6.88 3.85 12.73 7 13 7 0.27 0 7.14 3.76 15.25 8.36 8.11 4.6 19.02 10.64 24.25 13.43 5.23 2.78 11.98 6.33 15 7.89 3.02 1.55 5.73 3.11 6 3.46 0.27 0.35 2.07 1.36 4 2.25 1.93 0.88 5.75 2.87 8.5 4.41 2.75 1.54 9.27 5.06 14.5 7.84 5.23 2.77 13.32 7.21 18 9.87 4.68 2.65 11.2 6.25 14.5 7.99 3.3 1.75 9.15 4.9 13 7 3.85 2.11 9.25 4.99 12 6.39 2.75 1.41 5.23 2.8 5.5 3.09 0.27 0.28 4.1 2.32 8.5 4.52 4.4 2.2 8.23 4.26 8.5 4.58 0.27 0.32 2.98 1.87 6 3.44 3.02 1.58 11.35 6.14 18.5 10.14 7.15 4 13.56 7.29 14.25 7.31 0.69 0.02 1.36 0.41 1.5 0.87 0.14 0.46 5.43 3.57 11.75 6.91 6.32 3.34 13.52 7.22 16 8.62 2.48 1.4 7.88 4.33 12 6.51 4.13 2.18 9.98 5.34 13 7.01 3.02 1.67 6.85 3.71 8.5 4.52 1.65 0.82 4.13 2.16 5.5 2.99 1.37 0.83 8.24 4.68 15.25 8.56 7.01 3.87 13.2 7.04 13.75 7.04 0.55 0 1.57 0.56 2.27 1.25 0.7 0.69 5.42 3.39 10.5 6 5.08 2.61 9.48 4.64 9.78 4.5 0.31-0.14 0.51-34.67 0.44-76.75-0.07-42.08-0.25-76.72-0.41-77-0.16-0.28-3.17-2.13-6.69-4.13-3.51-1.99-10.44-5.77-15.39-8.39-4.95-2.62-12.83-6.81-17.5-9.31-4.67-2.51-10.75-5.81-13.5-7.35-2.75-1.54-5.67-3.09-6.5-3.46-0.83-0.36-7.35-3.94-14.5-7.94-7.15-4-17.73-9.77-23.5-12.81-5.77-3.05-12.98-6.83-16-8.41-3.02-1.57-9.21-4.96-13.75-7.53-4.54-2.57-8.48-4.67-8.75-4.67-0.27 0-3.99-1.97-8.25-4.38-4.26-2.41-11.57-6.38-16.25-8.83-4.68-2.45-12.21-6.56-16.75-9.12-4.54-2.57-8.48-4.67-8.75-4.67-0.27 0-5.56-2.84-11.75-6.3-6.19-3.47-13.95-7.71-17.25-9.42-3.3-1.71-8.01-4.17-10.46-5.45-2.45-1.28-5.03-2.89-5.75-3.58-0.71-0.69-1.63-1.23-2.04-1.22-0.41 0.02-6.49-3.13-13.5-7-7.01-3.86-12.98-7.03-13.25-7.03-0.27 0-5.56-2.85-11.75-6.34-6.19-3.49-15.52-8.61-20.75-11.38-5.23-2.77-13.55-7.21-18.5-9.88-4.95-2.66-11.25-6.09-14-7.62-2.75-1.53-6.8-3.71-9-4.83-2.2-1.13-6.03-3.19-8.5-4.58-2.47-1.39-9.22-5.01-15-8.05-5.78-3.04-11.96-6.38-13.75-7.43-1.79-1.04-3.14-2.37-3-2.97 0.14-0.59 3.4-2.8 7.25-4.92 3.85-2.11 9.03-4.92 11.5-6.23 2.47-1.31 8.1-4.28 12.5-6.6 4.4-2.32 8.68-4.63 9.5-5.13 0.82-0.49 5.55-3.13 10.5-5.85 4.95-2.72 13.5-7.34 19-10.27 5.5-2.92 12.02-6.38 14.5-7.68 2.48-1.31 6.52-3.5 9-4.88 2.48-1.39 9.45-5.13 15.5-8.32 6.05-3.2 13.25-7.12 16-8.72 2.75-1.6 6.57-3.7 8.5-4.66 1.93-0.96 5.75-2.99 8.5-4.5 2.75-1.52 9.27-5.02 14.5-7.8 5.23-2.77 13.32-7.2 18-9.84 4.68-2.64 9.4-5.18 10.5-5.66 1.1-0.47 2.68-1.28 3.5-1.8 0.82-0.52 7.24-4.12 14.25-8 7.01-3.88 12.98-7.06 13.25-7.06 0.27 0 5.56-2.85 11.75-6.33 6.19-3.49 15.52-8.6 20.75-11.37 5.23-2.78 13.1-6.96 17.5-9.3 4.4-2.34 9.35-5.04 11-6.01 1.65-0.97 7.5-4.13 13-7.02 5.5-2.9 15.06-8.12 21.25-11.62 6.19-3.49 11.48-6.35 11.75-6.35 0.27 0 4.21-2.1 8.75-4.67 4.54-2.57 10.73-5.96 13.75-7.53 3.02-1.58 7.75-4.11 10.5-5.64 2.75-1.52 7.88-4.31 11.41-6.21 3.52-1.9 6.56-3.9 6.76-4.45 0.19-0.55 0.23-35.01 0.09-76.58l-0.26-75.59zm882.84 75.28l0.16 76.73c6.2 3.55 10.92 6.07 14.5 7.88 3.58 1.82 6.72 3.61 7 3.99 0.28 0.37 2.53 1.63 5 2.8 2.47 1.16 6.53 3.25 9 4.64 2.47 1.39 9.45 5.15 15.5 8.36 6.05 3.2 14.6 7.89 19 10.41 4.4 2.52 8.56 4.59 9.25 4.59 0.69 0.01 1.25 0.46 1.25 1.01 0 0.55 1.69 1.69 3.75 2.53 2.06 0.83 5.55 2.55 7.75 3.81 2.2 1.27 8.95 4.93 15 8.14 6.05 3.21 13.22 7 15.94 8.43 2.72 1.43 5.44 3.04 6.05 3.59 0.6 0.55 2.65 1.65 4.55 2.45 1.9 0.79 3.68 1.69 3.96 2 0.28 0.3 2.08 1.32 4 2.27 1.92 0.94 7.33 3.82 12 6.4 4.67 2.58 11.87 6.47 16 8.64 4.12 2.18 7.95 4.3 8.5 4.71 0.55 0.41 5.72 3.23 11.5 6.26 5.78 3.02 13.2 6.97 16.5 8.77 3.3 1.81 9.37 5.11 13.5 7.35 4.12 2.24 9.75 5.32 12.5 6.85 2.75 1.52 6.12 3.26 7.5 3.87 1.37 0.61 5.42 2.81 9 4.9 3.58 2.09 11.22 6.29 17 9.33 5.78 3.05 12.53 6.59 15 7.87 2.47 1.28 4.72 2.6 5 2.93 0.28 0.33 4.1 2.35 8.5 4.5 4.4 2.15 8.22 4.16 8.5 4.48 0.28 0.32 2.97 1.87 6 3.44 3.03 1.58 11.35 6.14 18.5 10.14 7.15 4.01 13.34 7.29 13.75 7.31 0.41 0.02 4.01 1.91 8 4.2 3.99 2.29 10.17 5.72 13.75 7.63 3.58 1.9 7.74 4.08 9.25 4.83 1.51 0.76 2.75 1.82 2.75 2.37 0 0.55-1.46 1.85-3.25 2.89-1.79 1.03-6.85 3.79-11.25 6.12-4.4 2.33-12.5 6.68-18 9.67-5.5 2.99-10.67 5.86-11.5 6.38-0.83 0.52-2.63 1.43-4 2.03-1.38 0.59-5.42 2.79-9 4.88-3.58 2.09-11.22 6.29-17 9.33-5.78 3.05-12.53 6.59-15 7.87-2.47 1.28-4.72 2.56-5 2.83-0.28 0.28-2.53 1.55-5 2.83-2.47 1.28-9.22 4.83-15 7.88-5.78 3.05-13.88 7.44-18 9.76-4.13 2.31-8.17 4.5-9 4.87-0.83 0.36-5.55 2.93-10.5 5.69-4.95 2.77-10.8 5.93-13 7.01-2.2 1.09-5.8 3.02-8 4.29-2.2 1.27-8.95 4.93-15 8.13-6.05 3.2-13.92 7.46-17.5 9.48-3.58 2.01-7.85 4.31-9.5 5.11-1.65 0.8-3.22 1.7-3.5 2.01-0.28 0.3-2.3 1.45-4.5 2.54-2.2 1.1-8.95 4.61-15 7.82-6.05 3.2-13.92 7.51-17.5 9.56-3.58 2.06-10.78 6-16 8.76-5.22 2.75-13.1 6.93-17.5 9.28-4.4 2.36-11.6 6.31-16 8.79-4.4 2.48-11.6 6.4-16 8.7-4.4 2.3-11.15 5.9-15 8-3.85 2.1-10.6 5.78-15 8.19-4.4 2.4-9.58 5.14-11.5 6.09-1.92 0.94-3.72 1.94-4 2.21-0.28 0.28-2.3 1.4-4.5 2.5l-4 2.01c-0.39 119.73-0.16 154.51 0.25 154.53 0.41 0.02 4.46-2.01 9-4.5 4.54-2.5 8.7-4.54 9.25-4.54 0.55 0 1.11-0.38 1.25-0.86 0.14-0.47 2.28-1.8 4.75-2.96 2.47-1.15 8.55-4.41 13.5-7.24 4.95-2.82 12.15-6.74 16-8.71 3.85-1.96 7.23-3.83 7.51-4.15 0.28-0.32 2.75-1.74 5.5-3.17 2.74-1.43 9.94-5.22 15.99-8.43 6.05-3.21 12.8-6.87 15-8.12 2.2-1.25 6.92-3.8 10.5-5.67 3.58-1.86 11.67-6.32 18-9.91 6.33-3.59 16-8.9 21.5-11.81 5.5-2.92 10.22-5.56 10.5-5.88 0.28-0.32 2.53-1.59 5-2.82 2.47-1.24 8.1-4.19 12.5-6.57 4.4-2.38 11.6-6.29 16-8.69 4.4-2.41 9.8-5.28 12-6.38 2.2-1.11 4.22-2.27 4.5-2.57 0.28-0.31 2.53-1.61 5-2.9 2.47-1.3 7.87-4.12 12-6.28 4.12-2.16 11.1-5.96 15.5-8.44 4.4-2.48 9.8-5.41 12-6.5 2.2-1.1 4.67-2.4 5.5-2.9 0.83-0.5 7.24-4.08 14.25-7.97 7.01-3.89 12.97-7.07 13.25-7.07 0.28 0 6.69-3.46 14.25-7.69 7.56-4.23 16-8.93 18.75-10.44 2.75-1.51 6.8-3.65 9-4.77 2.2-1.11 7.6-4.07 12-6.58 4.4-2.5 9.35-5.18 11-5.95 1.65-0.77 9.41-5.03 17.25-9.48 7.84-4.45 14.47-8.09 14.75-8.09 0.28 0 6.58-3.37 14-7.5 7.42-4.12 13.95-7.5 14.5-7.5 0.55 0 1-0.45 1-1 0-0.55 1.58-1.45 3.5-2 1.92-0.55 4.08-1.56 4.79-2.25 0.72-0.69 3.3-2.3 5.75-3.58 2.45-1.28 9.18-4.82 14.96-7.87 5.78-3.04 13.42-7.24 17-9.33 3.58-2.09 7.62-4.29 9-4.88 1.37-0.6 3.17-1.51 4-2.03 0.83-0.53 9.37-5.27 19-10.54 9.62-5.28 18.17-10.02 19-10.56 0.83-0.53 2.4-1.35 3.5-1.83 1.1-0.47 6.16-3.17 11.25-5.99l9.25-5.14c0.06-130.51-0.04-134.6-1.72-136.14-0.98-0.9-5.38-3.54-9.78-5.86-4.4-2.32-14.41-7.77-22.25-12.11-7.84-4.34-14.7-7.89-15.25-7.89-0.55 0-0.98-0.34-0.96-0.75 0.02-0.41-1.44-1.4-3.25-2.21-1.81-0.8-6.21-3.1-9.79-5.11-3.58-2-10.1-5.56-14.5-7.91-4.4-2.34-12.39-6.68-17.75-9.64-5.36-2.96-9.97-5.38-10.25-5.38-0.28 0-5.22-2.7-11-6-5.78-3.3-13.76-7.73-17.75-9.85-3.99-2.11-9.95-5.34-13.25-7.16-3.3-1.82-10.72-5.98-16.5-9.25-5.78-3.26-11.85-6.55-13.5-7.31-1.65-0.75-6.6-3.42-11-5.93-4.4-2.5-10.03-5.55-12.5-6.78-2.47-1.22-4.61-2.56-4.75-2.97-0.14-0.41-0.81-0.76-1.5-0.78-0.69-0.02-7.33-3.42-14.75-7.56-7.42-4.13-14.17-7.94-15-8.45-0.83-0.51-3.97-2.21-7-3.77-3.03-1.57-9.1-4.88-13.5-7.37-4.4-2.49-12.5-6.92-18-9.86-5.5-2.93-12.25-6.56-15-8.07-2.75-1.5-7.47-4.05-10.5-5.65-3.03-1.61-11.24-6.14-18.25-10.08-7.01-3.94-12.97-7.16-13.25-7.16-0.28 0-6.01-3.13-12.75-6.97-6.74-3.83-12.59-6.98-13-7-0.41-0.01-3.79-1.76-7.5-3.89-3.71-2.12-10.35-5.77-14.75-8.12-4.4-2.34-12.39-6.68-17.75-9.64-5.36-2.96-9.86-5.36-10-5.35-0.14 0.02-4.75-2.5-10.25-5.6-5.5-3.09-14.5-8.02-20-10.95-5.5-2.93-12.47-6.6-15.5-8.15-3.03-1.56-5.72-3.05-6-3.33-0.28-0.27-4.1-2.3-8.5-4.5-4.4-2.2-8.22-4.27-8.5-4.59-0.28-0.33-4.55-2.74-9.5-5.37-4.95-2.62-13.39-7.19-18.75-10.15-5.36-2.97-10.2-5.39-10.75-5.39-0.55 0-1.11-0.36-1.25-0.79-0.14-0.44-2.95-2.18-6.25-3.87-3.3-1.7-6.97-3.39-8.16-3.78l-2.17-0.7z"/>
</svg>