<svg version="1.2" xmlns="http://www.w3.org/2000/svg" viewBox="0 0 1500 359" width="1500" height="359">
	<style>
		.s0 { fill: #b3e611 } 
		.s1 { fill: #ffffff } 
	</style>
	<g id="Background">
		<path id="Path 0" fill-rule="evenodd" class="s0" d="m179.5 117.16c7.07 0.42 13.32 1.43 17.5 2.82 3.57 1.2 9.43 3.81 13 5.81 3.57 2 8.97 6.13 12 9.19 3.03 3.05 6.92 8.24 8.65 11.53 1.74 3.3 3.88 8.46 4.76 11.49 0.89 3.03 1.61 6.74 1.6 8.25-0.01 2.64-0.23 2.75-5.26 2.86-2.89 0.06-11.45 0.4-32.79 1.39l-1.72-6c-0.94-3.3-2.96-7.69-4.48-9.75-1.52-2.06-4.67-4.71-7.01-5.89-2.34-1.18-6.95-2.37-10.25-2.66-3.3-0.28-8.03 0.01-10.5 0.66-2.47 0.64-6.48 2.85-8.89 4.9-2.42 2.06-5.51 5.99-6.87 8.74-1.37 2.75-3.1 7.93-3.84 11.5-0.75 3.57-1.37 9.88-1.37 14 0 4.13 0.62 10.43 1.36 14 0.75 3.57 2.26 8.3 3.36 10.5 1.1 2.2 3.3 5.52 4.88 7.39 1.58 1.86 4.67 4.33 6.87 5.48 3.08 1.61 5.84 2.1 12 2.11 7.12 0.02 8.6-0.32 13.5-3.09 4.55-2.56 6.06-4.17 8.75-9.25 1.79-3.38 3.25-7.49 3.25-9.14 0-1.65 0.56-3.29 1.25-3.64 0.69-0.35 9.46-0.24 37.76 1.14l0.02 3c0.01 1.65-0.89 5.93-2 9.5-1.1 3.57-3.32 8.75-4.92 11.5-1.61 2.75-4.65 7-6.76 9.44-2.12 2.44-7.22 6.62-11.35 9.29-4.12 2.66-10.2 5.71-13.5 6.77-3.3 1.06-9.15 2.45-13 3.1-4.11 0.69-11.34 0.95-17.5 0.63-6.57-0.34-13.12-1.37-17.5-2.73-3.85-1.2-9.7-3.67-13-5.49-3.53-1.94-9.11-6.54-13.56-11.16-4.92-5.11-8.65-10.12-10.69-14.35-1.73-3.57-3.95-9.43-4.95-13-1.39-5.02-1.8-10.14-1.8-22.5 0-13.97 0.3-16.95 2.34-23.5 1.29-4.12 3.76-10.15 5.5-13.38 1.74-3.24 5.86-8.67 9.16-12.08 3.3-3.41 8.47-7.85 11.5-9.87 3.03-2.03 8.88-4.81 13-6.19 4.13-1.38 10.43-2.84 14-3.25 3.57-0.4 11.45-0.44 17.5-0.07zm131-0.02c6.1 0.39 12.54 1.5 16.5 2.84 3.57 1.21 8.98 3.69 12 5.51 3.02 1.82 8.54 6.5 12.25 10.41 4.48 4.71 7.91 9.54 10.2 14.35 1.9 3.99 4.2 9.95 5.12 13.25 1.04 3.72 1.82 11.03 2.43 32.5l-92.5-0.03 0.64 4.77c0.35 2.62 1.61 7.01 2.8 9.76 1.19 2.75 3.38 6.29 4.86 7.88 1.49 1.58 4.95 3.94 7.7 5.24 3.74 1.76 6.76 2.37 12 2.39 3.86 0.02 9.02-0.67 11.5-1.54 2.48-0.86 5.78-2.78 7.34-4.27 1.56-1.48 3.65-4.27 6.46-9.7l7.35 0.35c4.04 0.2 12.3 0.65 29.35 1.65l-0.24 3c-0.13 1.65-1.44 5.48-2.92 8.5-1.54 3.15-5.71 8.56-9.76 12.67-5.56 5.62-8.91 8.02-15.58 11.17-5.28 2.49-11.91 4.65-17.5 5.7-6.55 1.24-11.99 1.55-20 1.17-7.21-0.34-13.41-1.27-18-2.7-3.85-1.2-9.7-3.68-13-5.51-3.34-1.85-9.15-6.58-13.11-10.66-4.04-4.17-8.42-9.93-10.14-13.34-1.66-3.3-3.99-9.15-5.18-13-1.47-4.78-2.35-10.96-2.76-19.5-0.46-9.74-0.21-14.38 1.13-21 0.95-4.68 2.67-10.75 3.82-13.5 1.16-2.75 3.67-7.47 5.58-10.5 1.91-3.02 5.99-8 9.07-11.05 3.07-3.06 8.07-6.96 11.09-8.67 3.02-1.71 8.31-4.05 11.75-5.2 3.44-1.14 9.29-2.42 13-2.83 3.71-0.41 11.25-0.46 16.75-0.11zm-23.93 34.58c-2.17 2.08-4.94 6.03-6.16 8.78-1.23 2.75-2.49 6.46-2.82 8.25l-0.59 3.25h53c-0.98-6.59-1.91-10.07-2.69-12-0.79-1.93-2.45-4.85-3.69-6.5-1.24-1.65-4.7-4.24-7.69-5.76-4.25-2.16-6.74-2.74-11.43-2.67-3.3 0.05-7.8 0.71-10 1.47-2.2 0.77-5.77 3.09-7.93 5.18zm116.43-31.72l15.09 46.25c9.74 29.83 15.37 45.72 15.88 44.75 0.43-0.82 7.14-21.07 14.91-45 7.78-23.93 14.47-44.09 14.88-44.8 0.57-1.01 5.15-1.31 19.74-1.3 10.45 0.01 19.12 0.37 19.26 0.81 0.15 0.43-10.48 30.04-47.48 130.79l-43.78 0.54-24.09-65.77c-13.24-36.17-23.98-66-23.84-66.27 0.13-0.28 9.05-0.39 39.43 0z"/>
		<path id="Path 1" fill-rule="evenodd" class="s1" d="m1264.49 96h15.51l-3.86 10.75c-2.12 5.91-15.73 45.3-56.64 164.31l-7.25-0.03c-5.51-0.02-7.19-0.35-7-1.37 0.14-0.74 13.52-40.11 29.75-87.5zm-251.5 8h16v145l-13.5 0.02-1.55-16.52-2.97 4.25c-1.64 2.34-5.11 5.69-7.73 7.45-2.61 1.76-7.33 4.01-10.5 5-3.44 1.08-8.85 1.8-13.5 1.81-4.26 0-10.22-0.71-13.25-1.59-3.02-0.88-7.71-3.02-10.41-4.76-2.71-1.74-6.68-5.19-8.83-7.66-2.15-2.48-5.2-7.2-6.78-10.5-1.58-3.3-3.62-9.15-4.55-13-1.1-4.56-1.69-11.18-1.69-19 0-7.82 0.59-14.44 1.69-19 0.93-3.85 2.97-9.7 4.55-13 1.58-3.3 4.63-8.03 6.78-10.5 2.15-2.48 6.12-5.92 8.83-7.66 2.7-1.74 7.39-3.88 10.41-4.76 3.03-0.88 8.88-1.61 13-1.61 4.76-0.01 9.88 0.73 14 2.01 3.58 1.12 8.41 3.49 10.73 5.27 2.32 1.79 5.37 4.82 9.31 10.25zm-45.7 51.22c-1.54 0.84-4.97 3.94-7.62 6.9-2.64 2.96-5.64 7.63-6.66 10.38-1.01 2.75-2.37 8.82-3.01 13.5-0.88 6.46-0.88 10.54 0.01 17 0.64 4.67 1.99 10.75 3.01 13.5 1.01 2.75 4.01 7.42 6.65 10.38 2.65 2.96 6.62 6.29 8.82 7.41 2.56 1.3 6.69 2.18 11.5 2.47 5.66 0.33 8.6 0 12-1.35 2.47-0.99 6.46-3.62 8.87-5.85 2.4-2.23 5.44-6.2 6.75-8.81 1.31-2.61 3.05-7.56 3.86-11 0.82-3.44 1.49-10.08 1.49-14.75-0.01-4.68-0.62-11.43-1.37-15-0.74-3.58-2.31-8.41-3.48-10.75-1.17-2.34-3.81-6.12-5.87-8.41-2.07-2.28-6-5.2-8.75-6.49-3.72-1.73-6.67-2.31-11.5-2.25-3.58 0.04-7.72 0.41-9.2 0.83-1.48 0.42-3.95 1.45-5.5 2.29zm88.7-51.22h16v19h-16zm-293 11h16v25h27v13h-27v37.5c0 23.63 0.38 38.33 1.03 39.75 0.57 1.24 2.03 2.9 3.25 3.7 1.48 0.98 5.62 1.56 22.72 2.05l0.01 13.5-13.26-0.58c-10.53-0.47-14.08-1.01-17.25-2.62-2.2-1.11-5.24-3.44-6.75-5.16-1.52-1.73-3.43-5.5-4.26-8.39-1.23-4.26-1.51-12.25-1.49-79.75h-17v-13h17zm-379 4.42c10.72 0 15 0.15 9.5 0.33-5.5 0.17-14.28 0.17-19.5 0-5.23-0.18-0.73-0.33 10-0.33zm99.5-0.01c9.9 0 13.72 0.15 8.5 0.34-5.23 0.18-13.33 0.18-18-0.01-4.68-0.18-0.4-0.33 9.5-0.33zm-345.67 4.59c0.31 0 0.14 0.36-0.38 0.8-0.53 0.44-3.54 2.73-6.7 5.08-3.16 2.35-7.82 6.82-10.36 9.94-2.54 3.13-5.64 7.7-6.9 10.18-1.25 2.47-3.34 7.87-4.64 12-2.06 6.57-2.35 9.48-2.35 23.5 0 12.36 0.41 17.48 1.8 22.5 0.99 3.57 3.22 9.42 4.94 13 2.08 4.3 5.86 9.35 11.2 14.94 5.14 5.38 6.64 7.37 4.15 5.5-2.14-1.62-5.86-5.19-8.26-7.94-2.4-2.75-6.12-8.6-8.26-13-2.15-4.4-4.68-11.15-5.64-15-1.23-4.92-1.73-10.86-1.7-20 0.03-10.09 0.52-14.79 2.2-21 1.19-4.4 3.83-11.12 5.86-14.94 2.04-3.82 5.73-9.19 8.21-11.93 2.47-2.75 7.14-6.94 10.38-9.31 3.23-2.38 6.13-4.32 6.45-4.32zm122.94 6c0.19 0-1.77 2.36-4.36 5.25-2.6 2.89-6.14 7.5-7.88 10.25-1.75 2.75-3.81 6.46-4.6 8.26-0.79 1.79-1.56 3.14-1.71 3-0.15-0.15 0.28-1.61 0.96-3.26 0.68-1.65 2.76-5.48 4.62-8.5 1.87-3.03 5.47-7.64 8.01-10.25 2.53-2.61 4.77-4.75 4.96-4.75zm366.99 8.09c0.93-0.07 1.19 1.81 0.74 14.39l-39.22 18.24c-21.56 10.03-39.45 18.36-39.74 18.51-0.3 0.15 17.46 8.59 79.46 37.27v7.25c0 3.99-0.34 7.25-0.75 7.25-0.42-0.01-21.45-9.62-92.75-42.73v-17.68l45.5-21.2c25.02-11.66 46.07-21.25 46.76-21.3zm65.74 0.21c10.92 0.25 12.58 0.55 18.5 3.29 3.57 1.65 8.5 5.01 10.95 7.46 2.44 2.45 5.68 7.15 7.19 10.45 1.5 3.3 2.99 7.69 3.86 13.5l-4.75-0.01c-2.62-0.01-6.1 0.25-7.75 0.58-2.89 0.58-3.05 0.42-4.26-4.24-0.7-2.65-2.72-6.58-4.5-8.72-1.78-2.15-5.04-4.81-7.24-5.92-2.52-1.27-6.79-2.2-11.5-2.5-4.28-0.28-9.65 0.04-12.5 0.74-2.75 0.67-6.55 2.42-8.44 3.89-1.89 1.48-4.08 4.25-4.86 6.18-0.86 2.11-1.28 5.76-1.06 9.18 0.29 4.68 0.88 6.21 3.36 8.77 1.65 1.7 5.02 3.76 7.5 4.57 2.47 0.81 11.02 2.81 19 4.45 10.13 2.07 16.68 4.03 21.75 6.5 4.27 2.08 8.27 4.87 9.73 6.78 1.37 1.79 3.17 5.5 4.01 8.25 0.85 2.75 1.53 6.8 1.53 9 0 2.2-0.66 6.25-1.47 9-0.8 2.75-2.97 6.8-4.82 9-1.9 2.26-6.15 5.41-9.79 7.26-3.54 1.79-8.92 3.76-11.94 4.37-3.15 0.63-10.42 0.9-17 0.62-6.96-0.3-13.48-1.17-16.5-2.2-2.75-0.93-7.47-3.35-10.49-5.37-3.22-2.16-7.04-5.96-9.23-9.18-2.24-3.29-4.38-8.12-5.31-12-0.87-3.58-1.29-6.73-0.94-7 0.35-0.28 3.86-0.67 14.97-1.24l1.25 4.62c0.68 2.54 2.71 6.5 4.5 8.81 1.78 2.3 5.5 5.34 8.25 6.74 4.06 2.08 6.77 2.62 14.5 2.94 6.55 0.26 11.2-0.1 15-1.16 3.87-1.09 6.46-2.6 8.75-5.13 1.78-1.97 3.52-5.04 3.86-6.83 0.34-1.79 0.31-4.6-0.06-6.25-0.38-1.65-1.33-4.01-2.12-5.25-0.79-1.24-3.8-3.35-6.68-4.69-2.89-1.34-11.1-3.64-18.25-5.1-7.15-1.47-15.93-3.74-19.5-5.06-3.58-1.32-8.25-3.63-10.38-5.15-2.13-1.51-5.03-4.78-6.45-7.25-1.96-3.42-2.69-6.31-3.02-12-0.29-5.17 0.07-9.05 1.17-12.5 0.9-2.81 3.48-7.14 5.89-9.89 2.36-2.68 6.09-5.92 8.29-7.2 2.2-1.27 6.47-3.01 9.5-3.86 3.89-1.09 9-1.45 17.5-1.25zm448.5-0.24c4.7-0.04 11.18 0.63 14.5 1.49 3.3 0.85 8.02 2.74 10.5 4.2 2.47 1.45 6.63 4.8 9.25 7.44 2.89 2.93 6.31 8.04 8.73 13.06 2.39 4.93 4.45 11.06 5.13 15.25 0.67 4.1 0.93 12.18 0.62 19.5-0.37 8.79-1.1 14.13-2.48 18-1.08 3.02-3 7.52-4.25 10-1.26 2.47-3.46 6.04-4.9 7.93-1.43 1.89-5.3 5.4-8.6 7.82-3.5 2.55-8.71 5.19-12.5 6.34-4.28 1.28-9.4 1.95-15 1.94-4.68-0.01-11.2-0.72-14.5-1.57-3.3-0.85-8.41-2.99-11.36-4.75-2.95-1.77-7.23-5.26-9.5-7.77-2.28-2.51-5.58-7.46-7.34-11-1.76-3.54-3.94-9.59-4.85-13.44-1.01-4.28-1.65-11.28-1.65-18 0-6.72 0.64-13.72 1.65-18 0.91-3.85 3.09-9.9 4.85-13.44 1.76-3.54 5.06-8.49 7.34-11 2.27-2.51 6.55-6.01 9.5-7.77 2.95-1.77 7.83-3.88 10.86-4.69 3.02-0.81 9.32-1.5 14-1.54zm-21.5 23.14c-3.17 3.39-5.83 7.54-7.27 11.32-1.25 3.29-2.68 9.58-3.18 13.98-0.53 4.74-0.53 11.26 0 16 0.49 4.4 1.9 10.7 3.12 14 1.6 4.3 3.8 7.58 7.78 11.57 3.84 3.86 7.09 6.1 10.55 7.27 2.75 0.92 7.7 1.68 11 1.68 3.3 0 8.02-0.66 10.5-1.48 2.47-0.81 6.7-3.4 9.38-5.76 2.69-2.35 5.96-6.42 7.25-9.03 1.3-2.61 3.04-7.34 3.87-10.5 0.86-3.27 1.51-10.06 1.51-15.75 0-5.86-0.65-12.48-1.57-16-0.86-3.3-2.78-8.2-4.25-10.89-1.48-2.7-4.72-6.65-7.19-8.79-2.48-2.13-6.53-4.55-9-5.36-2.48-0.82-7.43-1.45-11-1.42-3.77 0.04-8.61 0.85-11.5 1.94-3.36 1.26-6.65 3.63-10 7.22zm181.25-23.18c0.41 0.01 17.62 7.86 38.25 17.43 20.62 9.57 41.43 19.24 55 25.55l0.06 16.5-12.28 5.87c-6.76 3.24-27.7 13.02-46.53 21.75-18.84 8.74-34.48 15.88-34.75 15.88-0.28 0-0.52-3.26-0.57-14.5l39.79-18.4c21.88-10.12 39.87-18.45 39.99-18.5 0.11-0.06-17.79-8.43-79.77-37.1l0.03-7.25c0.01-3.99 0.36-7.24 0.78-7.23zm-474.89 1.98h16.1l0.54 79.5 2.5 5.4c1.37 2.98 3.96 6.69 5.75 8.25 1.78 1.57 4.93 3.3 7 3.84 2.06 0.55 6 1.01 8.75 1.02 2.75 0.01 7.25-0.75 10-1.69 3.14-1.06 6.71-3.39 9.6-6.26 3.62-3.58 5.07-6.06 6.77-11.56 2.06-6.64 2.17-8.86 2.13-78.5h15v109h-14l-0.07-8.25c-0.04-6.11-0.3-7.67-1-6-0.51 1.24-2.85 4.14-5.18 6.45-2.34 2.31-6.73 5.32-9.75 6.7-4.02 1.82-7.79 2.61-14 2.94-4.84 0.26-10.65-0.07-13.5-0.75-2.75-0.66-7.37-2.75-10.25-4.65-2.89-1.89-6.69-5.58-8.45-8.19-1.76-2.61-4.1-7.45-5.21-10.75-1.85-5.53-2.03-9.18-2.37-46.25zm229.14 0h16v109h-16zm-869 9.63c1.93 1.09 4.7 3.76 6.17 5.93 1.47 2.17 2.94 5.06 3.25 6.44 0.32 1.37-0.24 0.7-1.26-1.5-1.01-2.2-4.05-5.99-6.75-8.43-4.35-3.92-4.51-4.2-1.41-2.44zm51.33 19.37c0.1 0 0.17 7.61 0.17 16.92 0 9.3-0.22 17.14-0.5 17.41-0.27 0.27-0.66-4.98-0.86-11.67-0.2-6.69-0.05-14.52 0.34-17.41 0.38-2.89 0.76-5.25 0.85-5.25zm131.39 14.5c0.22 1.65 0.23 4.8 0.01 7-0.22 2.2-0.4 0.85-0.4-3 0-3.85 0.17-5.65 0.39-4zm-172.45 18l0.43 2.5c0.25 1.49-0.77 4.93-2.54 8.5-1.62 3.3-4.24 6.85-5.81 7.88-2.83 1.88-2.83 1.87 0.35-1.5 1.75-1.86 4.1-5.41 5.22-7.88 1.12-2.48 2.11-5.63 2.2-7zm44.1 9c1.26 3.85 3.55 9.47 5.1 12.5 1.54 3.02 6.23 9.06 10.41 13.42q7.63 7.93 3.71 5c-2.15-1.61-5.92-5.4-8.37-8.42-2.46-3.03-5.6-7.75-6.99-10.5-1.38-2.75-3.36-7.48-4.39-10.5-1.03-3.03-1.85-6.18-1.82-7 0.04-0.83 1.09 1.65 2.35 5.5zm88.06-0.5c0.23 0-0.28 1.46-1.13 3.25-0.84 1.79-2.72 4.53-4.17 6.09-1.45 1.56-3.54 3.29-4.64 3.85-1.1 0.56-0.24-0.49 1.9-2.34 2.14-1.84 4.73-5.04 5.76-7.1 1.03-2.06 2.06-3.75 2.28-3.75zm146.56 17h26v25h-26zm-146.96-63.5l0.99 4c0.54 2.2 0.6 4.34 0.14 4.77-0.47 0.42-12.74 0.64-53.67 0.19l53.5-0.46z"/>
	</g>
</svg>