<svg version="1.2" xmlns="http://www.w3.org/2000/svg" viewBox="0 0 2752 1536" width="2752" height="1536">
	<style>
		.s0 { opacity: .83;fill: #242421 } 
		.s1 { opacity: .97;fill: #d85c39 } 
		.s2 { opacity: 1;fill: #010201 } 
	</style>
	<g id="Background">
		<path id="Path 0" fill-rule="evenodd" class="s0" d="m2202.75 584.58c-1.51 0.23-2.75 0.87-2.75 1.42 0 0.55 0.79 0.8 1.75 0.56 0.96-0.24 4.68-0.72 8.25-1.07 3.57-0.35 9.54-0.16 13.25 0.44 3.71 0.59 9.33 2.31 12.48 3.82 3.15 1.51 8.03 5 10.85 7.75 2.81 2.75 6.15 7.02 7.43 9.5 1.27 2.47 3.14 6.97 4.15 10l1.83 5.5c-0.85-6.98-2.08-11.03-3.29-13.5-1.21-2.48-2.51-4.95-2.89-5.5-0.38-0.55-2.63-3.18-5-5.84-2.37-2.66-5.44-5.46-6.81-6.21-1.38-0.76-4.07-2.08-6-2.94-1.93-0.86-4.4-2.06-5.5-2.67-1.1-0.6-7.18-1.23-13.5-1.39-6.32-0.16-12.74-0.1-14.25 0.13zm-9.82 4.1c-2.44 1.32-5.33 3.35-6.43 4.51l-2 2.11c4.65-3.2 8.03-4.99 10.5-6.03 2.47-1.05 4.02-2.15 3.43-2.45-0.59-0.3-3.07 0.53-5.5 1.86zm-14.6 12.1c-2.29 3.15-4.51 6.62-4.93 7.72-0.41 1.1-1.1 2.22-1.53 2.5-0.43 0.27-1.26 3.87-1.84 8-0.59 4.12-0.77 10.42-0.42 14 0.36 3.61 1.72 8.72 3.06 11.5 1.33 2.75 2.98 5.9 3.68 7 0.69 1.1 3.26 4.03 5.7 6.51 2.45 2.48 7.38 6 10.95 7.83 4.15 2.11 9.21 3.72 14 4.43 5.64 0.84 9.73 0.81 16.5-0.09 4.95-0.66 9.22-1.54 9.5-1.94 0.28-0.41 2.75-1.86 5.5-3.23 2.75-1.37 7.15-4.52 9.79-7 2.63-2.48 4.77-5.07 4.75-5.76-0.02-0.69 0.3-1.36 0.71-1.5 0.41-0.14 1.54-1.71 2.5-3.5 0.96-1.79 1.41-3.25 1-3.26-0.41 0-1.65 1.66-2.75 3.7-1.1 2.04-4.25 6.05-7 8.92-3.19 3.32-7.53 6.41-12 8.55-6.91 3.3-7.19 3.34-21 3.34h-14c-11.59-6.25-16.61-9.99-18.91-12.55-2.25-2.5-5.37-7.22-6.93-10.5-1.62-3.4-3.15-8.74-3.57-12.45-0.41-3.58-0.37-9.2 0.08-12.5 0.44-3.3 2.14-8.7 3.77-12 1.63-3.3 4.32-7.35 5.98-9 1.66-1.65 3.04-3.34 3.05-3.75 0.02-0.41-0.31-0.74-0.72-0.72-0.41 0.02-2.63 2.6-4.92 5.75zm-123.83 6.89c-0.46 0.36-0.76 27.36-0.67 60 0.1 32.63-0.17 59.32-0.58 59.3-0.41-0.01-1.88-1.86-3.25-4.11-1.38-2.25-5.65-7.02-9.5-10.6-3.85-3.57-7.9-6.89-9-7.38-1.1-0.48-3.69-2-5.75-3.38-2.06-1.37-3.74-2.16-3.74-1.75 0.01 0.41 3.27 2.86 7.25 5.44 3.98 2.57 9.97 7.52 13.31 11 3.33 3.47 6.93 7.78 8 9.57 1.06 1.8 2.49 3.26 3.18 3.25 0.99-0.01 1.25-12.78 1.25-60.51v-60.5h78v335h-75c-0.44-29.89-0.82-34.42-1.75-34.67-0.69-0.18-2.45 1.81-3.92 4.42-1.47 2.61-6.54 8.58-11.27 13.25-6.78 6.71-10.37 9.37-17.07 12.65-4.67 2.29-11.87 5.21-15.99 6.5-6.77 2.12-9.35 2.34-26.5 2.33-17.94-0.01-19.53-0.17-28.5-2.84-5.22-1.56-10.74-3.46-12.25-4.24-1.51-0.77-3.09-1.18-3.5-0.9-0.41 0.27 1.05 1.18 3.25 2.02 2.2 0.84 4.67 1.92 5.5 2.39 0.83 0.47 3.3 1.19 5.5 1.6 2.2 0.41 4.45 1.09 5 1.49 0.55 0.41 3.03 1.03 5.5 1.38 2.47 0.35 9.22 0.81 15 1.03 5.78 0.21 14.55-0.04 19.5-0.57 4.95-0.52 9.45-1.33 10-1.78 0.55-0.46 2.58-1.16 4.5-1.56 1.92-0.4 3.95-1.07 4.5-1.49 0.55-0.41 2.8-1.34 5-2.05 2.2-0.72 4.45-1.69 5-2.16 0.55-0.47 3.25-2.3 6-4.08 2.75-1.77 8.07-6.37 11.82-10.22 3.76-3.85 8.03-8.91 9.5-11.25 1.48-2.33 2.9-4.25 3.18-4.25 0.28 0 0.42 7.09 0.33 15.75-0.1 8.66 0.01 16.54 0.25 17.5 0.39 1.63 3.06 1.75 38.42 1.75 20.9 0 38.2-0.34 38.44-0.75 0.24-0.41 0.54-75.9 0.67-167.75 0.13-91.85-0.06-167.56-0.43-168.25-0.53-0.97-9.47-1.25-39.51-1.25-21.36 0-39.21 0.3-39.67 0.67zm203.98 28.33c-0.34 1.92-0.82 4.29-1.05 5.25-0.24 0.96 0.02 1.75 0.57 1.75 0.55 0 1.25-2.07 1.55-4.59 0.3-2.53 0.32-4.89 0.06-5.25-0.27-0.36-0.78 0.92-1.13 2.84zm-1666.48 55.94c-1.88 0.65-0.76 0.88 4.5 0.95 3.85 0.05 9.25 0.38 12 0.73 4.23 0.54 4.8 0.43 3.69-0.74-0.86-0.92-4.06-1.45-9.5-1.59-4.5-0.11-9.31 0.18-10.69 0.65zm674-0.01c-1.37 0.41-7 1.08-12.5 1.47-5.5 0.4-10.67 1.17-11.5 1.73-1.07 0.71-0.36 0.84 2.5 0.44 2.2-0.31 10.75-1.07 19-1.69 8.25-0.61 18.93-0.95 23.74-0.75 4.81 0.2 8.75 0.03 8.75-0.38 0.01-0.41-1-0.97-2.24-1.24-1.24-0.26-7.42-0.45-13.75-0.41-6.33 0.04-12.62 0.41-14 0.83zm707.55 0.07c-0.3 0.55-2.35 1-4.55 1-2.2 0-6.36 0.48-9.25 1.07-2.89 0.58-5.92 1.26-6.75 1.51-0.82 0.24-1.28 0.65-1 0.9 0.28 0.26 4.1-0.22 8.5-1.05 4.4-0.84 14.08-1.77 21.5-2.08 8.43-0.36 12.94-0.9 12-1.45-0.82-0.48-5.64-0.88-10.7-0.88-5.12-0.01-9.45 0.42-9.75 0.98zm434.95-0.03c-2.75 0.46-10.18 1.36-16.5 2-6.32 0.63-11.95 1.52-12.5 1.96-0.55 0.45-2.8 1.12-5 1.49-2.2 0.38-6.47 1.64-9.5 2.81-3.03 1.17-9.32 3.95-14 6.19-4.68 2.24-10.41 5.54-12.75 7.33-2.34 1.79-4.46 3.25-4.72 3.25-0.26 0-1.95 1.35-3.75 3-1.8 1.65-5.66 5.14-8.57 7.75-2.91 2.61-5.27 5.09-5.25 5.5 0.02 0.41-1.15 1.76-2.61 3-1.46 1.24-3.05 3.15-3.53 4.25-0.48 1.1-1.98 3.58-3.33 5.5-1.35 1.92-2.8 3.96-3.22 4.51-0.42 0.56-2.28 3.93-4.13 7.5-1.85 3.57-4.01 8.74-4.8 11.49-0.78 2.75-1.21 5.22-0.95 5.5 0.26 0.27 0.78-0.63 1.16-2 0.37-1.38 2.04-5.65 3.72-9.5 1.67-3.85 4.39-9.25 6.04-12 1.66-2.75 5.7-8.38 9-12.5 3.29-4.13 8.68-9.98 11.97-13 3.28-3.03 8.36-7.3 11.28-9.5 2.92-2.2 9.05-5.89 13.63-8.2 4.57-2.31 10.11-4.92 12.31-5.8 2.2-0.88 8.05-2.65 13-3.94 4.95-1.28 13.5-2.9 19-3.59 6.75-0.84 16.51-1.05 30-0.64 11 0.33 21.57 0.9 23.5 1.25 2.37 0.44 3.18 0.32 2.5-0.37-0.55-0.56-6.85-1.54-14-2.19-7.15-0.65-15.25-1.33-18-1.53-2.75-0.2-7.25 0.02-10 0.48zm-2094.75 1.11c-6.46 0.51-12.54 1.39-13.5 1.97-1.36 0.82-0.97 0.93 1.75 0.47 1.93-0.32 12.28-0.85 23-1.18 12.82-0.39 23.1-0.18 30 0.63 5.78 0.68 13.65 2.07 17.5 3.11 3.85 1.03 7.34 1.88 7.75 1.9 0.41 0.01 0.53-0.43 0.25-0.98-0.27-0.55-2.41-1.28-4.75-1.61-2.34-0.34-4.7-0.97-5.25-1.39-0.55-0.43-4.82-1.26-9.5-1.84-4.67-0.59-14.57-1.28-22-1.53-7.42-0.25-18.79-0.05-25.25 0.45zm259.75 0.65c-2.2 0.22-4.43 0.82-4.95 1.34-0.6 0.58-0.41 0.9 0.5 0.85 0.8-0.04 5.05-0.66 9.45-1.38 6.04-0.98 6.9-1.29 3.5-1.25-2.47 0.02-6.3 0.23-8.5 0.44zm45.5 0.22c3.03 0.48 7.75 1.17 10.5 1.52 3.45 0.45 4.69 0.33 4-0.39-0.55-0.57-5.27-1.25-10.5-1.52-7.74-0.39-8.48-0.32-4 0.39zm682.5-0.06c2.75 0.45 7.93 1.11 11.5 1.47 4.26 0.44 5.98 0.34 5-0.29-0.82-0.52-6-1.18-11.5-1.47-6.92-0.36-8.46-0.27-5 0.29zm701.5 0.62c3.58 0.8 6.72 1.24 7 0.97 0.28-0.26 0.28-0.67 0-0.9-0.28-0.23-3.42-0.67-7-0.98l-6.5-0.56zm-1717 3.54c-1.92 0.46-4.4 1.3-5.5 1.85-1.1 0.56-4.92 2.21-8.5 3.68-3.57 1.46-7.74 3.5-9.25 4.54-1.51 1.04-2.97 1.89-3.25 1.89-0.27 0-2.64 1.46-5.26 3.25-2.62 1.78-5.62 3.92-6.67 4.75-1.05 0.82-5.72 5.32-10.38 10-4.66 4.67-8.99 9.17-9.61 10-0.63 0.82-2.3 3.3-3.72 5.5-1.42 2.2-3.9 6.25-5.52 9-1.62 2.75-3.6 6.46-4.39 8.25-0.8 1.79-1.12 3.59-0.71 4 0.4 0.41 1.21-0.6 1.8-2.25 0.58-1.65 1.99-4.8 3.11-7 1.13-2.2 4.14-7.15 6.69-11 2.54-3.85 8.69-11.06 13.64-16.02 4.96-4.96 12.17-11.12 16.02-13.68 3.85-2.57 10.83-6.51 15.5-8.76 4.68-2.26 11.54-4.99 15.25-6.07 3.71-1.09 6.75-2.2 6.75-2.47 0-0.28-0.56-0.46-1.25-0.4-0.69 0.05-2.82 0.48-4.75 0.94zm270.5-0.38c-1.1 0.24-3.8 1.16-6 2.06-2.2 0.89-6.36 2.67-9.25 3.95-2.89 1.28-5.47 2.33-5.75 2.33-0.27 0-2.52 1.35-5 3-2.47 1.65-4.72 3-5 3-0.27 0-3.31 2.22-6.75 4.95-3.44 2.72-8.83 7.56-11.99 10.75-3.16 3.19-7.55 8.16-9.75 11.05-2.21 2.88-4.02 5.58-4.04 6-0.01 0.41-0.62 1.42-1.35 2.25-0.73 0.82-2.44 3.75-3.8 6.5-1.37 2.75-3.22 6.57-4.12 8.5-0.9 1.92-2.49 5.75-3.54 8.5-1.06 2.75-2.25 7.02-2.65 9.5-0.41 2.47-1.09 4.95-1.52 5.5-0.43 0.55-1.27 5.61-1.88 11.25-0.61 5.63-1.11 16.66-1.11 24.5 0 7.83 0.47 18.3 1.05 23.25 0.57 4.95 1.42 9.9 1.89 11 0.47 1.1 1.42 4.7 2.11 8 0.69 3.3 1.86 7.12 2.6 8.5 0.74 1.37 1.34 3.28 1.34 4.25 0.01 0.96 0.46 1.75 1.01 1.75 0.55 0 1 0.56 0.99 1.25-0.01 0.68 1.59 4.4 3.55 8.25 1.96 3.85 4.89 8.68 6.51 10.75 1.62 2.06 2.95 4.08 2.94 4.5 0 0.41 3.49 4.29 7.75 8.62 4.27 4.33 8.89 8.85 10.26 10.05 1.38 1.21 5.2 3.96 8.5 6.13 3.3 2.17 6.23 4.18 6.5 4.47 0.28 0.28 1.85 1.08 3.5 1.77 1.65 0.69 3.13 1.13 3.28 0.98 0.16-0.15-2.32-1.8-5.5-3.67-3.18-1.86-8.25-5.29-11.28-7.62-3.02-2.33-8.87-7.69-13-11.91-4.12-4.23-9.44-10.47-11.81-13.88-2.37-3.41-5.92-9.57-7.87-13.69-1.96-4.13-4.36-9.75-5.34-12.5-0.98-2.75-2.71-8.83-3.84-13.5-1.14-4.68-2.53-12.33-3.11-17-0.57-4.68-1.02-13.9-1.01-20.5 0.01-6.6 0.64-16.73 1.41-22.5 0.76-5.78 2.13-13.2 3.04-16.5 0.91-3.3 2.59-8.7 3.74-12 1.15-3.3 3.76-9.38 5.8-13.5 2.04-4.13 5.75-10.43 8.25-14 2.5-3.58 8.3-10.25 12.89-14.82 4.59-4.58 11.28-10.29 14.85-12.69 3.58-2.4 9.88-5.9 14-7.77 4.13-1.87 9.3-4.13 11.5-5.02 2.2-0.9 5.91-2.1 8.25-2.67 2.34-0.57 4.25-1.26 4.25-1.53 0-0.28-0.79-0.45-1.75-0.39-0.96 0.07-2.65 0.31-3.75 0.55zm84.5-0.16c0 0.27 1.91 0.97 4.25 1.54 2.34 0.58 6.39 1.93 9 3 2.61 1.08 5.09 1.74 5.5 1.47 0.41-0.27-1.27-1.33-3.75-2.37-2.47-1.04-6.3-2.39-8.5-3.01-2.2-0.62-4.56-1.13-5.25-1.13-0.69 0-1.25 0.22-1.25 0.5zm587.5 0.16c-1.1 0.23-4.03 1.14-6.5 2.01-2.47 0.88-6.86 2.66-9.75 3.96-2.89 1.3-5.7 2.37-6.25 2.37-0.55 0-1 0.45-1 1 0 0.55-0.45 1-1 1-0.55 0-3.27 1.46-6.04 3.25-2.76 1.78-5.01 3.58-5 4 0.02 0.41-0.57 0.75-1.31 0.75-0.75 0-3.44 2.13-5.99 4.75-2.55 2.61-4.64 5.31-4.65 6 0 0.68-0.46 1.25-1.01 1.25-0.55 0-2.08 1.91-3.4 4.25-1.31 2.33-3.56 6.38-5 9-1.5 2.74-2.18 4.96-1.6 5.25 0.55 0.27 1.72-1.42 2.59-3.75 0.88-2.34 3.55-7.18 5.93-10.75 2.39-3.58 5.84-7.87 7.66-9.54 1.83-1.67 5.35-4.64 7.82-6.6 2.47-1.97 7.65-5.31 11.5-7.42 3.85-2.11 9.25-4.7 12-5.74 2.75-1.05 7.47-2.54 10.5-3.31 3.03-0.78 5.69-1.63 5.92-1.9 0.23-0.27-0.45-0.44-1.5-0.38-1.06 0.07-2.82 0.31-3.92 0.55zm96.5-0.2c0.28 0.28 3.2 1.24 6.5 2.12 3.3 0.88 9.38 3.17 13.5 5.08 4.13 1.92 8.74 4.36 10.25 5.41 1.51 1.06 2.97 1.93 3.25 1.93 0.28 0 0.5-0.45 0.5-1 0-0.55-1.46-1.67-3.25-2.48-1.79-0.82-3.92-1.93-4.75-2.47-0.82-0.54-3.75-1.93-6.5-3.07-2.75-1.15-5.9-2.5-7-2.99-1.1-0.5-3.8-1.37-6-1.94-2.2-0.57-4.67-1.06-5.5-1.08-0.82-0.01-1.28 0.2-1 0.49zm622 0.14c-0.82 0.21-5.55 2.44-10.5 4.96-4.95 2.53-10.94 6.02-13.3 7.76-2.37 1.75-7.32 6.13-11 9.75-3.69 3.61-8.6 9.01-10.92 12-2.32 2.98-4.24 5.76-4.25 6.18-0.02 0.41-1.09 2.21-2.38 4-1.29 1.78-3.29 5.27-4.45 7.75-1.15 2.47-2.64 5.85-3.31 7.5-0.67 1.65-1.28 3.22-1.35 3.5-0.07 0.27-0.7 2.3-1.4 4.5-0.7 2.2-1.81 5-2.46 6.24-0.65 1.23-0.84 2.58-0.43 3 0.41 0.41 0.96 0.53 1.22 0.26 0.25-0.28 1.38-3.77 2.5-7.75 1.12-3.99 3.48-10.29 5.25-14 1.77-3.72 5.76-10.58 8.88-15.25 3.11-4.68 9.2-12.04 13.53-16.35 4.33-4.32 10.8-9.8 14.37-12.18 3.58-2.38 9.43-5.64 13-7.25 3.58-1.62 7.63-3.42 9-4.01 1.38-0.59 1.83-1.06 1-1.03-0.82 0.03-2.17 0.22-3 0.42zm511-0.29c0.28 0.36 2.97 1.32 6 2.13 3.03 0.81 5.72 1.27 6 1.03 0.28-0.25-0.62-0.85-2-1.35-1.37-0.5-4.3-1.26-6.5-1.69-2.2-0.43-3.77-0.49-3.5-0.12zm-2076.02 2.44c-0.01 0.41 1.68 1.41 3.75 2.22 2.07 0.81 7.37 3.28 11.77 5.51 4.4 2.22 10.7 6.1 14 8.63 3.3 2.52 9.6 8.42 14 13.1 4.68 4.99 9.98 11.99 12.77 16.9 2.62 4.61 5.77 10.99 7 14.17 1.23 3.18 2.57 5.77 2.98 5.75 0.41-0.02 0.75-0.26 0.75-0.53 0-0.28-0.41-1.29-0.91-2.25-0.5-0.97-2.84-5.8-5.21-10.75-2.36-4.95-5.93-11.25-7.93-14-2.01-2.75-4.41-5.68-5.34-6.5-0.94-0.83-1.66-1.95-1.61-2.5 0.04-0.55-2.07-2.93-4.71-5.28-2.63-2.36-5.92-5.19-7.29-6.3-1.38-1.11-4.53-3.48-7-5.26-2.48-1.78-8.55-5.16-13.5-7.52-4.95-2.36-9.79-4.7-10.75-5.21-0.96-0.52-1.98-0.93-2.25-0.93-0.28 0-0.51 0.33-0.52 0.75zm2089.42 2.25c0.33 0.55 1.16 1.01 1.85 1.02 0.69 0.02 4.4 1.52 8.25 3.33 3.85 1.81 9.93 5.23 13.5 7.61 3.57 2.37 8.89 6.39 11.81 8.92 2.92 2.54 8.16 7.99 11.64 12.12 3.49 4.12 8.78 11.77 11.78 17 2.99 5.22 6.39 12.2 7.56 15.5 1.17 3.3 2.61 8.02 3.21 10.5 0.59 2.47 1.32 4.27 1.62 4 0.29-0.28-0.01-2.98-0.68-6-0.66-3.03-1.53-5.95-1.94-6.5-0.41-0.55-1.24-2.58-1.84-4.5-0.61-1.93-2.17-5.53-3.47-8-1.3-2.48-3-5.63-3.78-7-0.77-1.38-1.64-2.73-1.92-3-0.28-0.28-1.75-2.3-3.28-4.5-1.52-2.2-3.77-5.37-4.99-7.04-1.22-1.66-5.22-5.94-8.89-9.5-3.67-3.55-8.96-8.15-11.75-10.21-2.8-2.07-5.3-3.75-5.58-3.75-0.28 0-2.53-1.35-5-3-2.47-1.65-4.72-3-5-3-0.28 0-2.97-1.13-6-2.5-3.03-1.38-6-2.5-6.6-2.5-0.61 0-0.83 0.45-0.5 1zm-1810.4 2.5c0 0.27 3.04 2.12 6.75 4.11 3.71 1.99 9.45 5.76 12.75 8.37 3.3 2.61 9.34 8.3 13.41 12.63 4.08 4.34 9.45 11.04 11.94 14.89 2.49 3.85 5.34 8.91 6.34 11.25 0.99 2.33 2.15 4.03 2.56 3.76 0.41-0.26-0.56-3.08-2.17-6.25-1.61-3.17-3.41-6.09-4-6.5-0.64-0.43-0.67-0.72-0.08-0.7 0.55 0.01-0.69-2.02-2.75-4.52-2.06-2.5-3.74-4.88-3.72-5.29 0.02-0.42-1.67-2.35-3.75-4.3-2.08-1.95-4.74-4.65-5.91-6-1.17-1.35-3.98-4.14-6.25-6.2-2.27-2.07-4.34-3.75-4.62-3.75-0.27 0-2.41-1.5-4.75-3.33-2.34-1.83-6.61-4.53-9.5-6-2.89-1.47-5.47-2.67-5.75-2.67-0.27 0-0.5 0.22-0.5 0.5zm699.04 8.25c0.03 0.41 2.36 2.55 5.18 4.75 2.83 2.2 6.52 5.89 8.21 8.21 1.69 2.31 3.41 4.23 3.82 4.25 0.41 0.02 0.35-0.75-0.15-1.71-0.49-0.97-4.2-5.02-8.25-9.02-4.04-4-7.69-7.26-8.1-7.25-0.41 0.01-0.73 0.35-0.71 0.77zm17.96 18.75c0 0.27 0.83 1.73 1.84 3.25 1.01 1.51 2.97 5.67 4.36 9.25 1.4 3.57 2.83 8.3 3.2 10.5 0.37 2.2 0.93 5.35 1.24 7 0.48 2.52 0.71 2.72 1.47 1.25 0.52-1.02 0.52-2.49 0.01-3.5-0.49-0.97-1.24-3.78-1.66-6.25-0.43-2.48-1.37-5.63-2.11-7-0.74-1.38-1.35-2.95-1.37-3.5-0.01-0.55-1.25-3.37-2.75-6.27-1.5-2.89-3.07-5.26-3.48-5.25-0.41 0.01-0.75 0.24-0.75 0.52zm-110.21 13.32c-0.94 0.37 4.1 0.68 11.21 0.68 7.11 0 12.15-0.31 11.21-0.68-0.94-0.38-5.98-0.68-11.21-0.68-5.22 0-10.27 0.3-11.21 0.68zm-13.79 4.57c-2.47 1.32-5.85 4.06-7.5 6.09-2.67 3.29-3 4.45-3 10.4 0 6.17 0.28 7.04 3.5 11.01 2.02 2.48 5.62 5.3 8.5 6.65 2.75 1.3 6.8 2.69 9 3.1 2.99 0.55 3.81 0.44 3.25-0.45-0.41-0.66-1.65-1.19-2.75-1.19-1.1 0-3.24-0.53-4.75-1.17-1.51-0.64-2.97-1.24-3.25-1.34-0.27-0.09-1.95-0.81-3.71-1.58-1.77-0.78-4.29-2.99-5.6-4.91-1.3-1.93-2.67-5.08-3.03-7-0.36-1.93-0.21-5.19 0.34-7.25 0.55-2.07 2.24-4.99 3.75-6.5 1.51-1.52 3.99-3.54 5.5-4.5 1.51-0.97 3.43-1.75 4.25-1.75 0.83 0 1.5-0.45 1.5-1 0-0.55-0.34-1.01-0.75-1.01-0.41 0-2.77 1.08-5.25 2.4zm43-1.89c0 0.27 1.91 1.33 4.25 2.34 2.34 1.02 6.16 3.94 8.5 6.5 2.34 2.56 4.59 6.06 5 7.78 0.41 1.72 1.18 3.4 1.7 3.75 0.59 0.39 0.66-0.53 0.18-2.37-0.42-1.65-2.06-5.03-3.64-7.5-1.74-2.73-4.96-5.78-8.18-7.74-2.92-1.78-5.87-3.24-6.56-3.25-0.69-0.01-1.25 0.21-1.25 0.49zm-128.17 1c-0.35 0.55-0.88 3.7-1.19 7l-0.57 6c2.25-8.53 2.79-11.68 2.64-12.5-0.14-0.85-0.53-1.07-0.88-0.5zm-850.83 5.68c-3.57 1.14-8.07 3.06-10 4.28-1.92 1.21-5.24 3.74-7.36 5.62-2.13 1.88-5.34 5.89-7.14 8.92-1.79 3.02-3.54 6.51-3.88 7.75-0.34 1.23-0.28 2.26 0.13 2.27 0.41 0.01 1.43-1.8 2.25-4.02 0.83-2.23 1.84-4.04 2.25-4.03 0.41 0.02 0.75-0.42 0.75-0.97 0-0.55 1.13-2.47 2.51-4.25 1.38-1.79 2.84-3.62 3.25-4.06 0.41-0.44 3.08-2.54 5.93-4.67 2.85-2.12 6.68-4.17 8.5-4.56 1.82-0.38 3.96-1.17 4.76-1.76 0.79-0.58 6.29-1.09 12.21-1.13 5.92-0.04 10-0.38 9.05-0.75-0.94-0.38-5.08-0.69-9.21-0.7-4.86-0.01-9.79 0.72-14 2.06zm26.5 0.63c0.55 0.46 2.92 1.48 5.27 2.26 2.36 0.79 4.27 1.76 4.25 2.18-0.01 0.41 0.54 0.73 1.23 0.71 0.69-0.02 3.53 2.34 6.31 5.25 2.79 2.91 6.28 7.87 7.75 11.04 1.48 3.16 3.03 7.82 3.44 10.36 0.41 2.54 1.09 4.79 1.5 5 0.41 0.21 0.76-0.4 0.76-1.36 0.01-0.97-0.59-3.78-1.33-6.25-0.75-2.48-2.56-6.98-4.05-10-1.48-3.03-4.14-7.04-5.91-8.91-1.77-1.88-5.02-4.62-7.22-6.1-2.2-1.47-5.57-3.21-7.5-3.85-1.92-0.65-3.95-1.18-4.5-1.18q-1 0 0 0.85zm370.49 6.44c-0.01 0.13 1.07 3.4 2.39 7.25 1.33 3.85 2.94 9.7 3.58 13 0.91 4.68 1.43 5.72 2.35 4.75 0.92-0.97 0.9-1.54-0.08-2.5-0.69-0.69-1.26-2.15-1.25-3.25 0-1.1-1.09-5.94-2.43-10.75-1.34-4.82-2.92-8.75-3.5-8.75-0.58 0-1.06 0.11-1.06 0.25zm450.51 1.41c-0.46 0.37-0.75 4.76-0.65 9.75 0.1 5 0.6 9.76 1.11 10.59 0.62 0.99 1.03-2.3 1.24-9.76 0.16-6.18 0.04-11.25-0.28-11.25-0.32 0.01-0.96 0.31-1.42 0.67zm-954.2 5c-0.58 1.01-1.39 3.41-1.8 5.34-0.4 1.92-1.08 3.95-1.5 4.5-0.43 0.55-1.1 3.02-1.5 5.5-0.4 2.47-1.1 5.17-1.55 6-0.45 0.82-0.44 2.17 0.02 3 0.69 1.24 0.92 1.15 1.36-0.5 0.29-1.1 0.84-4.03 1.23-6.5 0.39-2.48 1.69-7.62 2.87-11.42 1.19-3.81 2.11-7.11 2.05-7.34-0.06-0.23-0.59 0.41-1.18 1.42zm237.25 2.84c0.39 2.2 1.12 4.67 1.62 5.5 0.59 0.96 0.68-0.12 0.27-3-0.36-2.48-1.08-4.95-1.62-5.5-0.64-0.65-0.73 0.39-0.27 3zm941.45-0.5c0 0.64-13.09 1.09-36.75 1.26l-36.75 0.26c69.8 0.45 74.5 0.29 74.5-1.02 0-0.83-0.22-1.5-0.5-1.5-0.27 0-0.5 0.45-0.5 1zm490.82 6.71c-0.29 0.47-0.88 3.77-1.3 7.32-0.43 3.56-1.17 6.92-1.65 7.47-0.47 0.55-1.14 11.12-1.47 23.5-0.4 14.71-0.26 23.36 0.42 25 0.77 1.85 1.05-2.69 1.07-17.5 0.02-15.17 0.52-23.12 2.07-32.9 1.13-7.09 1.9-13.08 1.72-13.31-0.18-0.24-0.57-0.04-0.86 0.42zm409.76 4.29c-0.32 2.75-1.03 5.22-1.58 5.5-0.55 0.27-1 1.17-1 2 0 0.82 0.45 1.5 1 1.5 0.55 0 1.68-2.93 2.5-6.5 0.83-3.58 1.5-6.73 1.5-7 0-0.28-0.41-0.5-0.92-0.5-0.5 0-1.18 2.25-1.5 5zm-1839.08 2.5c0.36 3.3 0.85 6.78 1.08 7.75 0.39 1.64-1.94 1.75-38.58 1.75-25.33 0-39 0.35-39 1 0 0.65 13.83 1 39.5 1h39.5c-0.91-12.02-1.63-15.95-2.17-16.5q-1-0.99-0.33 5zm2091.6-0.31c-0.06 0.17 0.56 4.81 1.39 10.31 0.82 5.5 1.54 10.67 1.59 11.5 0.05 0.82 0.48 0.15 0.95-1.5 0.47-1.65 0.49-3.68 0.04-4.5-0.45-0.83-1.1-4.54-1.45-8.25-0.34-3.72-1.02-7.01-1.52-7.31-0.49-0.31-0.95-0.42-1-0.25zm-2255.35 1.91c-0.36 0.77-1.46 4.55-2.45 8.4-1.46 5.69-1.79 10.9-1.75 28 0.04 15.44 0.41 21.79 1.41 24 1.02 2.26 1.44 2.57 1.7 1.25 0.19-0.97-0.22-2.5-0.91-3.41-0.91-1.2-1.25-7.34-1.25-22.35 0-13.41 0.4-21.53 1.14-23.09 0.63-1.32 1.6-4.83 2.15-7.8 0.56-2.97 0.92-5.63 0.81-5.9-0.11-0.27-0.5 0.14-0.85 0.9zm879.79 3.9c0.27 2.47 1.23 6.07 2.13 8 0.89 1.92 2.01 4.28 2.48 5.25 0.47 0.96 1.41 2.72 2.1 3.91 0.69 1.19 1.8 2.88 2.48 3.75 0.68 0.87 3.38 3.97 6 6.87 2.62 2.91 5.33 5.28 6.02 5.25 0.69-0.02 1.59 0.53 2 1.22 0.41 0.68 3.23 2.85 6.25 4.81 3.03 1.96 7.75 4.58 10.5 5.81 2.75 1.24 5.79 2.67 6.75 3.19 1.12 0.6 1.93 0.57 2.25-0.06 0.28-0.55-0.51-1.3-1.75-1.67-1.24-0.36-6.07-2.65-10.75-5.09-4.67-2.43-11.54-6.86-15.25-9.83-3.71-2.98-8.71-8.23-11.1-11.66-2.39-3.44-5.28-8.73-6.42-11.75-1.15-3.03-2.56-7.08-3.14-9-1.04-3.46-1.05-3.45-0.55 1zm102.46-2.08c-1.16 0.69-0.83 1.03 1.5 1.49 1.65 0.34 6.38 1.04 10.5 1.57 4.13 0.52 8.29 0.97 9.25 0.99 0.96 0.01 1.57-0.31 1.36-0.72-0.22-0.42-4.49-1.09-9.5-1.5-5.01-0.42-9.33-1.2-9.61-1.75-0.27-0.55-0.84-1-1.25-0.99-0.41 0.01-1.42 0.42-2.25 0.91zm-546.66 5.08c0.32 1.92 1.09 9.12 1.71 16 0.62 6.87 0.97 17.11 0.79 22.75-0.26 7.71-0.03 10.25 0.91 10.25 0.95 0 1.25-3.77 1.25-15.5 0-8.53-0.34-15.68-0.75-15.9-0.41-0.22-1.1-4.6-1.52-9.75-0.43-5.14-1.27-9.8-1.87-10.35-0.79-0.72-0.94-0.02-0.52 2.5zm573.66-0.13c1.38 0.45 5.43 1.14 9 1.54 4.15 0.46 6.14 0.38 5.5-0.23-0.55-0.53-4.6-1.22-9-1.54-4.63-0.34-6.95-0.24-5.5 0.23zm990.78 0.81c-0.31 0.45-0.84 5.32-1.17 10.82-0.33 5.5-0.39 9.55-0.15 9 0.25-0.55 0.95-5.25 1.55-10.45 0.61-5.19 0.93-9.61 0.72-9.82-0.21-0.2-0.63 0-0.95 0.45zm-974.8 1.07c-0.01 0.41 3.92 1.53 8.75 2.48 4.82 0.96 9.11 1.75 9.52 1.75 0.41 0.01 0.53-0.43 0.25-0.98-0.27-0.55-3.42-1.23-7-1.5-3.57-0.28-6.5-0.95-6.5-1.5 0-0.55-1.12-1-2.5-1-1.37 0-2.51 0.33-2.52 0.75zm-1109.62 3.5c-0.41 0.68-0.77 11.46-0.8 23.95-0.04 13.88 0.33 23.08 0.94 23.7q1 1 1-23.95c0-13.73-0.09-24.95-0.2-24.95-0.11 0-0.53 0.56-0.94 1.25zm1130.19 0.75c-0.3 0.55 0.01 0.99 0.7 0.98 0.69 0 5.53 1.39 10.75 3.1 5.22 1.72 13.55 5.21 18.49 7.77 6.65 3.44 10.96 6.6 16.56 12.15 4.48 4.44 8.69 9.74 10.32 13 1.52 3.02 3.58 8.87 4.59 13 1.18 4.84 1.87 6.43 1.93 4.5 0.05-1.65-0.38-4.8-0.96-7-0.58-2.2-1.98-6.03-3.1-8.5-1.11-2.48-3.9-6.94-6.18-9.92-2.28-2.97-7.07-7.7-10.65-10.5-3.58-2.79-7.4-5.58-8.5-6.18-1.1-0.6-2.9-1.58-4-2.18-1.1-0.61-4.03-1.99-6.5-3.08-2.47-1.09-5.4-2.32-6.5-2.73-1.1-0.41-2.22-0.79-2.5-0.84-0.28-0.06-0.95-0.4-1.5-0.77-0.55-0.36-2.97-1.03-5.37-1.48-2.4-0.45-4.54-1.16-4.75-1.57-0.21-0.42-0.81-0.75-1.33-0.75-0.52 0-1.2 0.45-1.5 1zm1213.65 24v12.5c2.2-11.65 2.2-14.25 1.23-19-1.23-5.99-1.23-5.98-1.23 6.5zm-260.54 17.5c0.31 5.5 0.98 10.45 1.5 11 0.59 0.63 0.69-1.6 0.26-6-0.37-3.85-1.05-8.8-1.5-11-0.51-2.53-0.61-0.32-0.26 6zm-1068.26-1.5c0.33 0.55 2.85 1.45 5.6 2 2.75 0.55 5.56 0.96 6.25 0.91 0.69-0.06-1.45-0.95-4.75-1.99-3.3-1.04-6.38-1.9-6.85-1.91-0.47-0.01-0.58 0.44-0.25 0.99zm1327.68 1c-0.05 0.82-0.77 6-1.59 11.5-0.83 5.5-1.5 10.11-1.5 10.25 0.01 0.13 0.46 0.02 1.01-0.25 0.55-0.28 1.28-3.32 1.61-6.75 0.34-3.44 1.02-7.04 1.5-8 0.52-1.03 0.51-3.11-0.02-5-0.5-1.79-0.95-2.58-1.01-1.75zm-1995.53 6.75c0.39 2.61 1.12 5.42 1.64 6.25 0.65 1.02 0.76 0.39 0.36-2-0.31-1.93-0.57-4.74-0.56-6.25 0-1.52-0.47-2.75-1.06-2.75-0.71 0-0.84 1.6-0.38 4.75zm681.58-4.11c-0.08 0.47 2.44 1.37 5.61 2 3.17 0.63 6.77 1.41 8.01 1.75 1.24 0.33 2.3 0.19 2.36-0.32 0.06-0.51-2.52-1.45-5.75-2.09-3.22-0.63-6.81-1.39-7.97-1.68-1.16-0.28-2.18-0.13-2.26 0.34zm644.93 4.61c-0.03 2.06 0.28 3.92 0.69 4.14 0.41 0.21 1.09 3.81 1.5 8 0.41 4.18 1.2 7.83 1.75 8.11 0.55 0.27 0.78 0.95 0.5 1.5-0.28 0.55-0.09 1.56 0.41 2.25 0.5 0.68 1.29 2.99 1.75 5.12 0.46 2.13 1.18 4.04 1.59 4.25 0.41 0.21 0.75 0.26 0.75 0.13 0-0.14-0.93-3.63-2.08-7.75-1.14-4.13-2.7-11.33-3.45-16-0.76-4.68-1.82-9.63-2.36-11-0.92-2.34-0.99-2.26-1.05 1.25zm-626.56-0.45c0.55 0.53 4.15 1.24 8 1.58 4.21 0.36 6.2 0.26 5-0.25-1.1-0.48-4.7-1.19-8-1.58-3.9-0.47-5.65-0.38-5 0.25zm-1045.86 2.95c-0.35 0.68-0.24 2.03 0.24 3 0.49 0.96 1.22 3.77 1.62 6.25 0.4 2.47 1.05 4.95 1.44 5.5 0.39 0.55 1.27 3.02 1.96 5.5 0.68 2.47 1.78 5.81 2.42 7.42 0.65 1.61 2.47 5.44 4.05 8.5 1.58 3.07 3.49 6.7 4.25 8.08 0.76 1.37 2.84 4.37 4.63 6.67 1.79 2.29 5.16 6.68 7.5 9.75 2.34 3.06 6.61 7.36 9.5 9.53 2.89 2.18 6.82 5.31 8.75 6.97 1.92 1.66 3.84 3.03 4.25 3.05 0.41 0.01 3.56 1.76 7 3.88 3.44 2.12 7.37 4.2 8.75 4.63 1.37 0.42 2.27 0.51 2 0.21-0.28-0.31-2.75-1.76-5.5-3.23-2.75-1.47-8.15-4.74-12-7.26-3.85-2.53-11.75-9.34-17.55-15.15-7.46-7.47-12.06-13.11-15.75-19.3-2.86-4.82-5.92-10.44-6.8-12.5-0.88-2.07-2.91-7.58-4.5-12.25-1.59-4.68-3.18-10.53-3.52-13-0.35-2.48-0.96-5.18-1.36-6-0.56-1.14-0.9-1.2-1.38-0.25zm170.59 0.76c-0.4 0.83-0.38 1.84 0.05 2.25 0.43 0.4 0.76 0.17 0.75-0.51-0.02-0.98 8.32-1.25 38.47-1.25h38.5c-0.68 4.26-1.17 8.2-1.52 11.5q-0.65 5.98 0.34 5c0.55-0.55 1.27-4.94 1.59-9.75l0.59-8.75c-72.84 0-78.15 0.2-78.77 1.51zm892.27-0.69c0.55 0.47 5.05 1.38 10 2.01 4.95 0.63 9.67 1.17 10.5 1.19 0.82 0.02 1.27-0.2 1-0.49-0.28-0.29-4.78-1.19-10-2.01-5.23-0.82-10.18-1.5-11-1.52-0.94-0.02-1.13 0.28-0.5 0.82zm-981.06 2.93c0.39 1.51 2.52 6.57 4.74 11.25 2.74 5.78 5.67 10.12 9.17 13.59 2.83 2.8 7.85 6.47 11.15 8.15 3.3 1.68 7.8 3.41 10 3.85 2.46 0.48 3.76 0.43 3.37-0.15-0.35-0.52-2.6-1.31-5-1.77-2.4-0.45-6.4-1.99-8.87-3.41-2.48-1.42-6.45-4.42-8.83-6.67-2.39-2.25-5.2-5.67-6.26-7.59-1.06-1.93-2.36-4.18-2.89-5-0.52-0.83-1.87-3.64-2.99-6.25-1.11-2.62-2.03-5.65-2.03-6.75 0-1.1-0.51-2-1.14-2-0.75 0-0.9 0.94-0.42 2.75zm1003.84 1c0.26 0.41 2.67 1.12 5.35 1.58 2.68 0.45 6.89 1.78 9.37 2.95 2.47 1.17 5.96 3.72 7.74 5.67 1.79 1.95 3.59 3.16 4 2.7 0.42-0.47-1.04-2.42-3.24-4.34-2.2-1.92-5.35-4.2-7-5.06-1.65-0.86-5.25-2.16-8-2.9-2.75-0.73-5.83-1.34-6.85-1.34-1.02-0.01-1.64 0.32-1.37 0.74zm-916.55 1.25c-0.28 0.82-0.98 3.3-1.57 5.5-0.58 2.2-2.3 6.25-3.83 9-1.52 2.75-5.03 7.15-7.8 9.78-2.76 2.63-5.59 4.76-6.28 4.75-0.69-0.02-1.25 0.42-1.25 0.97 0 0.55 0.45 1 1 1 0.55 0 3.59-2.41 6.75-5.36 3.17-2.95 7.15-7.99 8.88-11.25 1.72-3.24 3.67-7.69 4.33-9.89 0.66-2.2 0.99-4.45 0.74-5-0.26-0.55-0.69-0.33-0.97 0.5zm1914.27 0.5c0 0.82 0.45 1.72 1 2 0.55 0.27 1 1.4 1 2.5 0 1.1 0.96 4.81 2.13 8.25 1.18 3.43 2.53 7.03 3 8 0.48 0.96 1.1 1.63 1.37 1.5 0.28-0.14-0.56-3.18-1.87-6.75-1.3-3.58-2.81-8.87-3.34-11.75-0.54-2.89-1.5-5.25-2.14-5.25-0.63 0-1.15 0.67-1.15 1.5zm-891.57 13.75c-0.04 5.64-0.82 13.85-1.72 18.25-0.9 4.4-2.33 9.46-3.18 11.25-0.84 1.78-1.31 3.58-1.04 4 0.26 0.41 1.43-1.5 2.59-4.25 1.16-2.75 2.53-7.93 3.04-11.5 0.52-3.58 1.37-8.42 1.91-10.75 0.53-2.34 0.97-6.5 0.97-9.25 0-2.75-0.23-5.68-0.5-6.5-0.28-0.83-0.84-1.5-1.25-1.5-0.41 0-0.78 4.62-0.82 10.25zm1144.33-0.99c-0.96 2.88-1.74 5.57-1.75 5.99 0 0.41 0.33 0.75 0.74 0.76 0.41 0.01 1.28-2.49 1.94-5.57 0.65-3.08 1.1-5.78 0.99-6.01-0.11-0.22-0.97 1.95-1.92 4.83zm-1984.24-2.01c0.38 1.23 1.54 3.6 2.57 5.25 1.02 1.65 4.24 5.4 7.14 8.34 3.28 3.32 7.91 6.6 12.27 8.69 3.85 1.84 9.02 3.82 11.5 4.39 2.47 0.56 5.85 1.02 7.5 1.02 2.14 0 2.57-0.24 1.5-0.84-0.83-0.46-3.98-1.15-7-1.52-3.03-0.38-8.65-2.2-12.5-4.06-3.85-1.85-9.03-5.37-11.5-7.82-2.48-2.45-5.23-5.3-6.12-6.33-0.89-1.03-2.06-3.56-2.6-5.62-0.54-2.07-1.54-3.75-2.23-3.75q-1.24 0-0.53 2.25zm89.99 3.47c-1.43 1.52-2.58 3.32-2.56 4.02 0.03 0.69-2.31 3.65-5.2 6.57-3.06 3.1-7.76 6.49-11.25 8.12-3.3 1.55-8.41 3.09-11.36 3.44-2.95 0.34-5.53 0.96-5.75 1.38-0.21 0.41 0.62 0.74 1.86 0.72 1.24-0.01 4.27-0.49 6.75-1.07 2.47-0.58 6.97-2.24 10-3.68 3.02-1.45 7.68-4.9 10.34-7.68 2.67-2.77 5.82-6.75 7-8.83l2.16-3.8c62.6 0.49 75.39 0.24 75.17-0.41-0.21-0.64-13.83-1.1-37.45-1.27l-37.12-0.26zm514.55-2.06c-0.87 0.3-1.37 1.58-1.24 3.17 0.12 1.46 0.65 3.34 1.19 4.16 0.72 1.12 0.97 0.54 0.98-2.25l0.02-3.75h75c0 3.88 1.06 7.14 2.36 9.75 1.3 2.62 4.37 6.55 6.82 8.75 2.45 2.2 7.12 5 10.39 6.21 3.26 1.21 7.95 2.54 10.43 2.95 2.78 0.46 4.25 0.38 3.86-0.21-0.35-0.52-2.94-1.28-5.75-1.7-2.81-0.41-5.9-1.15-6.86-1.64-0.97-0.49-2.88-1.41-4.25-2.04-1.38-0.63-3.44-1.69-4.59-2.36-1.15-0.66-2.87-1.88-3.84-2.71-0.96-0.82-2.86-3.52-4.21-6-1.35-2.47-2.7-6.07-2.99-8l-0.54-3.5c-17.31-1.15-34.26-1.45-48.83-1.41-14.58 0.04-27.16 0.3-27.95 0.58zm156.45 7.83q0 7.4 1 6.4c0.55-0.55 1-3.43 1-6.4 0-2.97-0.45-5.85-1-6.4q-1-1-1 6.4zm-868.27-2.84c-0.67 2.11-1.22 4.18-1.23 4.59 0 0.42 0.33 0.76 0.75 0.77 0.41 0.01 1.09-1.85 1.5-4.13 0.42-2.28 0.64-4.36 0.49-4.61-0.16-0.26-0.83 1.27-1.51 3.38zm271.23 4.09c-0.96 3.17-3.43 9.35-5.48 13.75-2.05 4.4-6.11 11.15-9.01 15-2.9 3.85-7.8 9.38-10.88 12.29-3.07 2.91-8.97 7.61-13.09 10.44-4.13 2.83-9.98 6.37-13 7.87-3.03 1.49-8.2 3.62-11.5 4.74-3.3 1.11-10.5 3.14-16 4.51-5.5 1.37-15.85 3.03-23 3.69-9.8 0.89-16.57 0.91-27.5 0.07-7.98-0.62-17.88-1.94-22-2.96-4.13-1.01-11.33-3.09-16-4.62-4.68-1.54-8.95-3.13-9.5-3.54-0.55-0.41-2.02-1.02-3.25-1.36-1.25-0.35-2.25-0.18-2.25 0.37 0 0.55 1.23 1.27 2.75 1.59 1.51 0.32 4.66 1.45 7 2.5 2.33 1.05 4.92 1.91 5.75 1.91 0.82 0 1.72 0.45 2 1 0.27 0.55 1.17 0.78 2 0.5 0.82-0.27 1.67-0.16 1.88 0.25 0.21 0.42 2.57 1.13 5.25 1.6 2.68 0.46 5.32 1.2 5.87 1.64 0.55 0.44 5.72 1.4 11.5 2.13 5.77 0.74 15.67 1.32 22 1.3 6.32-0.02 16.22-0.61 22-1.32 5.77-0.7 10.95-1.65 11.5-2.1 0.55-0.44 3.19-1.19 5.87-1.65 2.67-0.47 5.04-1.18 5.25-1.6 0.21-0.41 0.83-0.52 1.38-0.25 0.55 0.28 1.56 0.12 2.25-0.36 0.68-0.47 2.6-1.17 4.25-1.56 1.65-0.38 5.02-1.61 7.5-2.72 2.47-1.12 6.3-2.97 8.5-4.11 2.2-1.14 6.01-3.47 8.47-5.16 2.47-1.7 5.05-3.31 5.75-3.59 0.69-0.27 5.55-4.77 10.79-10 5.24-5.22 9.51-10.06 9.5-10.75-0.01-0.68 0.55-1.58 1.24-2 0.68-0.41 1.8-1.65 2.47-2.75 0.68-1.1 2.84-5.37 4.82-9.5 1.97-4.12 3.95-8.17 4.4-9 0.45-0.82 1.21-3.24 1.69-5.37 0.48-2.13 1.2-4.04 1.62-4.25 0.41-0.21 0.75-0.83 0.75-1.38 0-0.55-0.4-1-0.89-1-0.49 0-1.68 2.59-2.65 5.75zm1816.49 2c-0.55 1.52-2.18 5-3.62 7.75-1.44 2.75-5.01 8.38-7.94 12.5-2.92 4.13-8.59 10.71-12.6 14.62-4.01 3.92-10.89 9.71-15.29 12.87-4.4 3.17-10.93 7.19-14.5 8.94-3.58 1.74-9.55 4.28-13.27 5.62-3.72 1.35-6.76 2.79-6.75 3.2 0.01 0.42 0.47 0.75 1.02 0.75 0.55 0 1.17-0.33 1.37-0.75 0.21-0.41 1.9-1.09 3.75-1.51 1.86-0.42 7.65-2.93 12.88-5.57 5.22-2.65 10.62-5.46 12-6.24 1.37-0.78 2.83-1.99 3.25-2.68 0.41-0.68 1.42-1.25 2.25-1.25 0.82 0 6.6-5.06 12.84-11.25 6.65-6.6 13.32-14.34 16.13-18.75 2.63-4.12 5.81-9.52 7.07-12 1.25-2.47 2.52-5.51 2.82-6.75 0.3-1.23 0.33-2.25 0.07-2.25-0.26 0-0.93 1.24-1.48 2.75zm-1375.95 0.75c0 1.38 0.45 2.73 1 3 0.55 0.28 1.22 2.3 1.5 4.5 0.27 2.2 1.04 4.34 1.71 4.75 0.88 0.55 1.02 0.08 0.52-1.75-0.38-1.37-1.12-4.86-1.65-7.75-0.53-2.88-1.44-5.25-2.02-5.25-0.59 0-1.06 1.13-1.06 2.5zm-715.08 3.25c-0.66 2.07-2.08 5.55-3.16 7.75-1.08 2.2-4.06 7.15-6.62 10.99-2.55 3.84-8.24 10.59-12.64 15-4.4 4.41-10.48 9.64-13.5 11.63-3.03 1.99-8.43 5.17-12 7.07-3.58 1.91-9.55 4.56-13.27 5.89-3.72 1.33-6.76 2.76-6.75 3.17 0.01 0.42 0.47 0.75 1.02 0.75 0.55 0 1.17-0.33 1.37-0.75 0.21-0.41 1.9-1.1 3.75-1.53 1.86-0.43 7.2-2.68 11.88-5 4.67-2.32 8.61-4.55 8.75-4.97 0.13-0.41 0.7-0.75 1.25-0.75 0.55 0 3.26-1.68 6.02-3.75 2.77-2.06 8.28-6.9 12.25-10.75 3.98-3.85 8.58-8.93 10.23-11.3 1.65-2.36 3.78-5.51 4.74-7 0.96-1.48 3.12-5.62 4.8-9.2 1.67-3.57 3.47-7.28 4-8.25 0.53-0.96 0.96-1.97 0.96-2.25 0-0.27-0.43-0.5-0.94-0.5-0.52 0-1.48 1.69-2.14 3.75zm1851.08-3c0 0.69 1.46 4.04 3.25 7.44 1.78 3.4 3.58 6.66 3.99 7.25 0.41 0.59 3.11 4.18 6 7.99 2.89 3.81 7.06 8.93 9.26 11.39 2.2 2.46 5.57 5.54 7.5 6.85 1.92 1.31 5.75 4.16 8.5 6.34 2.75 2.18 9.95 6.44 16 9.46 6.05 3.03 12.51 5.85 14.37 6.27 1.85 0.42 3.54 1.1 3.75 1.51 0.21 0.42 3.64 1.28 7.63 1.91 3.98 0.64 7.7 1.51 8.25 1.94 0.55 0.43 5.95 1.36 12 2.05 6.05 0.7 15.27 1.27 20.5 1.27 5.22 0.01 14.45-0.59 20.5-1.33 6.05-0.73 11.45-1.69 12-2.12 0.55-0.43 3.19-1.16 5.87-1.62 2.67-0.47 5.04-1.18 5.25-1.6 0.21-0.41-0.07-0.75-0.62-0.75-0.55 0-4.72 0.93-9.25 2.07-4.54 1.14-13.65 2.4-20.25 2.8-6.6 0.41-18.08 0.43-25.5 0.06-7.43-0.38-16.88-1.45-21-2.39-4.13-0.93-11.33-2.85-16-4.26-4.68-1.41-12.1-4.36-16.5-6.55-4.4-2.2-10.7-5.81-14-8.03-3.3-2.22-10.2-8.12-15.34-13.11-5.13-5-10.98-11.34-13-14.09-2.01-2.75-5.8-8.82-8.41-13.5-2.61-4.67-4.75-7.93-4.75-7.25zm-410.48 4.75c0.32 1.65 2.49 6.83 4.83 11.5 2.34 4.68 5.81 10.69 7.7 13.35 1.9 2.67 6.41 7.84 10.03 11.5 3.61 3.66 9.14 8.45 12.28 10.65 3.14 2.2 6.28 4.45 6.97 5 0.69 0.55 2.7 1.79 4.46 2.75 1.76 0.97 3.19 1.42 3.17 1-0.02-0.41-3.73-3.1-8.25-5.99-4.52-2.88-11.48-8.39-15.46-12.25-3.99-3.85-9.17-9.59-11.52-12.76-2.34-3.16-5.86-9.12-7.82-13.25-1.95-4.12-4.32-9.07-5.26-11-1.68-3.44-1.69-3.44-1.13-0.5zm-573.11 2.56c-1.6 1.67-4.94 3.99-7.41 5.15-2.48 1.17-6.29 2.34-8.47 2.59-2.18 0.26-4.21 0.95-4.5 1.54-0.36 0.72 0.84 0.84 3.72 0.36 2.33-0.38 6.61-1.76 9.5-3.07 2.88-1.3 6.6-3.77 8.25-5.49 1.65-1.71 2.73-3.34 2.41-3.61-0.32-0.28-1.89 0.86-3.5 2.53zm-967.59 0.31c-2.57 0.63-5.04 1.53-5.5 2.02-0.47 0.51 0.87 0.57 3.18 0.15 2.2-0.4 5.12-1.34 6.5-2.09 1.37-0.75 2.05-1.33 1.5-1.29-0.55 0.05-3.11 0.59-5.68 1.21zm819.15 5.88c-0.01 0.14 1.39 2.95 3.11 6.25 1.73 3.3 3.76 6.68 4.5 7.5 0.75 0.83 1.38 2.07 1.39 2.75 0.02 0.69 4.08 5.3 9.03 10.25 4.95 4.95 9.45 9 10 9 0.55 0 2.46 1.06 4.25 2.36 1.78 1.29 6.17 3.76 9.75 5.48 3.57 1.72 7.17 3.12 8 3.11 0.82-0.01-2.33-1.91-7.02-4.23-4.68-2.32-11.43-6.31-15-8.88-3.56-2.56-8.55-6.83-11.08-9.5-2.53-2.66-6.36-7.55-8.5-10.88-2.15-3.32-4.38-7.71-4.96-9.75-0.57-2.04-1.59-3.71-2.25-3.71-0.65 0-1.21 0.12-1.22 0.25zm114.03 4.48c1.92 0.22 5.3 0.22 7.5 0 2.2-0.21 0.62-0.39-3.5-0.39-4.13 0-5.93 0.18-4 0.39zm108.65 9.02c-0.77 1.52-3.62 5.45-6.33 8.75-2.72 3.3-7.84 8.18-11.38 10.84-3.55 2.66-10.49 6.77-15.44 9.13-4.95 2.37-11.59 5.03-14.75 5.92-3.17 0.89-5.75 2.06-5.75 2.61 0 0.55 0.45 1 1 1 0.55 0 1.17-0.33 1.37-0.75 0.21-0.41 2.12-1.12 4.25-1.59 2.13-0.46 5.9-1.72 8.38-2.8 2.47-1.08 6.3-2.91 8.5-4.07 2.2-1.16 6.25-3.57 9-5.36 2.75-1.79 7.79-6.1 11.22-9.59 3.42-3.48 7.09-7.46 8.15-8.84 1.07-1.37 2.38-3.73 2.91-5.25 0.53-1.51 0.81-2.75 0.61-2.75-0.19 0-0.98 1.24-1.74 2.75zm-1112.15 33.59c1.1 0.88 2.67 1.62 3.5 1.64 0.82 0.02 2.85 0.72 4.5 1.56 1.65 0.84 3.11 1.51 3.25 1.5 0.13-0.02 0.34-0.4 0.45-0.84 0.11-0.44-2.26-1.64-5.25-2.66-3-1.02-6.13-2.07-6.95-2.33-0.88-0.28-0.68 0.19 0.5 1.13zm941.59 0.6c-0.05 0.58 1.71 1.29 3.91 1.56 2.2 0.28 4.22 0.95 4.5 1.5 0.27 0.55 0.95 1 1.5 1 0.55 0 1-0.33 1.01-0.75 0.01-0.41-1.45-1.27-3.25-1.91-1.79-0.64-4.23-1.46-5.42-1.82-1.26-0.38-2.2-0.2-2.25 0.42zm-928.81 3.81c0.26 0.42 2.67 1.13 5.35 1.6 2.68 0.46 5.32 1.21 5.87 1.65 0.55 0.45 5.72 1.4 11.5 2.1 5.77 0.71 15.45 1.29 21.5 1.29 6.05 0 15.5-0.55 21-1.22 5.5-0.68 10.67-1.61 11.5-2.08 0.82-0.47 3.69-1.24 6.37-1.72 2.67-0.47 5.04-1.2 5.25-1.62 0.21-0.41 0.04-0.74-0.37-0.73-0.42 0.01-4.35 0.89-8.75 1.96-4.4 1.07-13.85 2.42-21 3-8.93 0.72-17.47 0.73-27.25 0.04-7.84-0.56-17.74-1.92-22-3.02-4.27-1.11-8.14-2.01-8.61-2-0.46 0-0.63 0.34-0.36 0.75zm941 0c0.27 0.42 3.12 1.14 6.35 1.6 3.23 0.47 6.32 1.2 6.87 1.64 0.55 0.44 6.62 1.41 13.5 2.16 6.87 0.74 18.35 1.34 25.5 1.31 7.15-0.02 18.4-0.61 25-1.31 6.6-0.69 12.45-1.74 13-2.33 0.7-0.76-0.33-0.87-3.5-0.38-2.48 0.39-11.03 1.1-19 1.59-8.58 0.52-21.45 0.51-31.5-0.03-10.63-0.57-20.19-1.68-25.5-2.95-4.68-1.12-9.11-2.03-9.86-2.04-0.74 0-1.13 0.33-0.86 0.74zm95.72 0.4c-2.48 0.52-4.28 1.15-4 1.41 0.27 0.26 2.87 0.13 5.76-0.29 2.9-0.42 5.26-1.1 5.25-1.52-0.01-0.41-0.58-0.7-1.26-0.64-0.69 0.06-3.28 0.53-5.75 1.04z"/>
		<path id="Path 1" class="s1" d="m328.5 691.74c2.75 0.2 6.8 0.2 9-0.01 2.2-0.21-0.05-0.38-5-0.38-4.95 0.01-6.75 0.18-4 0.39zm2219.91 119.51c-0.29 0.69-0.1 3.27 0.42 5.75l0.96 4.5c0.16-8.91-0.03-11.5-0.31-11.5-0.29 0-0.77 0.56-1.07 1.25zm0.1 17c-0.41 3.31-0.25 5.62 0.44 6.25 0.77 0.71 1.08-0.81 1.07-5.25-0.01-3.44-0.21-6.25-0.44-6.25-0.23 0-0.71 2.36-1.07 5.25zm-1324.51 37.48c2.48 0.21 6.08 0.21 8 0 1.93-0.22-0.1-0.39-4.5-0.39-4.4 0.01-5.97 0.18-3.5 0.39zm751.2 84.45c-0.93 0.37 1.9 0.72 6.3 0.78 4.4 0.05 7.78-0.16 7.5-0.46-0.27-0.31-3.11-0.66-6.3-0.78-3.19-0.12-6.56 0.09-7.5 0.46z"/>
		<path id="Path 2" fill-rule="evenodd" class="s2" d="m2214 585.13c1.93-0.06 6.31 0.33 9.75 0.88 3.44 0.54 8.83 2.23 11.98 3.74 3.15 1.51 8.03 5 10.85 7.75 2.81 2.75 6.25 7.25 7.64 10 1.39 2.75 3.26 7.59 4.15 10.75 0.9 3.16 1.62 7.44 1.6 9.5-0.02 2.06-0.9 6.9-1.97 10.75-1.12 4.05-3.53 9.28-5.72 12.4-2.08 2.98-5.58 6.88-7.78 8.69-2.2 1.8-6.7 4.54-10 6.09-5.69 2.67-6.73 2.82-34 2.82l-7.41-4c-4.18-2.25-9.2-5.99-11.5-8.55-2.25-2.5-5.37-7.22-6.93-10.5-1.62-3.4-3.15-8.74-3.57-12.45-0.41-3.58-0.37-9.2 0.08-12.5 0.44-3.3 2.14-8.7 3.77-12 1.63-3.3 5.12-8.18 7.76-10.85 2.76-2.79 7.57-6.15 11.3-7.9 3.57-1.68 8.75-3.38 11.5-3.78 2.75-0.4 6.57-0.77 8.5-0.84zm-159 22.87h78v335h-75l-0.25-17.17c-0.19-12.72-0.57-17.25-1.5-17.5-0.69-0.18-2.45 1.81-3.92 4.42-1.47 2.61-6.54 8.58-11.27 13.25-6.78 6.71-10.37 9.37-17.07 12.65-4.67 2.29-11.87 5.21-15.99 6.5-6.78 2.12-9.33 2.34-26.5 2.32-16.92-0.02-19.88-0.27-27-2.35-4.4-1.29-10.7-3.46-14-4.83-3.3-1.37-9.6-4.88-14-7.8-4.4-2.93-11.04-8.29-14.75-11.91-3.71-3.62-8.66-9.17-11-12.34-2.34-3.16-5.68-8.67-7.44-12.25-1.75-3.57-4.27-9.19-5.59-12.49-1.33-3.3-3.35-9.83-4.5-14.5-1.15-4.67-2.79-12.44-3.65-17.25-1.11-6.2-1.56-14.95-1.53-30 0.03-17.74 0.42-23.4 2.36-34.25 1.28-7.15 3.29-16.26 4.46-20.25 1.18-3.99 3.59-10.29 5.36-14 1.77-3.71 5.78-10.58 8.91-15.25 3.13-4.67 8.43-11.31 11.78-14.75 3.35-3.44 8.45-8.1 11.34-10.36 2.89-2.26 7.95-5.61 11.25-7.46 3.3-1.84 8.92-4.5 12.5-5.91 3.58-1.4 10.1-3.24 14.5-4.07 4.4-0.84 13.63-1.8 20.5-2.13 10.7-0.52 14.01-0.29 23 1.63 5.78 1.23 10.95 2.58 11.5 3 0.55 0.42 2.35 1.2 4 1.74 1.65 0.54 6.38 3.25 10.5 6.02 4.13 2.77 10 7.69 13.06 10.92 3.06 3.23 6.43 7.34 7.5 9.13 1.07 1.8 2.5 3.26 3.19 3.25 0.99-0.01 1.25-12.78 1.25-60.51zm-66 148.98c-2.47 0.72-5.11 1.81-5.86 2.41-0.75 0.61-3.9 3.43-7 6.27-3.63 3.32-6.89 7.6-9.14 11.99-1.92 3.75-3.28 6.87-3 6.93 0.28 0.06-0.03 0.74-0.69 1.52-0.65 0.77-1.5 3.42-1.88 5.9-0.39 2.48-1.07 4.95-1.51 5.5-0.44 0.55-0.88 2.8-0.98 5-0.09 2.2-0.17 10.3-0.17 18 0 7.7 0.08 15.8 0.17 18 0.1 2.2 0.55 4.45 1.01 5 0.45 0.55 1.15 3.02 1.55 5.5 0.4 2.48 1.24 5.13 1.86 5.9 0.63 0.78 1 1.45 0.82 1.5-0.18 0.06 0.16 1.45 0.75 3.1 0.59 1.65 1.6 3.9 2.25 5 0.65 1.1 1.66 2.96 2.25 4.13 0.59 1.17 3.43 4.43 6.32 7.25 2.89 2.82 7.39 6.25 10 7.63 2.61 1.39 7.39 2.85 10.61 3.25 3.22 0.41 6.03 1.08 6.25 1.49 0.21 0.41 1.74 0.75 3.39 0.75 1.65 0 3.18-0.34 3.39-0.75 0.22-0.41 3.03-1.02 6.25-1.36 3.52-0.36 7.85-1.7 10.86-3.33 2.75-1.5 7.37-5.05 10.26-7.89 2.9-2.85 5.26-5.73 5.25-6.42 0-0.69 0.44-1.25 0.99-1.25 0.55 0 1.75-1.69 2.66-3.75 0.91-2.06 1.74-3.98 1.83-4.25 0.1-0.27 0.7-1.74 1.34-3.25 0.65-1.51 1.16-3.54 1.15-4.5-0.01-0.96 0.41-2.2 0.93-2.75 0.52-0.55 1.43-5.39 2.02-10.75 0.59-5.36 1.07-13.8 1.07-18.75 0-4.95-0.49-13.39-1.09-18.75-0.59-5.36-1.42-9.98-1.84-10.25-0.42-0.27-1.08-1.85-1.47-3.5-0.4-1.65-2.15-5.86-3.91-9.36-1.87-3.73-5.67-8.82-9.19-12.3-3.3-3.27-7.8-6.82-10-7.88-2.2-1.06-5.01-1.94-6.25-1.95-1.24 0-2.47-0.46-2.75-1.01-0.29-0.57-5.1-1-11.3-1-5.94 0-11.23 0.37-11.75 0.83-0.52 0.46-2.98 1.42-5.45 2.15zm-1386-63.42c9.08 0.23 20.77 1.07 26 1.85 5.23 0.79 11.98 2.19 15 3.11 3.02 0.93 7.98 2.65 11 3.83 3.02 1.17 8.65 3.89 12.5 6.03 3.85 2.14 9.7 6.02 13 8.62 3.3 2.6 9.34 8.28 13.41 12.62 4.08 4.33 9.32 10.8 11.66 14.38 2.33 3.58 5.56 9.42 7.18 13 1.62 3.58 3.66 8.52 4.54 11 0.89 2.48 2.55 8.33 3.7 13 1.16 4.67 2.77 14.8 3.58 22.5 0.82 7.7 1.36 19.17 0.93 37l-175.5 0.5 0.6 4.25c0.33 2.34 1.27 6.5 2.09 9.25 0.82 2.75 1.86 5.9 2.31 7 0.45 1.1 1.75 4.02 2.88 6.5 1.13 2.48 4.66 7.12 7.84 10.33 3.74 3.78 8.25 7.02 12.78 9.19 3.85 1.85 9.02 3.83 11.5 4.4 2.48 0.57 9 1.03 14.5 1.03 5.5 0 12.02-0.47 14.5-1.05 2.48-0.58 6.98-2.23 10-3.68 3.02-1.44 7.68-4.9 10.34-7.67 2.67-2.78 5.82-6.75 9.16-12.6l37.25 0.03c20.49 0.01 37.25 0.13 37.24 0.27 0 0.14-1.15 3.63-2.56 7.75-1.4 4.13-4.05 10.65-5.87 14.5-1.82 3.85-5.69 10.15-8.59 14-2.9 3.85-7.79 9.38-10.87 12.29-3.08 2.91-8.98 7.61-13.1 10.44-4.13 2.83-9.98 6.37-13 7.86-3.02 1.5-8.2 3.63-11.5 4.74-3.3 1.11-10.5 3.15-16 4.52-5.5 1.37-15.85 3.03-23 3.68-9.8 0.9-16.57 0.91-27.5 0.07-7.98-0.61-17.88-1.94-22-2.95-4.13-1.01-11.33-3.11-16-4.67-4.67-1.56-9.63-3.43-11-4.15-1.38-0.72-2.84-1.32-3.25-1.32-0.41-0.01-3.56-1.66-7-3.68-3.44-2.01-8.73-5.56-11.75-7.87-3.02-2.32-8.88-7.67-13-11.89-4.13-4.22-9.44-10.47-11.81-13.87-2.37-3.41-5.92-9.57-7.87-13.7-1.96-4.12-4.36-9.75-5.34-12.5-0.98-2.75-2.71-8.83-3.84-13.5-1.14-4.67-2.53-12.33-3.11-17-0.57-4.67-1.02-13.9-1.01-20.5 0.01-6.6 0.64-16.73 1.41-22.5 0.76-5.77 2.13-13.2 3.04-16.5 0.91-3.3 2.59-8.7 3.74-12 1.15-3.3 3.76-9.37 5.8-13.5 2.04-4.12 5.75-10.42 8.25-14 2.5-3.58 8.3-10.24 12.89-14.82 4.59-4.57 11.27-10.28 14.85-12.68 3.58-2.41 9.87-5.9 14-7.77 4.12-1.87 9.3-4.11 11.5-4.98 2.2-0.87 6.25-2.27 9-3.11 2.75-0.85 9.05-2.21 14-3.04 4.95-0.83 10.12-1.72 11.5-1.98 1.37-0.26 9.92-0.29 19-0.06zm-29.75 62.8c-2.06 1.3-5.66 4.45-8 7-2.34 2.55-5.21 6.55-6.39 8.89-1.18 2.34-2.99 6.73-4.02 9.75-1.03 3.02-1.86 6.51-1.86 7.75l0.02 2.25c83.92 0 94-0.27 94.02-1.25 0.01-0.69-0.94-4.4-2.11-8.25-1.18-3.85-3.28-9.25-4.67-12-1.39-2.75-5.09-7.48-8.21-10.5-3.63-3.52-7.81-6.38-11.6-7.93-4.83-1.98-8.07-2.5-17.43-2.78-10.25-0.3-12.29-0.07-18.75 2.18-3.99 1.39-8.94 3.59-11 4.89zm712.25-62.84c8.8 0.21 19.83 0.88 24.5 1.49 4.67 0.61 10.08 1.5 12 1.98 1.92 0.48 6.2 1.62 9.5 2.53 3.3 0.9 9.6 3.38 14 5.5 4.4 2.11 9.32 4.66 10.94 5.66 1.62 1 4.32 2.95 6 4.32 1.68 1.38 4.86 4.3 7.06 6.51 2.2 2.2 5.01 5.24 6.25 6.75 1.24 1.51 2.25 2.97 2.25 3.24 0 0.27 0.82 1.74 1.82 3.25 1 1.51 2.83 5.23 4.07 8.25 1.24 3.02 2.92 8.65 3.73 12.5 0.8 3.85 1.78 8.92 2.88 15.53h-73l-0.74-4.26c-0.4-2.35-2.07-6.29-3.71-8.77-1.64-2.48-4.9-5.72-7.26-7.22-2.36-1.49-7.55-3.63-11.54-4.75-4.53-1.27-10.25-2.03-15.25-2.03-4.83 0-10.97 0.79-15.5 2-4.12 1.1-9.19 3.04-11.25 4.32-2.06 1.28-4.87 3.86-6.25 5.75-2.06 2.82-2.5 4.58-2.5 9.93 0 5.69 0.37 6.98 3 10.38 1.65 2.13 4.8 4.91 7 6.18 2.2 1.26 7.83 3.24 12.5 4.38 4.67 1.15 12.33 2.53 17 3.08 4.67 0.54 11.2 1.43 14.5 1.99 3.3 0.55 13.2 2.34 22 3.98 8.8 1.64 20.28 4.38 25.5 6.09 5.22 1.72 13.55 5.21 18.49 7.77 6.67 3.45 10.94 6.59 16.54 12.15 4.39 4.36 8.72 9.8 10.34 13 1.53 3.02 3.64 9.21 4.7 13.75 1.48 6.34 1.84 10.86 1.55 19.5-0.21 6.19-1.17 14.85-2.12 19.25-0.95 4.4-2.09 8.67-2.54 9.5-0.44 0.83-1.78 3.52-2.97 6-1.2 2.48-4.05 6.94-6.34 9.93-2.28 2.98-7.07 7.83-10.65 10.77-3.58 2.94-10.55 7.34-15.5 9.79-4.95 2.44-12.37 5.53-16.5 6.86-4.12 1.33-9.97 2.97-13 3.65-3.03 0.67-7.53 1.63-10 2.14-2.47 0.51-11.25 1.34-19.5 1.85-9.24 0.57-21.53 0.56-32-0.01-11.39-0.63-20.46-1.73-27.5-3.34-5.78-1.32-13.2-3.29-16.5-4.38-3.3-1.1-9.15-3.45-13-5.25-3.85-1.79-10.37-5.63-14.5-8.53-4.12-2.91-9.55-7.46-12.05-10.13-2.51-2.67-5.93-6.87-7.62-9.35-1.68-2.48-4.04-6.52-5.23-9-1.2-2.48-3.28-8.89-4.64-14.25-1.35-5.36-2.46-11.1-2.46-15.75h75v2.5c0 1.38 1.06 4.64 2.36 7.25 1.3 2.61 4.37 6.55 6.82 8.75 2.56 2.29 7.21 5.02 10.89 6.38 3.64 1.34 10.77 2.81 16.43 3.39 6.95 0.71 12.59 0.69 18.5-0.06 4.67-0.59 10.75-2.03 13.5-3.2 2.75-1.18 6.27-3.35 7.82-4.82 1.55-1.48 3.57-4.27 4.49-6.19 0.92-1.92 1.67-5.3 1.67-7.5 0-2.2-0.73-5.58-1.62-7.5-0.9-1.92-3.37-4.9-5.49-6.61-2.13-1.72-5.22-3.81-6.87-4.66-1.65-0.84-6.37-2.27-10.5-3.17-4.12-0.9-13.12-2.56-20-3.68-6.87-1.12-15.87-2.62-20-3.34-4.12-0.71-10.87-2.04-15-2.95-4.12-0.91-10.65-2.58-14.5-3.7-3.85-1.12-8.35-2.57-10-3.21-1.65-0.65-6.83-3.14-11.5-5.53-4.67-2.39-11.4-6.67-14.94-9.5-3.55-2.83-8.42-7.85-10.83-11.15-2.42-3.3-5.19-7.8-6.17-10-0.97-2.2-2.53-6.92-3.46-10.5-1.13-4.31-1.64-9.86-1.53-16.5 0.08-5.5 0.96-13.6 1.94-18 0.97-4.4 2.54-9.8 3.49-12 0.94-2.2 3.66-6.92 6.04-10.5 2.38-3.58 5.82-7.86 7.64-9.53 1.83-1.67 5.35-4.64 7.82-6.61 2.47-1.97 7.65-5.3 11.5-7.42 3.85-2.11 9.25-4.7 12-5.74 2.75-1.05 7.47-2.58 10.5-3.4 3.03-0.82 8.88-2.14 13-2.93 4.13-0.79 12.22-1.83 18-2.33 5.78-0.49 17.7-0.72 26.5-0.52zm-955.5 0.58c9.63-0.06 21.32 0.36 26 0.93 4.68 0.57 12.89 2.14 18.25 3.5 5.36 1.36 10.54 2.87 11.5 3.36 0.96 0.49 5.57 2.7 10.25 4.92 4.68 2.22 11.43 6.25 15 8.95 3.57 2.7 10.1 8.76 14.5 13.46 4.4 4.69 9.91 11.85 12.24 15.91 2.33 4.05 5.53 10.52 7.11 14.37 1.58 3.85 3.41 9.25 4.07 12 0.66 2.75 1.58 7.03 2.05 9.5 0.47 2.48 1.12 6.19 2.03 12l-77.5 0.01-1.12-5.76c-0.61-3.16-2.45-8.7-4.08-12.3-1.63-3.61-4.5-8.07-6.38-9.91-1.88-1.85-5.22-4.58-7.42-6.08-2.2-1.5-7.15-3.67-11-4.82-3.9-1.18-9.88-2.13-13.5-2.15-3.89-0.02-9.31 0.83-13.5 2.1-3.85 1.18-9.44 3.78-12.42 5.78-2.98 1.99-6.8 5.26-8.5 7.25-1.69 1.99-4.37 6.26-5.94 9.5-1.57 3.23-3.24 6.78-3.7 7.88-0.47 1.1-1.66 5.15-2.65 9-1.43 5.59-1.79 11.03-1.79 27 0 16.22 0.35 21.32 1.84 27 1.01 3.85 3.65 10.83 5.85 15.5 2.74 5.81 5.65 10.11 9.16 13.59 2.83 2.8 7.96 6.52 11.4 8.25 3.86 1.95 9.02 3.55 13.5 4.19 4.95 0.7 9.55 0.7 14.5 0 3.99-0.57 9.61-2.14 12.5-3.49 2.89-1.35 7.54-4.84 10.34-7.75 2.8-2.91 6.23-7.54 7.62-10.29 1.38-2.75 2.99-6.58 3.56-8.5 0.58-1.92 1.32-4.74 2.23-9h77l-0.46 3.25c-0.25 1.79-0.73 5.5-1.08 8.25-0.34 2.75-1.31 7.25-2.15 10-0.84 2.75-2.42 7.48-3.51 10.5-1.09 3.03-2.66 6.85-3.5 8.5-0.83 1.65-3.6 6.14-6.16 9.99-2.55 3.84-8.24 10.59-12.64 15-4.4 4.4-10.48 9.64-13.5 11.62-3.02 1.99-8.43 5.17-12 7.06-3.57 1.9-9.87 4.64-14 6.1-4.12 1.46-11.32 3.55-16 4.65-4.68 1.1-14.35 2.47-21.5 3.05-8.92 0.72-17.47 0.74-27.25 0.04-7.84-0.55-17.96-1.94-22.5-3.07-4.54-1.14-11.62-3.25-15.75-4.69-4.12-1.45-9.98-3.94-13-5.55-3.02-1.61-8.65-4.99-12.5-7.51-3.85-2.52-11.75-9.33-17.55-15.14-7.46-7.47-12.06-13.11-15.75-19.3-2.86-4.81-5.92-10.44-6.8-12.5-0.88-2.06-2.71-6.9-4.06-10.75-1.36-3.85-3.15-10.15-3.98-14-0.84-3.85-1.9-9.47-2.36-12.5-0.46-3.02-0.83-13.15-0.83-22.5 0-9.35 0.37-19.47 0.83-22.5 0.46-3.02 1.52-8.65 2.35-12.5 0.84-3.85 2.46-9.7 3.6-13 1.15-3.3 2.8-7.58 3.67-9.5 0.87-1.92 2.48-5.3 3.58-7.5 1.1-2.2 4.09-7.15 6.64-11 2.54-3.85 8.69-11.06 13.64-16.02 4.96-4.96 12.17-11.1 16.02-13.65 3.85-2.55 10.15-6.21 14-8.12 3.85-1.92 11.05-4.86 16-6.54 4.95-1.67 13.27-3.7 18.5-4.51 5.34-0.82 17.17-1.51 27-1.56zm2091.5 0.38c15.02 0.25 25.43 0.9 30 1.87 3.85 0.81 9.47 2.18 12.5 3.03 3.03 0.86 6.4 1.99 7.5 2.52 1.1 0.53 5.38 2.49 9.5 4.35 4.13 1.87 10.43 5.34 14 7.71 3.57 2.37 8.89 6.39 11.81 8.93 2.92 2.53 8.16 7.99 11.64 12.11 3.49 4.13 8.78 11.78 11.78 17 2.99 5.23 6.37 12.2 7.52 15.5 1.14 3.3 2.83 8.48 3.75 11.5 0.91 3.03 2.41 10 3.33 15.5 1.1 6.64 1.66 15.87 1.66 27.5 0 12-0.55 20.8-1.75 28-0.97 5.78-2.69 13.42-3.84 17-1.14 3.58-2.75 8.08-3.56 10-0.82 1.92-2.64 5.75-4.06 8.5-1.41 2.75-4.96 8.38-7.88 12.5-2.93 4.13-8.6 10.7-12.61 14.62-4.01 3.91-10.89 9.7-15.29 12.87-4.4 3.16-10.93 7.18-14.5 8.92-3.57 1.74-9.43 4.22-13 5.51-3.57 1.29-11 3.43-16.5 4.76-5.5 1.33-15.4 2.75-22 3.17-6.6 0.42-18.07 0.45-25.5 0.07-7.43-0.37-16.87-1.44-21-2.38-4.12-0.94-11.32-2.86-16-4.26-4.68-1.41-12.1-4.36-16.5-6.55-4.4-2.19-11.32-6.29-15.39-9.11-4.06-2.81-11.94-9.87-17.5-15.67-6.54-6.82-11.86-13.53-15.07-19-2.73-4.65-6.25-11.6-7.81-15.45-1.56-3.85-3.91-10.83-5.22-15.5-1.31-4.67-2.97-13.22-3.69-19-0.72-5.77-1.31-14.55-1.31-19.5-0.01-4.95 0.55-13.61 1.24-19.25 0.69-5.64 2.18-13.74 3.31-18 1.13-4.26 2.55-9.1 3.15-10.75 0.6-1.65 2.44-6.15 4.09-10 1.66-3.85 4.36-9.25 6.01-12 1.66-2.75 5.7-8.37 9-12.5 3.29-4.12 8.68-9.97 11.97-13 3.28-3.02 8.36-7.3 11.28-9.5 2.92-2.2 9.05-5.89 13.63-8.2 4.57-2.31 9.88-4.83 11.81-5.61 1.93-0.77 7.1-2.4 11.5-3.62 4.4-1.22 11.82-2.84 16.5-3.6 6.12-1 14.95-1.28 31.5-0.99zm-17 60.38c-1.1 0.44-5.1 2.34-8.9 4.22-4.73 2.35-8.43 5.15-11.77 8.92-2.67 3.03-4.85 6.06-4.85 6.75 0.01 0.69-0.32 1.24-0.73 1.23-0.41-0.02-1.43 1.79-2.25 4.02-0.82 2.23-1.84 4.04-2.25 4.02-0.41-0.01-1.02 1.67-1.34 3.73-0.33 2.06-0.89 4.2-1.25 4.75-0.35 0.55-0.75 1.9-0.88 3-0.13 1.1-0.73 5.6-1.34 10-0.66 4.82-0.85 13.57-0.47 22 0.34 7.7 1.05 14.56 1.58 15.25 0.52 0.69 0.73 2.15 0.45 3.25-0.28 1.1-0.16 2.17 0.25 2.38 0.41 0.2 1.07 1.89 1.47 3.75 0.4 1.85 2.58 6.97 4.84 11.37 2.27 4.4 5.99 9.92 8.28 12.26 2.29 2.35 4.5 4.26 4.91 4.25 0.41 0 2.89 1.35 5.5 3 2.61 1.66 6.94 3.35 9.61 3.75 2.68 0.41 5.04 1.08 5.25 1.49 0.22 0.41 3.45 0.75 7.19 0.75 3.74 0 7.23-0.38 7.75-0.84 0.52-0.46 3.54-1.36 6.7-2 3.16-0.64 5.74-1.5 5.74-1.91-0.01-0.41 1.45-1.34 3.25-2.05 1.79-0.72 5.66-4.09 8.59-7.5 2.92-3.41 6.2-8 7.28-10.2 1.08-2.2 2.47-5.8 3.1-8 0.63-2.2 1.47-4.45 1.88-5 0.4-0.55 1.21-4.37 1.78-8.5 0.57-4.12 1.06-14.7 1.07-23.5 0.01-8.8-0.53-19.08-1.21-22.83-0.68-3.76-1.45-6.6-1.73-6.3-0.28 0.3-0.84-1.12-1.26-3.16-0.42-2.04-1.99-6.18-3.49-9.21-1.51-3.02-3.42-6.24-4.24-7.15-0.83-0.91-2.3-2.83-3.26-4.25-0.96-1.43-4.22-4.18-7.25-6.1-3.03-1.92-6.74-3.79-8.25-4.14-1.51-0.35-3.2-1-3.75-1.44-0.55-0.44-4.6-1.01-9-1.26-4.4-0.25-9.57-0.27-11.5-0.03-1.93 0.24-4.4 0.79-5.5 1.23z"/>
		<path id="Path 3" fill-rule="evenodd" class="s0" d="m1445 630.75c0 0.41 17.53 0.75 38.95 0.75 33.77 0 39 0.2 39.35 1.5 0.23 0.83 0.4 15.23 0.37 32-0.02 16.77 0.27 31.06 0.65 31.75 0.51 0.95 6.51 1.25 24.68 1.25h24v57l-48.5 0.5-0.03 109 0.53-107.5h49v-60l-48.5-0.5-0.43-66.5c-62.05 0-80.07 0.34-80.07 0.75zm-18.75 65.98l-18.25 0.27 0.5 59.5c32.72 0.49 35.18 0.75 36.38 2.26 1.32 1.65 1.36 1.65 0.75-0.01-0.34-0.96-0.63-2.2-0.63-2.75 0-0.63-6.5-1-17.5-1h-17.5v-57c27.36 0 34.18-0.39 34.46-1 0.26-0.55 0.37-0.9 0.25-0.77-0.11 0.12-8.42 0.35-18.46 0.5zm-699.87 3.52c0.38 1.79 1.36 4.6 2.18 6.25 0.81 1.65 1.49 3.45 1.5 4 0 0.55 0.88 2.8 1.94 5 1.06 2.2 1.95 4.67 1.97 5.5 0.02 0.83 0.64 2.62 1.36 4 0.73 1.37 1.97 4.87 2.75 7.76 0.78 2.9 1.76 5.26 2.17 5.25 0.41 0 0.75-0.46 0.75-1.01 0-0.55-2.31-7.19-5.14-14.75-2.83-7.56-5.92-16-6.87-18.75-1.23-3.57-1.4-5.21-0.6-5.73 0.67-0.45 0.36-0.75-0.79-0.75-1.63-0.02-1.81 0.46-1.22 3.23zm15.62-2.5c6.87 0.17 18.58 0.17 26 0 7.42-0.17 1.8-0.31-12.5-0.31-14.3 0-20.38 0.14-13.5 0.31zm46.5-0.01c2.75 0.2 6.8 0.2 9-0.01 2.2-0.21-0.05-0.38-5-0.38-4.95 0.01-6.75 0.18-4 0.39zm122.12 2.51c-0.33 1.79-0.37 3.48-0.1 3.75 0.28 0.27 0.84-0.97 1.24-2.77l0.74-3.28c67.23 0.04 81.5 0.4 81.5 1.05 0 0.55 0.45 1 1 1 0.55 0 1-0.67 1-1.5 0-1.31-5.38-1.5-42.39-1.5h-42.4zm691.62 78.7c0.17 52.94 0.62 82.3 1.26 82.95q1 1 1-81.95c0-66.29-0.25-82.95-1.26-82.95-1.02 0-1.22 16.32-1 81.95zm55.51-81.23l25.25 0.28c0.28 124.05 0.54 138.55 1.06 123.5 0.41-11.55 0.64-44.17 0.51-72.5l-0.22-51.5-51.85-0.05zm105.24 73.02c0 40.57-0.24 75.55-0.52 77.75-0.49 3.76-0.44 3.85 0.76 1.5 0.99-1.94 1.33-19.02 1.52-77.25l0.25-74.75h79c0.39 83.32 0.45 116.5 0.39 127.5-0.07 11-0.18 41.94-0.25 68.75l-0.14 48.75-75.25-0.5c-0.23-33.12-0.48-36.01-1.75-36.22-0.9-0.15-3.47 2.75-6.5 7.34-2.75 4.17-8 10.35-11.67 13.74-3.67 3.38-10.19 8.03-14.5 10.34-4.3 2.31-12.33 5.45-17.83 6.97-9.03 2.51-11.5 2.77-25.5 2.7-13.57-0.06-16.74-0.41-25.5-2.78-5.5-1.48-13.03-4.25-16.75-6.14-3.71-1.9-6.75-3-6.75-2.45 0 0.55 2.59 2.17 5.75 3.6 3.17 1.43 7.1 3.18 8.75 3.9 1.65 0.71 5.03 1.62 7.5 2.01 2.48 0.4 5.14 1.23 5.91 1.86 0.94 0.76 8 1.13 21.59 1.13 13.4 0 20.67-0.37 21.6-1.12 0.77-0.61 3.2-1.43 5.4-1.81 2.2-0.37 8.05-2.66 13-5.08 4.95-2.41 11.48-6.5 14.5-9.07 3.03-2.57 8.09-7.66 11.25-11.3 3.16-3.64 5.75-7.18 5.75-7.87 0-0.68 0.45-1.25 1-1.25 0.55 0 1.33-1.01 1.72-2.25 0.4-1.23 0.85 6.42 1 17l0.28 19.25 77.5 0.01c1.26-34.49 1.86-75.78 2.13-114.01 0.28-38.22 0.25-84.01-0.06-101.75l-0.57-32.25h-83zm411.01 50.25v124h82v-248h-82zm-1181.26-118.89c-0.37 0.77-1.36 3.42-2.2 5.89-0.85 2.48-2.92 8.55-4.59 13.5-1.68 4.95-2.81 9.23-2.51 9.5 0.29 0.28 0.99-0.73 1.55-2.25 0.56-1.51 1.01-3.42 1.01-4.25 0-0.82 0.45-1.72 1-2 0.55-0.27 1.52-2.86 2.15-5.75 0.63-2.88 1.44-5.47 1.8-5.75 0.36-0.27 1.12-2.45 1.7-4.84 0.57-2.4 0.98-4.6 0.89-4.9-0.08-0.3-0.44 0.08-0.8 0.85zm-179.39 4.64c0.3 0.97 1.01 3.67 1.6 6 0.58 2.34 1.5 4.03 2.05 3.75 0.6-0.3 0.65-1 0.12-1.75-0.49-0.68-1.13-3.16-1.41-5.5-0.29-2.33-1.06-4.25-1.71-4.25-0.66 0-0.95 0.77-0.65 1.75zm95.43-1.06c-0.33 0.45-0.97 2.56-1.43 4.69-0.47 2.13-1.18 4.04-1.6 4.25-0.41 0.2-0.75 0.82-0.75 1.37 0 0.55 0.45 1 1 1 0.55 0 1.62-2.51 2.36-5.57 0.75-3.07 1.28-5.8 1.18-6.07-0.1-0.27-0.44-0.12-0.76 0.33zm-91.27 15.31c0.4 1.93 1.15 4.18 1.67 5q0.94 1.51 0.3-2.5c-0.35-2.2-1.09-4.45-1.66-5-0.7-0.68-0.8 0.11-0.31 2.5zm87.31-2.5c-0.3 0.55-0.88 2.8-1.27 5-0.4 2.2-1.09 4.45-1.53 5-0.44 0.55-1.35 3.7-2.02 7-0.66 3.3-1.55 6.45-1.97 7-0.42 0.55-1.34 3.48-2.05 6.5-0.71 3.03-1.63 6.18-2.06 7-0.43 0.83-1.27 3.75-1.87 6.5-0.6 2.75-0.97 5.1-0.82 5.23 0.15 0.12 0.88-1.68 1.63-4 0.74-2.33 1.94-6.03 2.66-8.23 0.71-2.2 2.44-7.82 3.83-12.5 1.39-4.67 3.5-11.87 4.67-16 1.18-4.12 1.97-7.95 1.75-8.5q-0.39-1-0.95 0zm-83.36 16.1c0.34 1.6 1.32 5.38 2.19 8.4 0.86 3.03 2.4 8.2 3.41 11.5 1.01 3.3 2.33 8.03 2.93 10.5 0.6 2.48 1.34 4.28 1.63 4 0.29-0.27-0.01-2.97-0.67-6-0.66-3.02-1.53-5.95-1.93-6.5-0.39-0.55-1.35-3.86-2.12-7.37-0.77-3.5-1.73-6.54-2.15-6.75-0.41-0.21-1.08-2.46-1.5-5-0.41-2.54-1.12-4.85-1.57-5.15-0.46-0.29-0.56 0.78-0.22 2.37zm155.83 11.12c-0.63 1.53-2.26 5.71-3.63 9.28-1.37 3.58-3.41 9.2-4.54 12.5-1.12 3.3-3.64 10.5-5.59 16-1.95 5.5-3.54 10.12-3.54 10.25 0.01 0.14 0.46 0.25 1.01 0.25 0.55 0 1.28-1.46 1.61-3.25 0.33-1.78 1.19-4.6 1.9-6.25 0.71-1.65 2.51-6.6 4.01-11 1.5-4.4 3.31-9.35 4.03-11 0.71-1.65 1.63-4.35 2.03-6 0.4-1.65 1.04-3.22 1.41-3.5 0.38-0.27 1.14-2.51 1.7-4.96 0.57-2.46 0.96-4.61 0.88-4.79-0.09-0.17-0.66 0.94-1.28 2.47zm-386.29 2.23c-2.47 0.47-6.97 1.83-10 3.02-3.02 1.2-5.95 2.61-6.5 3.14-0.55 0.53 1.7-0.14 5-1.49 3.3-1.35 9.15-3 13-3.67 4.03-0.7 9.77-0.94 13.5-0.57 3.58 0.35 7.63 0.87 9 1.16l2.5 0.52c-3.87-1.7-8.82-2.37-13.5-2.58-4.67-0.2-10.52 0.01-13 0.47zm153.69 1.55c0.34 1.65 1.05 4.13 1.58 5.5 0.54 1.38 1.14 1.94 1.35 1.25 0.21-0.68-0.5-3.16-1.57-5.5-1.58-3.43-1.84-3.67-1.36-1.25zm-121.69 3.12c3.19 1.5 7.79 4.97 10.94 8.24 2.98 3.1 4.95 4.74 4.36 3.64-0.59-1.1-3.15-3.91-5.68-6.25-2.54-2.33-6.42-5.15-8.62-6.25-2.2-1.1-4.56-1.99-5.25-1.99-0.68 0.01 1.23 1.18 4.25 2.61zm1375.5 0.38c-1.94 0.5 0.69 0.77 7.5 0.79 6.65 0.01 9.59-0.28 8-0.79-1.37-0.44-4.75-0.79-7.5-0.78-2.75 0.01-6.35 0.36-8 0.78zm409.5-0.09c-1.37 0.39 2.78 0.68 9.22 0.65 6.44-0.03 10.94-0.36 10-0.74-0.94-0.37-5.09-0.66-9.22-0.65-4.12 0.02-8.62 0.35-10 0.74zm-418.67 2.42c-1.75 0.65-3.55 1.58-4 2.08-0.49 0.54-0.01 0.61 1.17 0.18 1.1-0.4 3.3-1.03 4.88-1.41 1.58-0.37 2.95-1.01 3.04-1.43 0.09-0.41-0.3-0.71-0.87-0.67-0.58 0.04-2.48 0.6-4.22 1.25zm28.27-0.48c0.22 0.63 1.42 1.16 2.65 1.17 1.24 0.01 4.05 0.88 6.25 1.94 2.2 1.07 6.7 4.61 10 7.88 3.47 3.44 7.36 8.63 9.23 12.3 1.77 3.5 3.57 7.84 4 9.64 0.42 1.8 1.11 3.26 1.52 3.25 0.42-0.02 0.47-1.26 0.12-2.78-0.35-1.51-2.26-6.12-4.25-10.25-2.35-4.87-5.55-9.42-9.14-13-3.05-3.02-7.55-6.49-10.01-7.71-2.45-1.21-5.89-2.52-7.62-2.9-2.21-0.49-3.04-0.35-2.75 0.46zm381.9 0.38c-1.65 0.58-5.43 2.68-8.41 4.67-2.98 1.98-7.14 5.63-9.24 8.1-2.11 2.48-5.35 7.65-7.22 11.5-1.87 3.85-3.75 8.58-4.18 10.5-0.59 2.59-0.49 3.31 0.38 2.75 0.65-0.41 1.4-2.55 1.67-4.75 0.28-2.2 0.84-3.99 1.25-3.97 0.42 0.01 1.43-1.8 2.25-4.03 0.83-2.22 1.84-4.03 2.25-4.02 0.42 0.01 0.75-0.54 0.74-1.23-0.01-0.68 2.18-3.72 4.87-6.75 2.9-3.27 7.36-6.81 11.01-8.75 3.37-1.78 6.81-3.25 7.63-3.25 0.83 0 1.64-0.45 1.8-1 0.16-0.55-0.18-0.96-0.75-0.92-0.58 0.05-2.4 0.56-4.05 1.15zm30.96-0.62c0.17 0.49 1.71 1.23 3.42 1.64 1.72 0.42 5.6 2.33 8.62 4.25 3.03 1.93 6.29 4.67 7.25 6.1 0.97 1.43 2.43 3.34 3.26 4.25 0.83 0.91 2.73 4.13 4.22 7.15 1.48 3.03 3.06 6.98 3.49 8.78 0.43 1.8 1.12 3.26 1.53 3.25 0.42-0.02 0.46-1.26 0.11-2.78-0.35-1.51-2.22-5.9-4.15-9.75-1.93-3.85-5.87-9.47-8.75-12.5-2.89-3.02-7.21-6.48-9.6-7.68-2.4-1.2-5.56-2.5-7.03-2.89-1.47-0.4-2.53-0.32-2.37 0.18zm-1863.64 5.14c-2.8 2.62-6.15 6.44-7.45 8.5-1.3 2.07-2.37 4.09-2.37 4.5 0 0.42 1.5-1.5 3.34-4.25 1.83-2.75 5.55-6.91 8.25-9.24 2.7-2.33 4.56-4.25 4.12-4.25-0.44 0-3.09 2.13-5.89 4.74zm181.43-0.75c0.29 0.83 0.81 3.19 1.15 5.25 0.33 2.07 0.94 3.75 1.35 3.74 0.42-0.01 1.32 2.24 2 5 0.69 2.76 1.7 5.24 2.25 5.51 0.55 0.28 1 1.18 1 2 0 0.83 0.46 2.74 1.02 4.25 0.56 1.52 1.23 2.42 1.5 2 0.27-0.41-1.6-6.71-4.15-14-2.55-7.28-5.09-13.7-5.65-14.25q-1.01-1-0.47 0.5zm1231.18 1.81c-2.16 1.55-5.65 4.82-7.76 7.26-2.1 2.44-4.72 6.23-5.82 8.43-1.09 2.2-2.83 6.25-3.86 9-1.03 2.75-2.21 6.8-2.62 9-0.46 2.45-0.38 3.76 0.19 3.37 0.52-0.35 1.27-2.83 1.67-5.5 0.39-2.68 1.07-5.24 1.5-5.7 0.42-0.46 0.77-1.14 0.77-1.51 0-0.38 1.58-3.76 3.5-7.51 2.11-4.09 5.7-8.92 9-12.07 3.03-2.88 6.18-5.48 7-5.77 0.83-0.29 1.24-0.82 0.93-1.18-0.32-0.35-2.35 0.63-4.5 2.18zm-1089.65 8.88c-0.33 0.45-0.86 2.5-1.18 4.56-0.33 2.07-0.37 3.75-0.1 3.75 0.28 0 0.9-1.84 1.38-4.1 0.48-2.25 0.78-4.31 0.68-4.56-0.11-0.26-0.46-0.1-0.78 0.35zm-57.54 2.06c0.29 0.97 1.75 5.8 3.24 10.75 1.49 4.95 3.68 12.26 4.87 16.24 1.18 3.98 2.29 7.13 2.46 7 0.16-0.13-0.22-2.94-0.86-6.24-0.64-3.3-1.5-6.45-1.92-7-0.42-0.55-1.33-3.47-2.03-6.5-0.69-3.02-1.6-5.95-2.01-6.5-0.42-0.55-1-2.91-1.28-5.25-0.31-2.43-1.06-4.25-1.77-4.25-0.72 0-1.01 0.74-0.7 1.75zm-185.44 16.03l0.7 5.27-95-0.55c0.32-6.18 0.14-6.59-0.57-5.25-0.51 0.97-0.81 2.77-0.68 4l0.25 2.25h96c0.73-5.78 0.41-8.26-0.24-9.23-0.94-1.41-1.03-0.7-0.46 3.51zm238.98-4.09c-0.33 0.45-0.91 2.61-1.31 4.81-0.4 2.2-1.05 4.45-1.45 5-0.4 0.55-1.24 3.14-1.87 5.75-0.63 2.62-1.16 5.32-1.17 6-0.02 0.69 0.18 1.03 0.45 0.75 0.26-0.27 1.78-5.37 3.38-11.34 1.6-5.96 2.83-11.05 2.73-11.31-0.1-0.27-0.44-0.11-0.76 0.34zm-127.01 5.55c0.7 0.69 1.28 1.94 1.29 2.76 0 0.83 0.88 3.3 1.94 5.5 1.07 2.2 1.95 4.68 1.98 5.5 0.02 0.83 0.62 2.63 1.34 4 0.71 1.38 1.95 4.7 2.74 7.38 0.79 2.68 1.78 5.04 2.19 5.25 0.42 0.21 0.75-0.08 0.75-0.63 0-0.55-2.2-6.96-4.9-14.25-2.7-7.28-5.17-14.03-5.5-15-0.33-0.96-1.16-1.75-1.85-1.76-0.99-0.02-0.98 0.24 0.02 1.25zm1704.83 7.26c0.36 2.75 1.07 5.68 1.58 6.5 0.61 0.97 0.7-0.26 0.28-3.5-0.35-2.75-1.06-5.67-1.58-6.5-0.6-0.97-0.7 0.27-0.28 3.5zm-410.81 3c0.39 3.85 0.71 13.08 0.71 20.5 0 7.43-0.31 16.88-0.7 21-0.57 6.16-0.49 7.05 0.48 5 0.81-1.7 1.19-10.01 1.21-26 0.01-16.66-0.34-24.08-1.2-25.5-0.98-1.62-1.08-0.69-0.5 5zm315.83-3.78c-0.49 0.98-1.1 9.43-1.37 18.78-0.29 10.29-0.04 19.77 0.65 24 0.62 3.85 1.35 7.23 1.61 7.5 0.27 0.28 0.83 0.16 1.24-0.26 0.42-0.42 0.08-1.95-0.75-3.4-1.19-2.1-1.49-6.62-1.47-22.24 0.02-14.15 0.39-20.29 1.33-22.1 0.72-1.37 0.94-2.85 0.48-3.28-0.46-0.44-1.23 0.01-1.72 1zm-1412.32 8.01c-1.73 4.83-3.48 9.9-3.9 11.27-0.46 1.5-0.39 2.25 0.17 1.88 0.51-0.34 1.57-2.82 2.34-5.5 0.77-2.68 1.74-5.33 2.15-5.88 0.41-0.55 1.19-2.95 1.72-5.35 0.54-2.39 0.9-4.54 0.82-4.77-0.08-0.23-1.57 3.53-3.3 8.35zm1001.35-0.73c-0.37 1.93-0.62 10.25-0.56 18.5 0.06 8.25 0.43 16.13 0.82 17.5l0.71 2.5c0.96-3.87 0.82-6.01 0.31-7.25-0.51-1.23-0.93-7.42-0.93-13.75 0-6.32 0.45-12.62 1-14 0.59-1.45 0.65-3.43 0.16-4.75-0.78-2.07-0.9-1.97-1.51 1.25zm507.48 16.5c0.01 8.25-0.47 18.38-1.05 22.5-0.58 4.13-0.87 7.73-0.63 8 0.23 0.28 0.66-0.4 0.94-1.5 0.28-1.1 1.24-7.4 2.14-14 1.05-7.75 1.4-14.65 0.99-19.5-0.35-4.12-1.03-8.17-1.52-9-0.52-0.9-0.87 4.47-0.87 13.5zm-1621.56-9.75c0.34 1.52 1.06 4.33 1.6 6.25 0.54 1.93 1.17 3.28 1.39 3 0.23-0.27 0-3.08-0.51-6.25-0.51-3.16-1.41-5.75-2.01-5.75-0.67 0-0.85 1.06-0.47 2.75zm33.98 1.5c-0.37 2.34-1.1 4.82-1.61 5.5-0.59 0.79-0.56 1.44 0.06 1.75 0.55 0.28 1.68-1.86 2.51-4.75 0.83-2.88 1.51-5.58 1.5-6 0-0.41-0.41-0.75-0.89-0.75-0.49 0-1.2 1.92-1.57 4.25zm72.97 8c-0.25 0.69-1.07 3.05-1.84 5.25-0.77 2.2-3.49 9.59-6.04 16.43-2.54 6.83-4.63 12.79-4.63 13.25 0 0.45-0.63 2.29-1.4 4.07-0.77 1.79-3.47 8.99-6 16-2.53 7.02-4.61 13.2-4.61 13.75 0 0.55 0.45 0.78 1 0.5 0.55-0.27 1.28-1.96 1.62-3.75 0.34-1.78 1.46-5.16 2.5-7.5 1.04-2.33 1.88-4.7 1.88-5.25 0-0.55 0.61-2.46 1.36-4.25 0.74-1.78 2.31-5.72 3.48-8.75 1.17-3.02 2.48-6.97 2.9-8.77 0.42-1.8 0.99-3.25 1.26-3.23 0.28 0.02 1.18-2.45 2-5.5 0.83-3.04 1.84-5.53 2.25-5.52 0.42 0.01 1.01-1.66 1.33-3.73 0.31-2.06 1.15-4.65 1.86-5.75 0.71-1.1 1.57-3.46 1.91-5.25 0.34-1.78 0.39-3.25 0.11-3.25-0.28 0-0.7 0.57-0.94 1.25zm-102.96 3.88c0.33 1.85 1.01 4.84 1.52 6.62 0.51 1.79 1.37 3.25 1.92 3.25 0.55 0 1-0.45 1-1 0-0.55-0.33-1.17-0.75-1.38-0.41-0.21-1.08-2.46-1.5-5-0.41-2.54-1.2-4.9-1.76-5.24-0.64-0.4-0.8 0.59-0.43 2.75zm27.34-2.35c-0.25 0.5-0.89 2.84-1.43 5.19-0.53 2.35-1.3 4.44-1.72 4.65-0.41 0.21-0.75 0.83-0.75 1.38 0 0.55 0.34 1.02 0.75 1.03 0.42 0.02 1.48-2.72 2.37-6.09 0.89-3.36 1.53-6.33 1.43-6.59-0.11-0.27-0.4-0.07-0.65 0.43zm-103.47 2.72c0.39 1.65 1.36 4.35 2.16 6 0.8 1.65 1.45 3.34 1.44 3.75-0.02 0.42 0.84 2.67 1.89 5 1.05 2.34 2.24 5.6 2.64 7.25 0.4 1.65 1.05 3.45 1.44 4 0.4 0.55 1.05 2.35 1.44 4 0.4 1.65 1.32 4.35 2.06 6 0.73 1.65 1.9 4.8 2.59 7 0.69 2.2 1.86 5.13 2.58 6.5 0.73 1.38 1.33 3.29 1.33 4.25 0 0.97 0.34 1.92 0.75 2.13 0.42 0.2 1.39 2.57 2.16 5.25 0.77 2.68 1.73 5.32 2.12 5.87 0.39 0.55 1.26 2.8 1.93 5 0.67 2.2 1.85 5.47 2.63 7.25 0.78 1.79 1.43 3.82 1.45 4.5 0.02 0.69 0.9 3.05 1.96 5.25 1.07 2.2 1.95 4.79 1.97 5.75 0.02 0.97 0.37 1.92 0.78 2.13 0.42 0.2 1.39 2.57 2.17 5.25 0.78 2.68 2.02 5.77 2.76 6.87 0.74 1.1 1.34 2.57 1.33 3.25 0 0.69 0.78 3.06 1.74 5.26l1.75 4 89.5-0.01c2.03-3.48 3.2-6.52 3.91-9 0.72-2.47 1.63-4.95 2.04-5.5 0.41-0.55 1.34-3.25 2.08-6 0.73-2.75 1.6-5.22 1.94-5.5 0.34-0.27 1.13-2.07 1.75-4 0.63-1.92 1.87-5.52 2.75-8 0.89-2.47 1.45-4.95 1.25-5.5-0.2-0.55-1.09 1.03-1.97 3.5-0.87 2.48-2.56 6.98-3.75 10-1.19 3.03-3.85 10.45-5.92 16.5l-3.75 11h-89.5c-6.84-17.82-11.14-29.52-13.96-37.5-2.82-7.97-5.7-15.85-6.4-17.5-0.7-1.65-5.65-14.92-11.01-29.5-5.36-14.57-10.47-28.6-11.35-31.17-0.88-2.56-2.01-5.04-2.5-5.5-0.51-0.48-0.59 0.43-0.18 2.17zm79.66 11.19c-0.07 0.45 1.92 7.56 4.43 15.81 2.5 8.25 4.88 15.36 5.27 15.79 0.39 0.44 1.21 0.22 1.82-0.5 0.61-0.71 1.57-3.09 2.15-5.29 0.57-2.2 2.43-8.72 4.14-14.5 1.7-5.77 3.1-10.83 3.1-11.25 0-0.41-0.33-0.58-0.75-0.37-0.41 0.21-1.12 2.12-1.58 4.25-0.47 2.13-1.21 4.32-1.65 4.87-0.44 0.55-1.36 3.7-2.04 7-0.68 3.3-1.6 6.68-2.05 7.5-0.44 0.83-1.12 2.85-1.51 4.5l-0.71 3c-1.71-5.42-2.49-7.45-2.84-8-0.36-0.55-1.19-3.7-1.86-7-0.67-3.3-1.58-6.45-2.02-7-0.45-0.55-1.18-2.74-1.65-4.87-0.46-2.13-1.13-4.07-1.48-4.31-0.36-0.24-0.71-0.07-0.77 0.37zm1108.02 9.75c-0.06 0.86 1.02 5.16 2.39 9.56 1.38 4.4 2.95 8.23 3.5 8.5 0.55 0.28 1 0.28 1 0 0-0.27-0.48-1.73-1.07-3.25-0.58-1.51-0.92-2.79-0.75-2.84 0.18-0.06-0.2-0.73-0.83-1.5-0.64-0.77-1.54-3.6-2-6.28-0.47-2.67-1.14-5.06-1.49-5.31-0.36-0.24-0.7 0.27-0.75 1.12zm-274.66 7.56c0.38 2.48 1.12 5.18 1.65 6q0.95 1.51 0.31-3.5c-0.35-2.75-1.09-5.45-1.65-6-0.68-0.67-0.78 0.47-0.31 3.5zm685.66-3.06c-0.06 0.59 0.94 4.1 2.22 7.81 1.27 3.72 4.08 9.41 6.25 12.66 2.16 3.25 5.95 7.6 8.42 9.67 2.48 2.06 6.98 4.9 10 6.29 3.03 1.4 7.53 2.88 10 3.29 2.79 0.46 4.26 0.38 3.87-0.21-0.35-0.52-2.83-1.28-5.5-1.68-2.68-0.41-7-2.1-9.62-3.75-2.61-1.66-5.08-3.01-5.5-3-0.41 0.01-2.62-1.91-4.9-4.25-2.29-2.35-5.95-7.64-8.14-11.77-2.19-4.12-4.37-9.24-4.84-11.37-0.48-2.13-1.16-4.07-1.51-4.31-0.36-0.24-0.7 0.04-0.75 0.62zm-319.56 0.67c-0.48 0.4-0.8 1.55-0.71 2.56 0.09 1.01-0.36 3.07-1 4.58-0.64 1.52-1.25 2.98-1.34 3.25-0.1 0.28-0.92 2.19-1.84 4.25-0.91 2.07-2.11 3.75-2.66 3.75-0.55 0-0.99 0.57-0.98 1.25 0 0.69-2.36 3.58-5.25 6.42-2.9 2.84-7.4 6.33-10.02 7.75-2.61 1.42-7.11 2.87-10 3.22-2.88 0.35-5.92 1.05-6.75 1.56-0.97 0.6 0.52 0.73 4.25 0.37 3.17-0.31 8.34-1.78 11.5-3.27 3.34-1.57 8.32-5.24 11.86-8.75 3.46-3.43 7.4-8.64 9.11-12.05 1.66-3.3 3.56-7.8 4.23-10 0.67-2.2 1.05-4.36 0.85-4.81-0.2-0.45-0.76-0.48-1.25-0.08zm411.01 2.64c-0.22 0.69-0.88 2.83-1.46 4.75-0.58 1.93-1.93 5.3-3 7.5-1.07 2.2-4.34 6.79-7.27 10.2-2.93 3.41-6.79 6.79-8.59 7.5-1.79 0.72-3.26 1.64-3.25 2.05 0.01 0.42-2.57 1.27-5.74 1.91-3.16 0.64-6.2 1.59-6.75 2.12-0.64 0.62 0.43 0.72 3 0.28 2.2-0.37 6.7-1.91 10-3.43 3.71-1.69 8.02-4.83 11.28-8.19 3.08-3.16 6.69-8.36 8.64-12.44 1.85-3.85 3.62-8.46 3.95-10.25 0.33-1.78 0.37-3.25 0.09-3.25-0.28 0-0.68 0.57-0.9 1.25zm-700.99 2c-0.21 0.69-0.88 2.83-1.47 4.75-0.59 1.93-0.87 3.73-0.6 4 0.26 0.28 0.96-0.85 1.55-2.5 0.59-1.65 1.27-4.01 1.51-5.25 0.25-1.23 0.21-2.25-0.08-2.25-0.29 0-0.7 0.57-0.91 1.25zm-73.04 8c0.38 1.24 1.51 3.6 2.49 5.25 0.98 1.65 3.74 4.78 6.13 6.94 2.4 2.17 6.83 5.08 9.85 6.47 4.85 2.23 6.86 2.53 17 2.56 11.19 0.03 11.69-0.06 18.42-3.47 4.67-2.36 8.49-5.28 11.77-9 2.66-3.02 4.85-5.95 4.86-6.5 0-0.55-2.48 1.82-5.52 5.25-3.04 3.44-6.2 6.25-7.03 6.25-0.82 0-1.61 0.34-1.75 0.75-0.13 0.42-2.27 1.71-4.75 2.89-2.47 1.17-7.08 2.41-10.25 2.75-3.16 0.34-8.78 0.18-12.5-0.35-3.71-0.53-9-2.05-11.75-3.38-2.75-1.33-7.06-4.61-9.59-7.29-2.89-3.06-4.78-6.07-5.09-8.12-0.28-1.78-1.07-3.25-1.75-3.25q-1.26 0-0.54 2.25zm278.48 2.25c-0.03 0.55 1.27 3.03 2.87 5.5 1.61 2.48 4.88 6.28 7.27 8.44 2.4 2.17 7.05 5.21 10.35 6.75 3.3 1.55 8.48 3.07 11.5 3.38 3.59 0.37 4.98 0.24 4-0.37-0.82-0.51-3.75-1.22-6.5-1.58-2.75-0.36-7.13-1.77-9.75-3.14-2.61-1.36-7.21-4.84-10.23-7.73-3.01-2.88-5.5-5.7-5.52-6.25-0.02-0.55-0.92-2.12-2-3.5-1.07-1.37-1.97-2.05-1.99-1.5zm-361.46 7.75c0.25 4.27 0.89 8.54 1.42 9.5 0.89 1.6 0.97 1.58 0.94-0.25-0.02-1.1-0.66-5.37-1.43-9.5l-1.39-7.5zm-79.44-4.81c-0.06 0.86 0.53 2.8 1.31 4.31 0.77 1.52 2.69 3.94 4.25 5.39 1.56 1.45 4.41 3.47 6.34 4.5 3.05 1.63 5.49 1.83 19.25 1.61l15.75-0.25c0 49.34 0.35 60 1 60 0.64 0 1-11 1-31 0-23.91-0.29-31.09-1.25-31.41-0.69-0.23-1.93-0.01-2.75 0.48-0.83 0.5-7.58 0.92-15 0.93-9.6 0.03-13.87-0.33-14.77-1.23-0.7-0.7-1.26-0.93-1.25-0.52 0.01 0.42-1.87-0.26-4.18-1.5-2.3-1.23-5-3.6-5.99-5.25-0.99-1.65-1.76-3.76-1.71-4.69 0.06-0.93-0.35-1.97-0.9-2.31-0.55-0.34-1.05 0.09-1.1 0.94zm-80.54 11.56c-0.45 1.93-0.45 4.4 0 5.5 0.72 1.76 0.86 1.64 1.19-1 0.21-1.65 0.21-4.12 0.01-5.5-0.33-2.24-0.45-2.14-1.2 1zm161.44 6.5c0 0.83 0.45 1.73 1 2 0.55 0.28 1.22 2.3 1.5 4.5 0.27 2.2 0.95 4 1.5 4 0.55 0 0.84-0.56 0.65-1.25-0.19-0.68-0.84-3.38-1.44-6-0.61-2.61-1.58-4.75-2.16-4.75-0.58 0-1.05 0.68-1.05 1.5zm-159.41 7.5c0.34 3.03 1.04 5.95 1.56 6.5 0.6 0.64 0.69-0.65 0.25-3.5-0.38-2.47-1.08-5.4-1.55-6.5-0.53-1.23-0.63 0.1-0.26 3.5zm-522.32-0.28c-0.63 1.53-1.39 3.8-1.71 5.03-0.31 1.24-0.23 2.26 0.19 2.26 0.41 0.01 1.25-2.08 1.86-4.63 0.62-2.56 1.05-4.82 0.96-5.04-0.09-0.22-0.67 0.85-1.3 2.38zm686.73 5.53c0 0.69 1.24 3.74 2.75 6.77 1.51 3.04 4.38 7.77 6.37 10.5 2 2.74 7.06 8.25 11.25 12.23 4.2 3.99 8.19 7.26 8.88 7.26 0.68 0-0.55-1.43-2.75-3.18-2.2-1.76-6.05-5.25-8.54-7.76-2.5-2.51-6.28-7.27-8.41-10.57-2.13-3.3-4.85-8.36-6.05-11.25-1.2-2.88-2.48-5.25-2.84-5.25-0.37 0-0.66 0.57-0.66 1.25zm-161.94 3c-0.03 0.42 0.39 2.78 0.94 5.25 0.55 2.48 1.45 4.5 2 4.5 0.55 0 1 0.57 1.01 1.25 0.01 0.69 1.25 3.02 2.75 5.19 1.51 2.16 4.93 5.98 7.6 8.5 2.68 2.51 6.39 5.69 8.26 7.06 1.86 1.38 3.6 2.28 3.87 2 0.27-0.27-1.64-1.9-4.25-3.61-2.61-1.72-6.83-5.54-9.38-8.5-2.56-2.96-5.99-8.09-7.63-11.39-1.64-3.3-3.46-7.12-4.04-8.5-0.58-1.37-1.09-2.16-1.13-1.75zm37.21 38.5c0.26 0.42 2.22 1.13 4.35 1.59 2.13 0.46 4.44 1.25 5.13 1.75 0.68 0.5 2.03 0.64 3 0.31 1.18-0.42-0.24-1.22-4.45-2.5-3.4-1.05-6.71-1.9-7.35-1.9-0.64 0-0.94 0.34-0.68 0.75zm15.53 4.49c0.99 0.96 8.66 1.26 32 1.24 22.2-0.01 31.25-0.35 32.7-1.23 1.59-0.96-0.43-1.06-10-0.48-6.6 0.4-18.08 0.73-25.5 0.73-7.43 0-17.33-0.34-22-0.76-6.84-0.61-8.25-0.51-7.2 0.5z"/>
		<path id="Path 4" class="s1" d="m597.5 748.72c1.65 0.22 4.8 0.22 7 0.01 2.2-0.22 0.85-0.4-3-0.4-3.85-0.01-5.65 0.17-4 0.39zm462.5 12.23c-1.38 0.43-5.42 1.34-9 2.01-3.58 0.67-8.53 2.14-11 3.26-2.47 1.12-7.42 4.34-11 7.15-3.58 2.82-7.4 6.23-8.5 7.58-1.1 1.36-2.7 3.16-3.55 4.01-0.85 0.85-2.4 2.89-3.44 4.54-1.04 1.65-3.15 5.47-4.69 8.5-1.54 3.02-2.79 6.17-2.79 7 0 0.83-0.42 1.95-0.94 2.5-0.52 0.55-1.49 4.37-2.16 8.5-0.67 4.12-1.22 9.3-1.22 11.5 0 2.2 0.55 7.37 1.22 11.5 0.68 4.12 1.64 7.61 2.15 7.75 0.51 0.14 0.92 0.92 0.92 1.75 0 0.83 1.21 4.09 2.69 7.25 1.48 3.16 4.52 8.4 6.75 11.63 2.23 3.23 6.76 8 10.06 10.6 3.3 2.59 8.03 5.88 10.5 7.32 2.47 1.43 6.53 3.33 9 4.21 2.47 0.88 7.42 2.05 11 2.6 3.58 0.54 8.3 1.24 10.5 1.54 2.2 0.31 5.58 0.1 7.5-0.47 1.92-0.56 6.2-1.45 9.5-1.98 3.3-0.53 8.14-1.91 10.75-3.08 2.61-1.17 5.2-2.12 5.75-2.12 0.55 0 1-0.45 1-1 0-0.55 0.67-1 1.5-1 0.83 0 5.44-3.77 10.25-8.38 7.08-6.77 9.56-9.97 12.98-16.75 2.33-4.6 4.96-10.4 5.85-12.87 1.02-2.85 1.78-9.09 2.07-17 0.28-7.93 0.06-12.96-0.6-13.75-0.58-0.69-0.85-1.59-0.61-2 0.24-0.41-0.22-2.78-1.02-5.25-0.81-2.48-3.12-7.88-5.14-12-2.86-5.85-5.71-9.53-12.97-16.75-5.12-5.09-9.98-9.25-10.81-9.25-0.83 0-1.5-0.45-1.5-1 0-0.55-1.35-1.23-3-1.5-1.65-0.28-3-0.95-3-1.5 0-0.55-3.49-1.68-7.75-2.51-4.26-0.83-9.66-1.95-12-2.5-2.34-0.54-6.16-0.95-8.5-0.91-2.34 0.04-5.37 0.43-6.75 0.87zm-507.66 29.05l0.16 2.5 94 0.03-93.5-0.53c-0.76-4.12-0.8-4.08-0.66-2z"/>
		<path id="Path 5" class="s2" d="m1445.41 632.32c-0.22 0.65-0.52 15.58-0.66 33.18l-0.25 32-34.5 0.5v57c33.5 0 35 0.15 34.99 1.75-0.01 0.96 0.12 30.32 0.28 65.25 0.22 49.06 0.59 64.64 1.62 68.5 0.74 2.75 2.25 7.92 3.36 11.5 1.12 3.57 3.42 8.97 5.12 12 1.71 3.02 5.82 8.2 9.14 11.5 3.43 3.41 8.83 7.42 12.51 9.29 3.57 1.81 10.53 4.4 15.48 5.76 4.95 1.36 14.4 2.97 21 3.59 6.82 0.63 18.04 0.85 26 0.49 7.7-0.34 18.17-0.96 23.26-1.37l9.25-0.76-0.01-59.5c-30.15 0.48-31.84 0.32-35.5-1.62-2.2-1.17-5.46-3.76-7.25-5.75-1.79-2-3.59-4.87-4-6.38-0.41-1.51-0.75-27.73-0.75-58.25v-55.5l48.5-0.5v-57c-42.17 0-48.17-0.3-48.68-1.25-0.38-0.69-0.67-14.98-0.65-31.75 0.03-16.78-0.14-31.18-0.37-32-0.35-1.3-5.65-1.52-38.95-1.68-28.9-0.14-38.64 0.11-38.94 1zm-717.36 65.68c-0.43 0.27 0 2.75 0.95 5.5 0.95 2.75 4.1 11.52 7 19.5 2.9 7.97 5.89 15.96 6.64 17.75 0.75 1.79 1.36 3.59 1.36 4 0.01 0.41 0.97 3.22 2.15 6.25 1.18 3.02 2.71 6.85 3.39 8.5 0.69 1.65 3.14 8.4 5.47 15 2.32 6.6 5.68 15.82 7.46 20.5 1.78 4.67 4.48 12.1 5.99 16.5 1.51 4.4 3.14 8.9 3.62 10 0.47 1.1 1.49 3.8 2.26 6 0.77 2.2 5.77 15.92 11.12 30.5 5.36 14.57 10.31 27.85 11.01 29.5 0.7 1.65 3.58 9.52 6.4 17.5 2.82 7.97 7.11 19.67 9.54 26l4.42 11.5h89.49c5.83-17.05 8.49-24.48 9.68-27.5 1.18-3.03 3.72-9.78 5.64-15 1.92-5.23 4.06-11.3 4.76-13.5 0.7-2.2 2.97-8.73 5.04-14.5 2.08-5.78 4.4-11.96 5.17-13.75 0.76-1.79 1.38-3.59 1.38-4-0.01-0.41 2.08-6.38 4.63-13.25 2.56-6.88 5.28-14.3 6.04-16.5 0.77-2.2 1.81-4.9 2.32-6 0.51-1.1 2.56-6.73 4.56-12.5 2-5.78 5.16-14.78 7.02-20 1.87-5.23 5.17-14.45 7.35-20.5 2.17-6.05 4.91-13.48 6.09-16.5 1.18-3.03 2.56-6.85 3.06-8.5 0.5-1.65 1.35-3.9 1.89-5 0.54-1.1 2.82-7.4 5.08-14 2.25-6.6 4.56-13.58 5.12-15.5 0.57-1.93 1.45-3.95 1.96-4.5 0.51-0.55 0.92-1.56 0.91-2.25-0.02-0.98-8.85-1.25-40.77-1.26l-40.75-0.01c-2.15 7.38-3.59 12.22-4.59 15.52-0.99 3.3-2.76 9.37-3.92 13.5-1.16 4.12-3.25 11.32-4.64 16-1.4 4.67-3.11 10.3-3.82 12.5-0.7 2.2-1.98 6.25-2.83 9-0.85 2.75-2.46 8.15-3.56 12-1.11 3.85-3.44 11.95-5.16 18-1.73 6.05-3.96 13.7-4.95 17-0.99 3.3-4.37 14.77-7.51 25.5-3.14 10.72-6.19 21.3-6.76 23.5-0.58 2.2-1.55 4.58-2.16 5.29-0.6 0.71-1.42 0.94-1.81 0.5-0.38-0.43-2.54-6.87-4.79-14.29-2.25-7.43-4.97-16.54-6.04-20.25-1.08-3.71-2.92-10.01-4.09-14-1.18-3.99-2.94-9.95-3.92-13.25-0.98-3.3-2.77-9.38-3.97-13.5-1.2-4.13-3.29-11.1-4.66-15.5-1.37-4.4-3.63-11.83-5.02-16.5-1.39-4.68-2.9-9.85-3.35-11.5-0.46-1.65-1.95-7.05-3.32-12-1.37-4.95-3.15-11.25-3.96-14-0.81-2.75-2.68-9.05-4.14-14-1.47-4.95-2.91-9.23-3.19-9.5-0.28-0.28-18.73-0.5-41.01-0.5-22.28 0-40.86 0.22-41.28 0.5zm876.79-0.4c-0.32 0.49-0.46 38.92-0.31 85.4 0.18 57.75 0.63 86.87 1.43 92 0.63 4.12 2.02 10.42 3.08 14 1.06 3.57 3.23 9.2 4.81 12.5 1.58 3.3 4.59 8.7 6.69 12 2.09 3.3 6.43 8.59 9.63 11.75 3.21 3.16 8.19 7.27 11.08 9.13 2.89 1.85 7.95 4.52 11.25 5.91 3.3 1.4 10.05 3.57 15 4.82 7.37 1.87 11.71 2.29 24 2.3 13.34 0.02 16.11-0.29 25-2.75 5.5-1.52 13.52-4.65 17.83-6.96 4.3-2.31 10.83-6.97 14.5-10.35 3.67-3.38 8.92-9.56 11.67-13.74 3.02-4.59 5.59-7.49 6.5-7.33 1.26 0.21 1.52 3.09 1.62 18.24l0.13 17.98 75.25 0.5c0.21-75.56 0.32-106.5 0.38-117.5 0.07-11 0.01-44.19-0.13-73.75l-0.25-53.75h-79c-0.57 148.85-0.59 149.56-2.78 156-1.21 3.57-2.84 7.85-3.62 9.5-0.78 1.65-3.41 5.25-5.85 8-2.83 3.19-6.94 6.27-11.34 8.5-6.71 3.4-7.25 3.5-18.41 3.5-10.85 0-11.87-0.18-18-3.14-4.01-1.94-8.22-5.02-11-8.05-2.82-3.08-5.39-7.31-6.9-11.36-1.32-3.55-2.76-9.83-3.2-13.95-0.43-4.13-0.82-39.34-0.85-78.25l-0.05-70.75c-27.51 0-44.97-0.29-56.54-0.65-12.25-0.38-21.29-0.28-21.62 0.25zm571.01 3.65c-0.19 1.79-0.24 56.91-0.1 122.5l0.25 119.25 78.5-0.5c0.1-187.55-0.01-242.56-0.18-243.25-0.25-0.97-8.94-1.25-39.22-1.25h-38.9z"/>
	</g>
</svg>