<svg version="1.2" xmlns="http://www.w3.org/2000/svg" viewBox="0 0 2048 2048" width="2048" height="2048">
	<style>
		.s0 { opacity: .98;fill: #e35b3a } 
		.s1 { opacity: 1;fill: #1f1f1d } 
	</style>
	<g id="Background">
		<path id="Path 0" class="s0" d="m1050 884.5c3.58 3.59 6.72 6.52 7 6.52 0.28 0-2.29-2.93-5.69-6.51-3.41-3.58-6.56-6.51-7-6.52-0.45 0 2.11 2.92 5.69 6.51zm507.5 55.87c-3.85 0.73-9.47 2.12-12.5 3.1-3.03 0.97-9.1 3.54-13.5 5.71-4.4 2.17-11.33 6.5-15.4 9.63-4.07 3.13-9.87 8.39-12.9 11.69-3.02 3.3-6.87 8.02-8.55 10.5-1.68 2.48-4.73 8.1-6.8 12.5-2.06 4.4-4.76 12.05-6 17-1.82 7.23-2.26 11.76-2.26 23 0.01 9.83 0.52 16.01 1.71 20.75 0.94 3.71 2.31 8.21 3.04 10 0.74 1.79 1.42 3.59 1.5 4 0.09 0.41 1.68 3.79 3.54 7.5 1.86 3.71 5.06 9 7.12 11.75 2.05 2.75 5.6 6.97 7.87 9.37 2.27 2.41 7.51 7.07 11.63 10.37 4.13 3.3 11.55 7.95 16.5 10.33 4.95 2.39 12.6 5.37 17 6.62 6.92 1.98 10.29 2.29 25 2.29 14.8 0 18.04-0.3 25-2.32 4.4-1.27 11.15-3.76 15-5.53 3.85-1.77 10.32-5.45 14.38-8.18 4.06-2.72 10.6-8.32 14.54-12.45 3.93-4.12 9.5-11.33 12.37-16 2.88-4.67 6.61-12.33 8.3-17 1.69-4.67 3.71-12.1 4.49-16.5 0.78-4.4 1.41-11.6 1.41-16-0.01-4.4-0.86-12.05-1.88-17-1.03-4.95-3.27-12.6-4.98-17-1.71-4.4-5.3-11.37-7.98-15.5-2.68-4.12-7.33-10.2-10.34-13.5-3.01-3.3-8.59-8.33-12.39-11.18-3.81-2.85-11.2-7.21-16.42-9.7-5.22-2.49-13.33-5.46-18-6.61-5.35-1.31-13.13-2.25-21-2.53-8.06-0.28-14.99 0.03-19.5 0.89zm-881.5 127.38c7.42 0.17 19.8 0.17 27.5 0 7.7-0.17 1.63-0.31-13.5-0.31-15.12 0-21.42 0.14-14 0.31zm-127.5 143.97c1.65 0.22 4.8 0.22 7 0.01 2.2-0.22 0.85-0.4-3-0.4-3.85-0.01-5.65 0.17-4 0.39z"/>
		<path id="Path 1" fill-rule="evenodd" class="s1" d="m551.5 837.15c8.8-0.09 20.73 0.31 26.5 0.89 5.77 0.58 15 1.96 20.5 3.07 5.5 1.1 14.05 3.36 19 5.01 4.95 1.65 13.05 4.91 18 7.24 4.95 2.33 13.26 7.14 18.47 10.69 5.2 3.55 13.72 10.5 18.92 15.45 5.2 4.95 12.09 12.6 15.33 17 3.23 4.4 8.28 12.73 11.22 18.5 2.94 5.78 6.71 14.78 8.38 20 1.66 5.23 3.95 14 5.07 19.5 1.13 5.5 2.4 13.27 3.61 24.52h-103l-2.22-9.76c-1.34-5.88-3.9-13.14-6.46-18.26-2.83-5.68-6.08-10.32-9.79-14-3.06-3.02-8.25-6.92-11.54-8.65-3.3-1.74-8.47-3.89-11.49-4.79-3.02-0.89-9.55-1.89-14.5-2.22-6.33-0.41-11.52-0.11-17.5 1.04-4.67 0.89-11.65 3.12-15.5 4.95-3.85 1.84-9.7 5.57-13 8.3-3.3 2.73-8.28 8.32-11.06 12.42-2.78 4.1-6.45 11.05-8.15 15.45-1.7 4.4-4.04 12.39-5.19 17.75-1.16 5.36-2.61 15.26-3.23 22-0.65 7.03-0.87 18.85-0.53 27.75 0.33 8.53 1.29 20 2.14 25.5 0.84 5.5 2.23 12.47 3.08 15.5 0.84 3.03 2.64 8.31 3.99 11.75 1.35 3.44 4.21 9.06 6.35 12.5 2.15 3.44 6.99 9.19 10.75 12.79 4.37 4.18 9.57 7.89 14.35 10.26 4.12 2.05 10.65 4.39 14.5 5.2 3.85 0.8 10.83 1.48 15.5 1.49 5.41 0.02 11.41-0.72 16.5-2.02 4.4-1.14 10.25-3.27 13-4.75 2.75-1.48 7.97-5.62 11.6-9.21 4.94-4.87 7.64-8.65 10.72-15.01 2.27-4.67 5.14-12.67 8.68-27.05l102.5 0.05-0.45 2.75c-0.24 1.51-0.73 5.22-1.09 8.25-0.35 3.03-1.55 9.78-2.66 15-1.12 5.22-3.6 14-5.52 19.5-1.92 5.5-5.31 13.6-7.53 18-2.21 4.4-6.15 11.15-8.74 15-2.59 3.85-7.18 9.92-10.2 13.5-3.02 3.58-9.28 9.71-13.9 13.63-4.63 3.91-11.56 9.15-15.41 11.62-3.85 2.47-10.83 6.41-15.5 8.75-4.67 2.33-13 5.74-18.5 7.57-5.5 1.82-14.5 4.22-20 5.31-5.5 1.1-14.73 2.54-20.5 3.19-6.67 0.76-17.97 0.99-31 0.64-16.69-0.45-22.78-1.03-32.75-3.13-6.74-1.42-16.64-3.96-22-5.65-5.36-1.7-15.6-5.95-22.75-9.47-7.23-3.55-16.99-9.37-22-13.12-4.95-3.71-13.05-10.84-18-15.85-4.95-5.01-12.02-13.36-15.71-18.55-3.69-5.19-9.15-14.16-12.13-19.94-2.98-5.78-6.57-13.42-7.97-17-1.41-3.58-3.91-11.22-5.56-17-1.66-5.78-3.9-15.22-5-21-1.09-5.78-2.52-16.8-3.19-24.5-0.73-8.4-0.97-20-0.59-29 0.34-8.25 1.09-18.83 1.68-23.5 0.58-4.67 2.12-13.67 3.42-20 1.3-6.33 4.01-16.67 6.03-23 2.01-6.33 6.56-17.35 10.11-24.5 3.54-7.15 9.47-17.26 13.18-22.46 3.7-5.21 11.03-13.76 16.28-19 5.25-5.25 13.13-12.1 17.5-15.23 4.37-3.13 12.68-8.16 18.45-11.18 5.77-3.01 13.99-6.86 18.25-8.56 4.26-1.69 12.81-4.39 19-6.01 6.19-1.61 14.63-3.42 18.75-4 4.12-0.59 9.08-1.22 11-1.41 1.92-0.18 10.7-0.41 19.5-0.5zm371-0.03c8.8-0.07 20.73 0.34 26.5 0.92 5.77 0.58 15.67 2.2 22 3.6 6.33 1.4 15.77 4.13 21 6.08 5.23 1.94 13.55 5.56 18.5 8.05 4.95 2.48 10.8 5.67 13 7.08 2.2 1.42 7.6 5.34 12 8.73 4.4 3.39 12.07 10.39 17.03 15.54 4.97 5.16 11.56 13.21 14.65 17.88 3.08 4.67 7.9 13.11 10.71 18.75 2.81 5.64 6.86 15.31 8.99 21.5 2.14 6.19 4.87 15.75 6.07 21.25 1.21 5.5 2.85 14.73 3.66 20.5 0.81 5.78 1.75 20.85 2.08 33.5 0.34 12.65 0.32 24.69-0.69 30.5h-123.5c-98.14 0-123.5 0.26-123.49 1.25 0.01 0.69 1.07 6.42 2.36 12.75 1.29 6.33 3.8 15.1 5.58 19.5 1.78 4.4 5.21 11.04 7.64 14.75 2.43 3.71 6.43 8.78 8.91 11.25 2.48 2.47 6.86 6.06 9.75 7.97 2.89 1.91 7.95 4.57 11.25 5.91 3.3 1.34 9.6 3.18 14 4.09 4.78 0.98 12.63 1.64 19.5 1.63 6.33-0.01 13.75-0.46 16.5-0.99 2.75-0.53 7.25-1.72 10-2.64 2.75-0.92 7.67-3.09 10.94-4.82 3.27-1.73 8.67-5.85 12-9.15 3.34-3.3 7.52-8.81 12.56-18.5h51.5c45.11 0 51.5 0.19 51.5 1.5 0 0.83-1.51 6.11-3.37 11.75-1.85 5.64-4.92 13.63-6.83 17.75-1.91 4.13-5.41 10.65-7.78 14.5-2.36 3.85-6.19 9.47-8.5 12.5-2.32 3.03-7.77 9.05-12.11 13.38-4.35 4.34-11.74 10.74-16.41 14.23-4.67 3.48-13.45 8.8-19.5 11.82-6.05 3.02-15.73 7.1-21.5 9.08-5.77 1.97-15.9 4.67-22.5 6-6.6 1.32-17.17 2.94-23.5 3.59-7.07 0.72-19.2 0.97-31.5 0.63-14-0.38-23.75-1.2-32.5-2.73-6.88-1.21-17.56-3.73-23.75-5.6-6.19-1.87-15.64-5.33-21-7.69-5.36-2.36-13.58-6.6-18.25-9.44-4.67-2.83-12.3-8.22-16.94-11.96-4.64-3.75-11.51-10.18-15.27-14.31-3.76-4.12-9.74-11.55-13.29-16.5-3.55-4.95-9.17-14.4-12.48-21-3.31-6.6-7.82-17.51-10.02-24.25-2.2-6.74-5.11-17.76-6.46-24.5-1.35-6.74-2.99-17.42-3.64-23.75-0.73-7.14-0.96-19.09-0.61-31.5 0.3-11 1.3-24.72 2.21-30.5 0.91-5.77 3.15-16.35 4.99-23.5 1.83-7.15 5.2-17.72 7.5-23.5 2.29-5.77 6.01-13.87 8.26-18 2.24-4.12 6.67-11.33 9.85-16 3.17-4.67 9.28-12.28 13.58-16.91 4.3-4.62 10.97-10.97 14.82-14.11 3.85-3.13 11.05-8.33 16-11.54 4.95-3.21 12.37-7.39 16.5-9.29 4.12-1.9 12.67-5.2 19-7.35 6.33-2.14 16-4.79 21.5-5.88 5.5-1.08 13.37-2.35 17.5-2.82 4.12-0.46 14.7-0.9 23.5-0.98zm-23.75 82.96c-3.44 1.15-8.5 3.36-11.25 4.91-2.75 1.55-7.42 5-10.37 7.67-2.96 2.66-7.45 7.99-9.98 11.84-2.53 3.85-5.86 10.15-7.41 14-1.54 3.85-3.47 10.26-4.27 14.25-0.81 3.99-1.47 7.92-1.47 8.75 0 1.32 8.37 1.5 69.25 1.51l69.25 0.01c-1.25-10.48-3.04-17.79-4.78-23.02-1.83-5.48-5.11-12.46-7.76-16.5-2.52-3.85-7.03-9.16-10.02-11.8-2.99-2.63-8.59-6.34-12.44-8.23-3.85-1.89-9.7-4.16-13-5.04-3.3-0.88-11.17-1.76-17.5-1.96-6.33-0.2-13.86 0.06-16.75 0.58-2.89 0.52-8.06 1.89-11.5 3.03z"/>
		<path id="Path 2" class="s0" d="m1110.5 844.74c2.75 0.2 7.47 0.2 10.5 0 3.03-0.2 0.78-0.37-5-0.37-5.78 0-8.25 0.17-5.5 0.37zm135 359.01c11.55 0.16 30 0.16 41 0 11-0.16 1.55-0.29-21-0.29-22.55 0-31.55 0.13-20 0.29zm72.5 0c5.22 0.18 14 0.18 19.5 0 5.5-0.18 1.22-0.33-9.5-0.33-10.72 0-15.22 0.15-10 0.33z"/>
		<path id="Path 3" class="s1" d="m1098 845.25c-0.01 0.14 3.4 9.92 7.56 21.75 4.16 11.83 12.23 34.77 17.92 51 5.69 16.23 17.4 49.52 26.02 74 8.62 24.48 19.4 55.08 23.96 68 4.56 12.92 13.94 39.47 20.84 59 6.9 19.53 16.42 46.3 21.14 59.5 4.72 13.2 8.58 24.11 8.57 24.25 0 0.14 27.78 0.27 61.74 0.28l61.75 0.04c9.15-26.02 17.62-49.99 24.74-70.07 7.11-20.08 17.14-48.65 22.28-63.5 5.14-14.85 17.52-50.17 27.49-78.5 9.98-28.33 21.89-62.3 26.46-75.5 4.57-13.2 11.97-34.35 16.44-47 4.46-12.65 8.08-23.12 8.03-23.26-0.05-0.14-25.35-0.14-56.22 0l-56.12 0.26c-4.19 13.95-9.7 32.17-14.96 49.5-5.25 17.33-13.2 43.87-17.66 59-4.46 15.12-14.19 47.98-21.62 73-7.43 25.03-14.85 50-16.5 55.5-1.65 5.5-3.17 9.78-3.38 9.5-0.2-0.28-2.67-7.92-5.48-17-2.81-9.08-10.96-36.3-18.12-60.5-7.15-24.2-19.91-67.17-28.35-95.5-8.43-28.33-16.84-56.57-18.68-62.77l-3.35-11.27c-88.74 0.03-114.5 0.15-114.5 0.29z"/>
	</g>
</svg>