<svg version="1.2" xmlns="http://www.w3.org/2000/svg" viewBox="0 0 2048 2048" width="2048" height="2048">
	<style>
		.s0 { opacity: .99;fill: #e95731 } 
		.s1 { opacity: 1;fill: #000000 } 
	</style>
	<g id="Background">
		<path id="Path 0" class="s0" d="m834 243.75c5.77 0.17 15.67 0.17 22 0 6.33-0.18 1.6-0.32-10.5-0.32-12.1 0-17.27 0.14-11.5 0.32zm-747.63 750.75c0 5.5 0.17 7.52 0.37 4.5 0.2-3.03 0.2-7.53-0.01-10-0.2-2.48-0.37 0-0.36 5.5zm433.05 29c0 11.55 0.15 16.05 0.33 10 0.17-6.05 0.17-15.5 0-21-0.18-5.5-0.33-0.55-0.33 11zm-433.08 39.5c0 4.12 0.17 5.92 0.39 4 0.21-1.93 0.21-5.3 0-7.5-0.22-2.2-0.39-0.63-0.39 3.5zm1027.26 152.25c0.22 0.41 92.99 0.76 206.15 0.78 113.16 0.01 205.37-0.32 204.92-0.75-0.46-0.43-93.23-0.78-206.16-0.78-112.92 0-205.14 0.34-204.91 0.75zm611.9 161.86c-6.6 0.45-13.12 1.26-14.5 1.78-1.37 0.53-4.75 1.25-7.5 1.59-2.75 0.34-7.02 1.22-9.5 1.94-2.47 0.72-7.87 2.36-12 3.64-4.12 1.28-8.62 2.91-10 3.63-1.37 0.71-3.06 1.3-3.75 1.3-0.69 0.01-2.04 0.43-3 0.94-0.96 0.51-5.8 2.9-10.75 5.3-4.95 2.41-12.37 6.34-16.5 8.74-4.12 2.4-7.61 4.74-7.75 5.2-0.14 0.46-0.92 0.83-1.75 0.83-0.82 0-1.72 0.67-2 1.5-0.27 0.82-1.06 1.49-1.75 1.47-0.69-0.02-2.24 0.77-3.45 1.75-1.21 0.98-3.24 2.57-4.5 3.55-1.27 0.97-5.42 4.34-9.23 7.5-3.82 3.15-9.67 8.46-13 11.8-3.34 3.33-8.65 9.18-11.8 13-3.16 3.81-6.42 7.83-7.25 8.93-0.84 1.1-3.1 4.14-5.02 6.75-1.93 2.61-3.5 4.97-3.5 5.25 0 0.28-1.32 2.41-2.92 4.75-1.61 2.34-5.77 9.9-9.25 16.81-3.48 6.91-6.87 13.89-7.52 15.5-0.66 1.62-2.08 5.64-3.15 8.94-1.07 3.3-2.64 8.25-3.48 11-0.84 2.75-1.82 6.8-2.17 9-0.36 2.2-1.06 4.9-1.55 6-0.49 1.1-1.38 5.6-1.98 10-0.6 4.4-1.47 11.82-1.95 16.5-0.47 4.67-0.9 13.56-0.94 19.75-0.07 8.82 0.29 12.02 1.66 14.81 1.43 2.9 1.5 3.68 0.4 4.25-0.94 0.48-1.15 1.74-0.7 4.19 0.36 1.92 0.87 5.07 1.15 7 0.27 1.92 0.73 4.62 1.01 6 0.41 2.01 0.69 2.21 1.44 1 0.82-1.33 0.92-1.33 0.95 0 0.02 0.82-0.46 1.95-1.06 2.5-0.8 0.72-0.77 2.1 0.12 5 0.67 2.2 1.47 4.67 1.77 5.5 0.3 0.82 0.59 2.17 0.65 3 0.06 0.82 0.68 3.53 1.37 6 0.7 2.47 2.15 7.2 3.24 10.5 1.08 3.3 2.36 6.9 2.83 8 0.47 1.1 3.25 6.95 6.18 13 2.93 6.05 5.58 11.22 5.88 11.5 0.31 0.28 1.12 1.62 1.8 3 0.68 1.37 2.13 3.85 3.22 5.5 1.09 1.65 2.29 3.67 2.67 4.5 0.38 0.82 2.07 3.36 3.76 5.64 1.69 2.27 3.75 5.14 4.57 6.38 0.83 1.24 2.51 3.55 3.75 5.12 1.24 1.57 2.7 2.64 3.25 2.36 0.55-0.28 0.77 0.06 0.5 0.75-0.28 0.69 4.14 5.97 9.81 11.75 5.68 5.78 13.1 12.86 16.51 15.75 3.4 2.89 6.63 5.25 7.18 5.25 0.55 0 1.34 0.59 1.75 1.31 0.41 0.72 4.24 3.64 8.5 6.5 4.26 2.85 8.2 4.97 8.75 4.69 0.55-0.28 0.98 0.06 0.96 0.75-0.02 0.69 5.04 3.89 11.25 7.12 7.83 4.06 11.75 5.6 12.78 5 1.06-0.62 1.28-0.51 0.75 0.38-0.48 0.82 0.21 1.6 2.01 2.25 1.51 0.55 3.54 1.45 4.5 2 0.96 0.55 2.31 1 3 1.01 0.69 0 2.38 0.6 3.75 1.34 1.38 0.73 4.08 1.68 6 2.11 1.93 0.42 3.95 1.13 4.5 1.56 0.55 0.44 3.19 1.17 5.87 1.64 2.68 0.46 5.04 1.18 5.25 1.59 0.21 0.41 2.97 1.03 6.13 1.38 3.16 0.34 6.54 1.01 7.5 1.5 0.96 0.48 5.69 1.1 10.5 1.39 4.81 0.28 8.86 0.95 9 1.5 0.15 0.6 7.61 0.98 19.25 0.98 12 0 19-0.37 19-1 0-0.55 2.14-1.03 4.75-1.07 2.61-0.04 7-0.47 9.75-0.96 2.75-0.48 7.93-1.4 11.5-2.02 3.58-0.63 6.95-1.5 7.5-1.94 0.55-0.43 3.03-1.11 5.5-1.51 2.48-0.4 4.95-1.07 5.5-1.5 0.55-0.42 2.58-1.11 4.5-1.52 1.93-0.42 4.18-1.13 5-1.59 0.83-0.45 4.88-2.22 9-3.92 4.13-1.71 10.09-4.31 13.26-5.79 3.17-1.47 5.76-3.02 5.75-3.43 0-0.41 0.55-0.77 1.24-0.79 0.69-0.01 4.85-2.28 9.25-5.02 4.4-2.74 10.96-7.11 14.57-9.71 3.62-2.6 8.98-6.76 11.91-9.23 2.93-2.47 8.98-8.1 13.43-12.5 4.45-4.4 10.34-10.87 13.09-14.38 2.75-3.51 5.79-7.1 6.76-8 0.97-0.89 1.74-2.07 1.72-2.62-0.03-0.55 0.88-1.9 2.02-3 1.14-1.1 2.05-2.56 2.03-3.25-0.02-0.69 0.31-1.25 0.72-1.24 0.41 0 1.65-1.65 2.75-3.68 1.1-2.03 2.45-4.19 3-4.8 0.55-0.62 1.85-2.68 2.89-4.58 1.04-1.9 3.36-6.38 5.16-9.95 1.79-3.58 4.24-8.75 5.43-11.5 1.19-2.75 2.52-5.68 2.95-6.5 0.44-0.83 1.13-3.08 1.55-5 0.41-1.93 1.1-3.95 1.52-4.5 0.42-0.55 1.1-2.58 1.5-4.5 0.4-1.93 1.08-3.95 1.5-4.5 0.43-0.55 1.08-3.03 1.44-5.5 0.37-2.47 1.07-5.4 1.55-6.5 0.48-1.1 1.38-5.15 1.99-9 0.61-3.85 1.51-9.93 2.01-13.5 0.5-3.58 0.91-14.83 0.91-25 0-10.18-0.41-21.43-0.91-25-0.5-3.58-1.4-9.65-2-13.5-0.6-3.85-1.45-7.68-1.9-8.5-0.45-0.83-1.1-3.86-1.45-6.75-0.35-2.89-1.09-5.47-1.64-5.75-0.55-0.28-1.22-2.53-1.5-5-0.27-2.47-0.95-4.5-1.5-4.5-0.55 0-1.21-1.46-1.47-3.25-0.25-1.79-1.15-4.6-1.99-6.25-0.84-1.65-1.53-3.56-1.53-4.25-0.01-0.69-0.68-2.49-1.49-4-0.82-1.51-2.61-5.22-3.99-8.25-1.38-3.03-4.06-8.2-5.98-11.5-1.91-3.3-3.8-6.68-4.21-7.5-0.41-0.83-1.11-1.95-1.57-2.5-0.46-0.55-2.59-3.47-4.74-6.5-2.15-3.03-5.85-7.95-8.22-10.94-2.37-2.99-9.26-10.48-15.31-16.64-6.05-6.17-13.99-13.62-17.64-16.57-3.64-2.94-7.63-6.03-8.86-6.85-1.23-0.83-3.3-2.29-4.62-3.25-1.31-0.96-2.83-1.75-3.38-1.75-0.55 0-1.11-0.37-1.25-0.82-0.14-0.45-4.52-3.3-9.75-6.34-5.22-3.03-12.42-6.88-16-8.54-3.57-1.67-8.07-3.72-10-4.57-1.92-0.85-7.55-2.88-12.5-4.52-4.95-1.65-11.47-3.7-14.5-4.57-3.02-0.87-7.97-1.88-11-2.24-3.02-0.37-5.95-1.02-6.5-1.45-0.55-0.44-7.86-1.28-16.25-1.87-8.39-0.59-18.74-1.01-23-0.94-4.26 0.08-13.15 0.52-19.75 0.97zm-886.75 426.64c-13 0.16-20.75 0.62-20.75 1.25 0 0.64 8 1 22 1 12.28 0 21.98-0.39 21.95-0.89-0.02-0.49-0.58-1.06-1.25-1.25-0.66-0.2-10.54-0.25-21.95-0.11z"/>
		<path id="Path 1" class="s1" d="m793 245.04c-2.48 0.46-11.7 1.32-20.5 1.92-8.8 0.59-21.85 1.69-29 2.43-7.15 0.75-13.67 1.64-14.5 1.98-0.83 0.34-4.88 1.06-9 1.59-4.13 0.54-11.55 1.65-16.5 2.47-4.95 0.82-12.38 2.16-16.5 2.99-4.13 0.83-10.65 2.2-14.5 3.04-3.85 0.85-10.83 2.24-15.5 3.09-4.67 0.86-9.17 1.93-10 2.38-0.83 0.46-3.75 1.17-6.5 1.58-2.75 0.41-5.45 1.1-6 1.53-0.55 0.43-2.8 1.1-5 1.5-2.2 0.4-4.45 1.06-5 1.47-0.55 0.42-3.02 1.23-5.5 1.81-2.48 0.57-6.52 1.57-9 2.21-2.48 0.65-5.96 1.8-7.75 2.57-1.79 0.77-3.92 1.4-4.75 1.4-0.83 0-2.29 0.41-3.25 0.91-0.96 0.5-3.77 1.58-6.25 2.4-2.48 0.82-8.33 2.69-13 4.16-4.67 1.47-9.96 3.31-11.75 4.1-1.79 0.79-3.7 1.43-4.25 1.43-0.55 0-1.79 0.43-2.75 0.96-0.96 0.54-3.89 1.89-6.5 3-2.61 1.12-5.2 2.04-5.75 2.04-0.55 0-1.79 0.43-2.75 0.95-0.96 0.52-3.33 1.61-5.25 2.41-1.92 0.81-7.77 3.3-13 5.55-5.23 2.25-10.06 4.09-10.75 4.09-0.69 0-1.25 0.45-1.25 1 0 0.55-1.24 1.26-2.75 1.58-1.51 0.33-2.98 0.89-3.25 1.26-0.27 0.36-2.52 1.62-5 2.79-2.48 1.18-9.45 4.54-15.5 7.49-6.05 2.94-11.59 5.92-12.32 6.62-0.73 0.69-1.74 1.26-2.25 1.26-0.51 0-4.42 2.1-8.68 4.67-4.26 2.57-9.32 5.51-11.25 6.53-1.93 1.02-5.07 2.81-7 3.98-1.93 1.17-4.4 2.63-5.5 3.25-1.1 0.61-4.02 2.45-6.5 4.09-2.48 1.64-4.98 3.43-5.57 3.98-0.59 0.55-2.73 1.9-4.76 3-2.03 1.1-3.68 2.34-3.68 2.75 0.01 0.41-0.33 0.73-0.74 0.71-0.41-0.02-3.45 1.79-6.75 4.03-3.3 2.23-9.15 6.33-13 9.11-3.85 2.77-8.13 5.79-9.5 6.69-1.37 0.91-4.98 3.56-8 5.91-3.02 2.34-9.03 7.08-13.35 10.53-4.32 3.45-11.46 9.42-15.87 13.27-4.41 3.85-9.44 8.13-11.19 9.5-1.75 1.38-6.08 5.2-9.61 8.5-3.54 3.3-13.42 13.02-21.96 21.6-8.54 8.58-18.22 18.49-21.52 22.01-3.3 3.52-7.29 7.97-8.87 9.89-1.58 1.93-5.85 6.82-9.5 10.88-3.65 4.06-7.04 8.11-7.55 9-0.5 0.89-2.82 3.87-5.14 6.62-2.33 2.75-8.44 10.72-13.59 17.71-5.14 6.99-10.92 15.01-12.85 17.82-1.93 2.81-4.06 5.75-4.75 6.54-0.69 0.79-1.25 1.66-1.25 1.93 0 0.27-0.79 1.57-1.75 2.88-0.96 1.32-2.31 3.23-3 4.25-0.69 1.03-3.75 5.7-6.79 10.37-3.04 4.67-5.53 8.73-5.53 9 0.01 0.27-1.02 1.85-2.28 3.5-1.26 1.65-2.62 3.67-3.02 4.5-0.4 0.83-1.82 3.3-3.16 5.5-1.34 2.2-2.98 5.13-3.65 6.5-0.67 1.38-1.97 3.63-2.88 5-0.9 1.38-3.45 5.88-5.66 10-2.2 4.13-4.94 9.08-6.09 11-1.14 1.92-3.28 5.98-4.75 9-1.46 3.02-5.48 11.35-8.92 18.5-3.44 7.15-7.71 16.15-9.48 20-1.77 3.85-3.61 7.9-4.1 9-0.49 1.1-1.86 4.7-3.04 8-1.19 3.3-3.01 8.02-4.06 10.5-1.05 2.48-2.34 5.29-2.88 6.25-0.53 0.96-0.96 2.2-0.96 2.75 0 0.55-0.64 2.46-1.41 4.25-0.78 1.79-2.37 6.17-3.53 9.75-1.17 3.58-2.51 7.4-2.98 8.5-0.47 1.1-1.38 4.02-2.02 6.5-0.63 2.48-1.52 5.4-1.97 6.5-0.45 1.1-2.2 6.5-3.89 12-1.69 5.5-3.73 12.25-4.54 15-0.8 2.75-1.78 6.58-2.18 8.5-0.39 1.92-1.06 3.95-1.48 4.5-0.43 0.55-1.11 3.02-1.52 5.5-0.42 2.48-1.13 5.17-1.58 6-0.45 0.83-1.32 3.75-1.92 6.5-0.61 2.75-2.01 9.73-3.12 15.5-1.1 5.77-2.64 13.65-3.42 17.5-0.77 3.85-1.87 9.92-2.43 13.5-0.57 3.58-1.31 7.17-1.66 8-0.34 0.83-1.25 5.33-2.02 10-0.76 4.67-1.82 11.88-2.35 16-0.52 4.13-1.22 8.4-1.54 9.5-0.32 1.1-1.26 7.85-2.07 15-0.82 7.15-2.13 20.88-2.92 30.5-0.79 9.63-1.94 33.02-2.56 52-0.84 25.56-0.84 42.4 0 65 0.62 16.78 1.78 37.92 2.57 47 0.8 9.08 2.14 21.9 2.98 28.5 0.83 6.6 2.17 16.28 2.97 21.5 0.8 5.22 2.13 13.33 2.95 18 0.83 4.67 2.2 12.1 3.04 16.5 0.84 4.4 2.17 11.15 2.96 15 0.79 3.85 2.19 11.05 3.11 16 0.92 4.95 2.07 9.9 2.57 11 0.49 1.1 1.33 4.25 1.87 7 0.54 2.75 1.65 7.47 2.48 10.5 0.83 3.03 2.02 7.53 2.66 10 0.63 2.47 1.78 5.96 2.55 7.75 0.77 1.79 1.4 4.15 1.4 5.25 0 1.1 0.42 2.79 0.93 3.75 0.51 0.96 1.58 4 2.38 6.75 0.8 2.75 2.67 9.05 4.15 14 1.48 4.95 3.05 9.67 3.5 10.5 0.44 0.83 1.09 3.19 1.42 5.25 0.34 2.06 1.07 3.75 1.62 3.75 0.55 0 1.3 1.69 1.67 3.75 0.37 2.06 1.27 4.88 2 6.25 0.72 1.38 1.32 3.06 1.32 3.75 0.01 0.69 0.66 2.49 1.45 4 0.79 1.51 2.14 4.44 3 6.5 0.86 2.06 1.56 4.42 1.56 5.25 0 0.83 0.45 1.5 1 1.5 0.55 0 1 0.67 1 1.5 0 0.83 1.15 4.31 2.54 7.75 1.4 3.44 2.94 7.15 3.42 8.25 0.47 1.1 2.21 4.92 3.85 8.5 1.64 3.58 5.52 11.9 8.62 18.5 3.11 6.6 6.01 12.67 6.47 13.5 0.45 0.83 3.05 5.55 5.78 10.5 2.74 4.95 5.28 9.67 5.66 10.5 0.38 0.83 1.73 3.3 3 5.5 1.28 2.2 3.3 5.69 4.49 7.75 1.19 2.06 3.14 5.44 4.33 7.5 1.18 2.06 2.65 4.65 3.27 5.75 0.61 1.1 2.45 4.03 4.08 6.5 1.63 2.47 3.2 4.72 3.48 5 0.28 0.28 1.05 1.4 1.72 2.5 0.66 1.1 2.63 4.47 4.38 7.5 1.75 3.03 3.46 5.72 3.8 6 0.33 0.28 1.62 1.96 2.86 3.75 1.24 1.79 2.25 3.47 2.25 3.75 0 0.28 0.46 1.06 1.03 1.75 0.57 0.69 2.79 3.72 4.94 6.75 2.16 3.03 5.76 7.97 8.02 11 2.25 3.03 7.31 9.78 11.24 15 3.93 5.22 9.17 11.97 11.64 15 2.46 3.03 4.96 6 5.55 6.62 0.6 0.62 4.45 5.09 8.58 9.93 4.12 4.84 9.75 11.13 12.5 13.98 2.75 2.84 9.34 9.62 14.66 15.07 5.31 5.44 14.08 14.18 19.49 19.4 5.41 5.22 13.22 12.42 17.35 15.99 4.12 3.56 8.01 6.94 8.64 7.5 0.62 0.55 3.1 2.67 5.5 4.7 2.4 2.03 7.85 6.53 12.11 10 4.26 3.47 10.34 8.24 13.5 10.61 3.16 2.36 10.49 7.76 16.28 12 5.79 4.23 11.27 8.15 12.17 8.7 0.9 0.55 7.75 5.16 15.22 10.25 7.47 5.09 13.81 9.25 14.08 9.25 0.27 0 5.11 2.71 10.75 6.03 5.64 3.31 10.93 6.46 11.75 7 0.82 0.54 2.62 1.46 4 2.05 1.37 0.59 2.73 1.4 3 1.8 0.27 0.4 12.43 6.61 27 13.81 14.57 7.19 28.19 13.81 30.25 14.69 2.06 0.89 4.09 1.61 4.5 1.61 0.41-0.01 4.58 1.59 9.25 3.56 4.67 1.96 9.4 3.99 10.5 4.51 1.1 0.51 5.15 2.04 9 3.39 3.85 1.36 7.45 2.15 7.99 1.76 0.54-0.39 0.68-0.26 0.31 0.29-0.4 0.59 3.89 2.54 10.51 4.77 6.16 2.07 11.64 3.76 12.19 3.76 0.55-0.01 2.12 0.58 3.5 1.3 1.37 0.73 4.3 1.68 6.5 2.11 2.2 0.44 4.67 1.13 5.5 1.55 0.83 0.42 3.98 1.47 7 2.33 3.02 0.86 7.75 2.22 10.5 3.02 2.75 0.8 6.58 1.78 8.5 2.18 1.92 0.39 3.95 1 4.5 1.34 0.55 0.35 3.25 1.15 6 1.79 2.75 0.63 8.15 1.9 12 2.81 3.85 0.9 7.9 1.86 9 2.12 1.1 0.26 5.6 1.18 10 2.04 4.4 0.86 11.37 2.22 15.5 3.03 4.12 0.8 11.55 2.13 16.5 2.94 4.95 0.82 13.5 2.14 19 2.94 5.5 0.81 15.17 2.13 21.5 2.95 6.33 0.82 20.73 2.27 32 3.22 15.51 1.3 31.69 1.72 66.5 1.74 25.3 0.01 49.83-0.34 54.5-0.78 4.67-0.43 14.12-1.19 21-1.69 6.87-0.49 18.12-1.56 25-2.37 6.87-0.81 13.4-1.73 14.5-2.04 1.1-0.32 5.6-1.03 10-1.58 4.4-0.55 11.6-1.64 16-2.41 4.4-0.77 10.92-1.92 14.5-2.56 3.58-0.64 8.08-1.58 10-2.09 1.92-0.52 6.42-1.38 10-1.92 3.58-0.54 7.4-1.22 8.5-1.5 1.1-0.28 4.92-1.23 8.5-2.1 3.58-0.87 8.75-2.14 11.5-2.82 2.75-0.68 5.67-1.53 6.5-1.88 0.83-0.36 3.3-1.08 5.5-1.61 2.2-0.53 6.03-1.48 8.5-2.1 2.47-0.62 5.17-1.49 6-1.94 0.83-0.45 3.3-1.15 5.5-1.56 2.2-0.41 4.45-1.08 5-1.48 0.55-0.41 5.05-1.97 10-3.49 4.95-1.51 11.47-3.63 14.5-4.7 3.03-1.08 8.42-3.1 12-4.48 3.58-1.39 7.96-3.15 9.75-3.93 1.79-0.78 3.7-1.41 4.25-1.41 0.55 0 1.79-0.43 2.75-0.96 0.96-0.54 4-1.93 6.75-3.09 2.75-1.17 6.74-2.87 8.87-3.79 2.13-0.91 13.83-6.66 26-12.78 12.17-6.11 24.02-12.19 26.33-13.5 2.31-1.31 9.51-5.64 16-9.63 6.49-3.99 13.15-8.04 14.8-9 1.65-0.96 3.22-2 3.5-2.3 0.28-0.3 3.65-2.65 7.5-5.22 3.85-2.57 9.07-6.15 11.6-7.95 2.53-1.81 6.72-4.86 9.31-6.78 2.59-1.92 7.49-5.63 10.9-8.24 3.4-2.61 9.69-7.56 13.97-11 4.28-3.44 13.95-11.66 21.5-18.26 7.55-6.6 20.47-18.76 28.72-27.02 8.25-8.25 19.95-20.69 26-27.64 6.05-6.94 13.81-16.16 17.25-20.48 3.44-4.32 8.53-10.78 11.32-14.36 2.79-3.58 5.72-7.29 6.5-8.25 0.79-0.96 1.41-2.09 1.39-2.5-0.03-0.41 0.7-1.42 1.61-2.25 0.92-0.83 6.45-8.7 12.3-17.49 5.85-8.79 11.08-16.72 11.63-17.61 0.55-0.89 2.27-3.82 3.81-6.51 1.55-2.69 3.89-6.69 5.19-8.89 1.3-2.2 3.64-6.37 5.18-9.26 1.55-2.9 3.16-5.26 3.57-5.25 0.41 0 1.01-1.23 1.33-2.74 0.33-1.51 0.9-2.97 1.27-3.25 0.38-0.28 3.31-5.9 6.52-12.5 3.2-6.6 6.57-13.58 7.48-15.5 0.91-1.92 1.99-3.61 2.4-3.75 0.41-0.14 0.75-0.7 0.75-1.25 0-0.55 0.94-3.14 2.09-5.75 1.15-2.61 3.43-7.67 5.07-11.25 1.64-3.58 3.33-7.17 3.77-8 0.43-0.83 1.08-2.96 1.43-4.75 0.35-1.79 1.09-3.25 1.64-3.25 0.55 0 1.45-2.25 2-5 0.55-2.75 1.45-5.22 2-5.5 0.55-0.28 1-1.17 1-2 0-0.83 0.64-2.96 1.42-4.75 0.78-1.79 2.43-6.4 3.66-10.25 1.23-3.85 2.62-7.45 3.1-8 0.47-0.55 0.85-1.79 0.84-2.75-0.01-0.96 0.59-3.21 1.34-5 0.75-1.79 2.28-6.4 3.42-10.25 1.13-3.85 2.74-9.25 3.59-12 0.84-2.75 1.78-6.8 2.08-9 0.31-2.2 0.96-4.45 1.44-5 0.49-0.55 1.21-3.03 1.61-5.5 0.4-2.47 1.06-4.95 1.48-5.5 0.41-0.55 0.76-1.67 0.77-2.5 0.01-0.83 0.55-3.53 1.19-6 0.65-2.47 1.88-7.42 2.73-11 0.85-3.58 1.61-8.19 1.69-10.25 0.08-2.06 0.48-3.75 0.89-3.75 0.41 0 1.02-1.69 1.34-3.75 0.32-2.06 0.66-5.84 0.75-8.4 0.09-2.71 0.56-4.38 1.11-4 0.53 0.36 0.7-0.02 0.4-0.85-0.3-0.83 0.06-3.19 0.8-5.25 0.74-2.06 1.24-5.73 1.1-8.15-0.14-2.41-0.03-4.25 0.25-4.09 0.28 0.17 0.59-0.89 0.7-2.35 0.11-1.46 0.64-5.58 1.18-9.16 0.54-3.58 1.35-7.97 1.8-9.77l0.82-3.28-413.5 0.05c-0.66 5.04-1.53 9.65-2.35 13.5-0.83 3.85-2.01 9.47-2.61 12.5-0.61 3.03-1.52 6.4-2.02 7.5-0.5 1.1-1.21 4.03-1.58 6.5-0.36 2.47-1 4.95-1.42 5.5-0.41 0.55-1.05 2.35-1.42 4-0.37 1.65-1.58 6.15-2.69 10-1.11 3.85-2.38 7.67-2.82 8.5-0.45 0.83-1.1 2.96-1.45 4.75-0.35 1.79-1.09 3.47-1.64 3.75-0.55 0.28-1 1.29-1.01 2.25 0 0.96-0.69 3.1-1.53 4.75-0.84 1.65-1.51 3.34-1.49 3.75 0.02 0.41-1.94 4.91-4.34 10-2.4 5.09-5.57 11.72-7.04 14.75-1.47 3.03-3.08 6.17-3.58 7-0.49 0.83-2.84 4.79-5.2 8.82-2.37 4.03-4.98 8.39-5.81 9.7-0.83 1.31-2.84 4.31-4.48 6.68-1.64 2.36-5.24 7.21-8 10.76-2.76 3.55-10.87 12.48-18.02 19.84-7.15 7.36-15.48 15.35-18.5 17.76-3.02 2.42-10.45 7.76-16.5 11.89-6.05 4.12-11.56 7.51-12.25 7.52-0.69 0.02-1.24 0.37-1.24 0.78 0.01 0.41-5.5 3.53-12.25 6.93-6.74 3.4-14.4 7.11-17.01 8.25-2.61 1.14-4.98 2.07-5.25 2.07-0.27 0-1.96 0.62-3.75 1.38-1.79 0.76-6.17 2.33-9.75 3.49-3.58 1.16-7.51 2.11-8.75 2.12-1.24 0-2.48 0.46-2.75 1.01-0.27 0.55-2.86 1.28-5.75 1.61-2.89 0.34-5.7 0.96-6.25 1.39-0.55 0.43-4.38 1.28-8.5 1.89-4.13 0.61-10.2 1.53-13.5 2.05-3.3 0.51-9.83 1.28-14.5 1.72-4.67 0.43-18.85 0.8-31.5 0.82-12.65 0.01-28.85-0.54-36-1.22-7.15-0.68-15.02-1.68-17.5-2.22-2.48-0.54-6.98-1.47-10-2.06-3.02-0.6-7.98-1.56-11-2.14-3.02-0.59-5.95-1.47-6.5-1.97-0.55-0.5-1.9-0.9-3-0.9-1.1 0.01-7.17-1.76-13.5-3.92-6.33-2.16-13.3-4.66-15.5-5.55-2.2-0.9-5.58-2.33-7.5-3.19-1.92-0.86-8.45-4.04-14.5-7.06-6.05-3.02-12.01-6-13.24-6.62-1.24-0.62-2.25-1.47-2.25-1.88-0.01-0.41-0.46-0.75-1.01-0.75-0.55 0-4.94-2.56-9.75-5.7-4.81-3.13-9.93-6.62-11.37-7.75-1.45-1.13-3.9-2.95-5.46-4.05-1.56-1.1-6.01-4.68-9.88-7.95-3.87-3.27-12.01-10.92-18.08-17-6.07-6.08-12.85-13.08-15.06-15.55-2.22-2.47-5.58-6.53-7.47-9.01-1.89-2.49-4.02-5.19-4.75-6-0.72-0.82-4.27-5.77-7.88-10.99-3.61-5.22-9.46-14.45-13-20.5-3.54-6.05-6.85-11.67-7.35-12.5-0.51-0.83-3.12-6-5.81-11.5-2.69-5.5-6.48-13.37-8.43-17.5-1.94-4.12-4.94-10.65-6.65-14.5-1.71-3.85-3.1-7.56-3.08-8.25 0.01-0.73-0.49-0.94-1.22-0.5q-1.23 0.74-0.5-0.5c0.41-0.69 0.23-2.49-0.4-4-0.63-1.51-1.75-4.21-2.5-6-0.75-1.79-1.35-3.81-1.33-4.5 0.01-0.69-0.32-1.62-0.75-2.08-0.43-0.46-0.8-1.36-0.82-2-0.02-0.64-0.62-3.2-1.34-5.67-0.72-2.47-1.72-5.29-2.21-6.25-0.5-0.96-0.91-2.42-0.91-3.25 0-0.83-0.34-1.32-0.75-1.1-0.41 0.23-0.81-0.79-0.89-2.25-0.08-1.46-0.9-5.35-1.83-8.65-0.93-3.3-2.37-8.47-3.2-11.5-0.83-3.03-2.12-8.2-2.87-11.5-0.75-3.3-1.83-8.25-2.41-11-0.59-2.75-1.57-7.25-2.2-10-0.63-2.75-1.77-9.5-2.55-15-0.77-5.5-2-14.28-2.73-19.5-0.73-5.22-1.44-9.72-1.57-10-0.13-0.28-0.31-0.95-0.41-1.5-0.09-0.55-0.53-5.95-0.97-12-0.43-6.05-1.16-12.58-1.62-14.5-0.45-1.92-1.08-8.45-1.4-14.5-0.31-6.05-0.84-22.03-1.18-35.5-0.33-13.47-0.11-37.33 0.5-53 0.61-15.67 1.54-30.98 2.06-34 0.52-3.02 1.41-10.23 1.97-16 0.56-5.77 1.48-14.33 2.04-19 0.55-4.67 1.16-9.4 1.35-10.5 0.2-1.1 0.6-2.67 0.91-3.5 0.31-0.83 1.24-6.23 2.08-12 0.83-5.77 2.18-13.87 3-18 0.82-4.12 2.21-10.42 3.1-14 0.88-3.58 2.23-8.98 3-12 0.77-3.02 1.89-7.52 2.5-10 0.61-2.48 1.49-5.4 1.96-6.5 0.47-1.1 1.86-5.37 3.09-9.5 1.23-4.12 3.78-12.23 5.67-18 1.89-5.77 4.12-12.08 4.96-14 0.84-1.92 1.91-4.4 2.37-5.5 0.46-1.1 1.9-4.7 3.18-8 1.29-3.3 2.68-6.11 3.09-6.25 0.41-0.14 0.75-0.7 0.75-1.25 0-0.55 0.94-3.14 2.09-5.75 1.15-2.61 3.18-7 4.5-9.75 1.32-2.75 4.34-8.6 6.72-13 2.37-4.4 5.86-10.62 7.75-13.81 1.89-3.2 3.9-6.58 4.46-7.5 0.55-0.93 2.35-3.71 3.98-6.19 1.64-2.48 6.71-9.45 11.28-15.5 4.57-6.05 10.43-13.69 13.02-16.98 2.58-3.28 10.11-11.38 16.71-18 6.61-6.61 13.81-13.37 16-15.02 2.2-1.65 6.72-5.25 10.07-8 3.34-2.75 7.1-5.67 8.36-6.5 1.26-0.83 4.16-2.85 6.45-4.5 2.29-1.65 5.05-3.56 6.14-4.25 1.08-0.69 3.09-1.74 4.47-2.34 1.37-0.6 3.62-1.89 5-2.88 1.37-0.99 7-4.07 12.5-6.84 5.5-2.76 11.58-5.7 13.5-6.53 1.92-0.82 5.52-2.37 8-3.43 2.48-1.06 6.08-2.29 8-2.74 1.92-0.44 4.62-1.41 6-2.14 1.37-0.74 3.42-1.34 4.55-1.34 1.13-0.01 2.48-0.41 3-0.9 0.52-0.5 3.2-1.43 5.95-2.08 2.75-0.65 7.25-1.66 10-2.23 2.75-0.57 5.9-1.43 7-1.9 1.1-0.46 5.15-1.32 9-1.89 3.85-0.58 10.83-1.51 15.5-2.08 4.67-0.57 12.1-1.51 16.5-2.09 4.72-0.62 17.63-0.84 31.5-0.54 12.92 0.28 28.23 0.99 34 1.57 5.77 0.58 12.52 1.51 15 2.06 2.48 0.56 6.98 1.49 10 2.09 3.02 0.59 7.98 1.54 11 2.09 3.02 0.56 5.95 1.39 6.5 1.84 0.55 0.45 2.91 1.1 5.25 1.44 2.34 0.33 4.48 1.06 4.75 1.61 0.27 0.55 1.51 1 2.75 1.01 1.24 0 3.37 0.59 4.75 1.3 1.37 0.72 4.69 1.95 7.38 2.75 2.68 0.79 5.04 1.78 5.25 2.19 0.2 0.41 1.16 0.76 2.12 0.76 0.96 0.01 7.83 3.03 15.25 6.7 7.42 3.68 13.73 6.96 14 7.29 0.27 0.33 2.75 1.88 5.5 3.45 2.75 1.57 6.69 4.14 8.75 5.7 2.06 1.57 3.98 2.85 4.25 2.85 0.27 0 5.79 4.45 12.25 9.89 6.46 5.43 14.67 12.99 18.25 16.79 3.58 3.8 9.42 10.47 13 14.82 3.58 4.35 7.43 9.29 8.56 10.96 1.13 1.67 3.79 5.52 5.92 8.54 2.12 3.02 4.61 6.85 5.53 8.5 0.92 1.65 2.3 4.13 3.08 5.5 0.78 1.38 1.67 2.73 1.98 3 0.32 0.27 2.86 5 5.65 10.5 2.8 5.5 6.73 14.05 8.75 19 2.01 4.95 4.31 10.46 5.1 12.25 0.79 1.79 1.43 3.92 1.43 4.75 0 0.83 0.34 1.67 0.75 1.88 0.41 0.2 1.14 2.11 1.62 4.25 0.47 2.13 1.23 4.54 1.67 5.37 0.45 0.83 1.57 3.98 2.49 7 0.92 3.02 2.29 8.42 3.05 12 0.75 3.58 2.04 9.2 2.86 12.5 0.82 3.3 1.99 8.25 2.61 11 0.61 2.75 1.55 6.8 2.1 9 0.54 2.2 1.31 5.13 1.69 6.5l0.71 2.5 413.45 0.5c0.04-9.69-0.29-12.87-0.72-13.32-0.43-0.46-1.33-5.41-2-11-0.66-5.6-1.9-14.23-2.74-19.18-0.84-4.95-2.09-12.37-2.78-16.5-0.69-4.12-1.55-7.95-1.91-8.5-0.36-0.55-0.98-3.7-1.38-7-0.39-3.3-1.08-6.67-1.52-7.5-0.44-0.83-1.26-3.98-1.82-7-0.55-3.02-1.75-8.2-2.65-11.5-0.9-3.3-2.26-8.25-3.03-11-0.76-2.75-2.22-8.15-3.25-12-1.02-3.85-2.12-7.67-2.44-8.5-0.31-0.83-1.56-4.87-2.78-9-1.21-4.12-2.6-8.29-3.09-9.25-0.49-0.96-0.91-2.31-0.92-3-0.02-0.69-0.91-3.05-1.97-5.25-1.06-2.2-1.93-4.67-1.94-5.5 0-0.83-0.68-2.85-1.52-4.5-0.84-1.65-1.53-3.79-1.53-4.75-0.01-0.96-0.35-1.92-0.76-2.13-0.41-0.21-1.09-1.78-1.5-3.5-0.41-1.72-1.68-5.26-2.82-7.87-1.14-2.61-2.72-6.21-3.5-8-0.79-1.79-1.44-3.59-1.45-4-0.01-0.41-1.09-3-2.39-5.75-1.3-2.75-3.35-7.25-4.57-10-1.21-2.75-3.32-7.48-4.69-10.5-1.37-3.02-3.68-7.98-5.13-11-1.45-3.02-3.6-7.08-4.77-9-1.17-1.92-4.07-7.1-6.44-11.5-2.37-4.4-5.13-9.35-6.14-11-1.01-1.65-2.39-4.12-3.07-5.5-0.68-1.37-1.52-2.73-1.86-3-0.34-0.27-1.74-2.52-3.11-5-1.37-2.48-3.12-5.62-3.9-7-0.77-1.37-1.63-2.73-1.91-3-0.28-0.27-1.51-1.96-2.75-3.75-1.24-1.79-2.25-3.7-2.25-4.25 0-0.55-0.34-1.11-0.75-1.25-0.41-0.14-2.87-3.4-5.47-7.25-2.6-3.85-5.97-8.81-7.5-11.03-1.53-2.21-4.56-6.49-6.74-9.5-2.18-3.01-6.35-8.4-9.28-11.97-2.92-3.57-5.63-6.95-6.03-7.51-0.4-0.55-4.1-5.04-8.23-9.97-4.12-4.94-10.2-11.86-13.5-15.4-3.3-3.54-10.99-11.42-17.09-17.53-6.1-6.1-14.88-14.54-19.5-18.75-4.63-4.22-11.11-9.98-14.41-12.82-3.3-2.84-7.35-6.26-9-7.61-1.65-1.35-6.01-4.81-9.69-7.68-3.68-2.88-9.41-7.25-12.73-9.73-3.33-2.48-8.3-6.19-11.06-8.25-2.76-2.06-5.24-3.75-5.52-3.75-0.28 0-2.3-1.35-4.5-3-2.2-1.65-4.22-3-4.5-3-0.28 0-5.34-3.28-11.25-7.29-5.91-4.01-14.35-9.42-18.75-12.02-4.4-2.6-8.67-5.18-9.5-5.72-0.83-0.54-2.17-1.29-3-1.67-0.83-0.38-5.1-2.74-9.5-5.25-4.4-2.5-13.62-7.32-20.5-10.72-6.87-3.39-17.34-8.45-23.25-11.25-5.91-2.79-10.97-5.08-11.25-5.08-0.28 0-2.64-0.92-5.25-2.05-2.61-1.13-5.65-2.46-6.75-2.94-1.1-0.48-6.28-2.49-11.5-4.46-5.22-1.97-10.17-3.96-11-4.43-0.83-0.46-3.08-1.18-5-1.6-1.92-0.41-3.95-1.03-4.5-1.36-0.55-0.33-1.45-0.68-2-0.78-0.55-0.1-4.6-1.35-9-2.79-4.4-1.43-8.9-2.99-10-3.46-1.1-0.47-4.7-1.64-8-2.6-3.3-0.96-7.8-2.33-10-3.06-2.2-0.72-5.58-1.63-7.5-2.01-1.92-0.38-3.95-1.03-4.5-1.45-0.55-0.42-3.14-1.04-5.75-1.38-2.61-0.35-4.92-0.97-5.13-1.38-0.22-0.41-3.03-1.13-6.25-1.6-3.23-0.47-6.32-1.13-6.87-1.47-0.55-0.34-1.67-0.74-2.5-0.89-0.83-0.14-5.1-0.91-9.5-1.71-4.4-0.79-11.6-2.18-16-3.09-4.4-0.91-11.6-2.31-16-3.11-4.4-0.79-12.73-2.13-18.5-2.97-5.77-0.84-16.12-2.17-23-2.94-6.87-0.78-19.25-1.89-27.5-2.48-8.25-0.58-17.02-1.47-19.5-1.97-2.48-0.51-25.87-0.89-52-0.87-26.12 0.03-49.52 0.43-52 0.89z"/>
	</g>
</svg>